Berangeen-Bold.sfdir
StartChar: .notdef
Encoding: 0 0 56
GlifName: _notdef
Width: 512
VWidth: 1000
Flags: HW
LayerCount: 2
Fore
SplineSet
22 849.497474683 m 1
 490 849.497474683 l 1
 539.497474683 800 l 1
 539.497474683 3.5527136788e-15 l 1
 490 -49.4974746831 l 1
 22 -49.4974746831 l 1
 -27.4974746831 1.06581410364e-14 l 1
 -27.4974746831 800 l 1
 22 849.497474683 l 1
440.502525317 750.502525317 m 1
 71.4974746831 750.502525317 l 1
 71.4974746831 49.4974746831 l 1
 440.502525317 49.4974746831 l 1
 440.502525317 750.502525317 l 1
295.497474683 350.502525317 m 1
 295.497474683 212 l 1
 196.502525317 212 l 1
 196.502525317 400 l 1
 246 449.497474683 l 1
 316.751182737 449.497474683 l 1
 324.839850412 470.202872671 328.521975671 489.516827388 328.521975671 507.668069886 c 0
 328.521975671 531.948750576 321.933156998 554.148866528 310.489532154 574.815923422 c 1
 293.261831294 583.939673643 275.765646097 588.501548753 258.000976566 588.501548753 c 0
 245.956559956 588.501548753 233.788725994 586.404537969 221.497474683 582.210516406 c 1
 221.497474683 570 l 1
 194.946566293 570 l 1
 187.343606112 565.613991176 179.694750681 560.448166282 172 554.502525317 c 1
 187.497474683 570 l 1
 122.502525317 570 l 1
 122.502525317 604 l 1
 172 653.497474683 l 1
 201.333984375 676.163490308 230.000976562 687.496498121 258.000976562 687.496498121 c 0
 286.000976562 687.496498121 315.253033988 678.244440695 340 653.497474683 c 2
 389.497474683 604 l 1
 412.942163249 575.290810403 427.516925035 543.780591296 427.516925035 507.668069878 c 0
 427.516925035 475.78050428 416.152994496 440.304527115 389.497474683 400 c 1
 340 350.502525317 l 1
 295.497474683 350.502525317 l 1
200.502525317 152 m 1
 299.497474683 152 l 1
 299.497474683 108 l 1
 200.502525317 108 l 1
 200.502525317 152 l 1
EndSplineSet
EndChar
StartChar: exclam
Encoding: 33 33 0
GlifName: exclam
Width: 109
Flags: HW
LayerCount: 2
Fore
SplineSet
0.502525316942 812 m 1
 99.4825730988 813.214479114 l 1
 105.497474683 323 l 1
 6.51742690116 321.785520886 l 1
 0.502525316942 812 l 1
9.50252531694 203 m 1
 108.497474683 203 l 1
 108.497474683 137 l 1
 9.50252531694 137 l 1
 9.50252531694 203 l 1
EndSplineSet
EndChar
StartChar: quotedbl
Encoding: 34 34 1
GlifName: quotedbl
Width: 520
Flags: HW
LayerCount: 2
Fore
SplineSet
167.002525317 671 m 1
 164.002525317 737 l 1
 262.997474683 737 l 1
 265.997474683 671 l 1
 167.002525317 671 l 1
257.002525317 674 m 1
 355.997474683 674 l 1
 352.997474683 740 l 1
 254.002525317 740 l 1
 257.002525317 674 l 1
EndSplineSet
EndChar
StartChar: numbersign
Encoding: 35 35 2
GlifName: numbersign
Width: 523
Flags: HW
LayerCount: 2
Fore
SplineSet
56 205.502525317 m 1
 53.8332663655 304.450027961 l 1
 467 313.497474683 l 1
 469.166733635 214.549972039 l 1
 56 205.502525317 l 1
56 405.502525317 m 1
 53.8332663655 504.450027961 l 1
 467 513.497474683 l 1
 469.166733635 414.549972039 l 1
 56 405.502525317 l 1
332.79142588 556.877853662 m 1
 429.497474683 542 l 1
 373.20857412 176.122146338 l 1
 276.502525317 191 l 1
 332.79142588 556.877853662 l 1
131.79142588 556.877853662 m 1
 228.497474683 542 l 1
 172.20857412 176.122146338 l 1
 75.5025253169 191 l 1
 131.79142588 556.877853662 l 1
EndSplineSet
EndChar
StartChar: dollar
Encoding: 36 36 3
GlifName: dollar
Width: 541
Flags: HW
LayerCount: 2
Fore
SplineSet
200.502525317 203 m 1
 299.497474683 203 l 1
 299.497474683 -1 l 1
 200.502525317 -1 l 1
 200.502525317 203 l 1
233.502525317 803 m 1
 332.497474683 803 l 1
 332.497474683 611 l 1
 233.502525317 611 l 1
 233.502525317 803 l 1
234.025024948 546.955401101 m 0
 234.025024948 531.312256262 236.624425321 515.738657989 242.095196968 501.063928282 c 1
 263.468214365 482.299501932 285.516192349 463.939752994 305.724185832 443.731759511 c 2
 355.221660515 394.234284828 l 2
 391.290773917 358.165171426 420.125654205 317.411803822 420.125654205 265.567273561 c 0
 420.125654205 248.925022399 417.154423264 231.139905189 410.497474683 212 c 1
 410.434407508 191.449236398 402.516796352 175.39504536 390.330835218 163.209084227 c 2
 340.833360535 113.711609544 l 2
 321.130766393 94.0090154016 290.249786977 81.9776325574 256.150393285 81.9776325574 c 0
 223.040514963 81.9776325574 205.735867733 105.647580721 184 123.502525317 c 1
 134.502525317 173 l 1
 119.502525317 227 l 1
 211.406145932 252.528783504 l 1
 217.539981736 230.446974609 223.67381754 208.365165714 229.807653344 186.283356819 c 1
 237.195344197 182.890024852 245.526858602 180.972581924 256.150393285 180.972581924 c 0
 274.507851976 180.972581924 294.043393171 185.855580974 308.672033345 191.940133601 c 1
 310.484669873 198.087750878 311.48032292 204.765234725 311.502525317 212 c 0
 318.159473894 231.139905184 321.130704834 248.92502239 321.130704834 265.567273549 c 0
 321.130704834 306.621104568 303.049821427 340.720232921 277.613590555 371.045930277 c 1
 255.730100701 390.52505891 231.049380197 410.778392112 211.226071013 430.601701296 c 2
 161.72859633 480.099175979 l 2
 155.143471625 486.684300684 149.00950902 493.300525846 143.502525317 500 c 0
 137.756825284 514.984841463 135.030075402 530.933644238 135.030075402 546.955400809 c 0
 135.030075402 585.082867419 150.47198281 623.623480018 177.417903178 650.569400386 c 2
 226.915377861 700.066875069 l 2
 242.164061977 715.315559185 261.096817625 726.851132432 283 732.497474683 c 1
 303.739079058 722.704049711 319.311454566 695.939684091 340 684.497474683 c 2
 381.926406748 661.30924585 l 1
 340 585.502525317 l 1
 325.361204411 593.598800869 312.489097091 608.222346185 300.589422309 620.122020966 c 0
 294.584644757 625.885277931 288.76890326 630.778329074 283 633.502525317 c 1
 272.843595762 630.884342565 263.325873064 626.999896259 254.517982799 622.066147136 c 1
 241.278601374 599.412377245 234.025024948 573.086854999 234.025024948 546.955401101 c 0
EndSplineSet
EndChar
StartChar: percent
Encoding: 37 37 4
GlifName: percent
Width: 676
Flags: HW
LayerCount: 2
Fore
SplineSet
387.502525317 317 m 0
 387.502525317 336.85357463 394.903163512 354.454781114 406.419068213 365.970685816 c 2
 455.916542896 415.468160499 l 2
 464.702103904 424.253721506 475.882859704 429.497474683 488 429.497474683 c 0
 500.117140296 429.497474683 511.297896096 424.253721506 520.083457104 415.468160499 c 2
 569.580931787 365.970685816 l 2
 581.096836488 354.454781114 588.497474683 336.85357463 588.497474683 317 c 0
 588.497474683 297.14642537 581.096836488 279.545218886 569.580931787 268.029314184 c 2
 520.083457104 218.531839501 l 2
 511.297896096 209.746278494 500.117140296 204.502525317 488 204.502525317 c 0
 475.882859704 204.502525317 464.702103904 209.746278494 455.916542896 218.531839501 c 2
 406.419068213 268.029314184 l 2
 394.903163512 279.545218886 387.502525317 297.14642537 387.502525317 317 c 0
486.497474683 317 m 0
 486.497474683 312.36027715 486.901655619 307.843565889 487.668085597 303.498786762 c 0
 487.778644812 303.498786762 487.889283317 303.497474683 488 303.497474683 c 0
 488.110716827 303.497474683 488.221355476 303.498786802 488.331914626 303.498786802 c 0
 489.098344595 307.843565906 489.502525317 312.36027714 489.502525317 317 c 0
 489.502525317 321.63972285 489.098344381 326.156434111 488.331914403 330.501213238 c 0
 488.221355188 330.501213238 488.110716683 330.502525317 488 330.502525317 c 0
 487.889283173 330.502525317 487.778644524 330.501213198 487.668085374 330.501213198 c 0
 486.901655405 326.156434094 486.497474683 321.63972286 486.497474683 317 c 0
87.5025253169 617 m 0
 87.5025253169 636.85357463 94.9031635118 654.454781114 106.419068213 665.970685816 c 2
 155.916542896 715.468160499 l 2
 164.702103904 724.253721506 175.882859704 729.497474683 188 729.497474683 c 0
 200.117140296 729.497474683 211.297896096 724.253721506 220.083457104 715.468160499 c 2
 269.580931787 665.970685816 l 2
 281.096836488 654.454781114 288.497474683 636.85357463 288.497474683 617 c 0
 288.497474683 597.14642537 281.096836488 579.545218886 269.580931787 568.029314184 c 2
 220.083457104 518.531839501 l 2
 211.297896096 509.746278494 200.117140296 504.502525317 188 504.502525317 c 0
 175.882859704 504.502525317 164.702103904 509.746278494 155.916542896 518.531839501 c 2
 106.419068213 568.029314184 l 2
 94.9031635118 579.545218886 87.5025253169 597.14642537 87.5025253169 617 c 0
186.497474683 617 m 0
 186.497474683 612.36027715 186.901655619 607.843565889 187.668085597 603.498786762 c 0
 187.778644812 603.498786762 187.889283317 603.497474683 188 603.497474683 c 0
 188.110716827 603.497474683 188.221355476 603.498786802 188.331914626 603.498786802 c 0
 189.098344595 607.843565906 189.502525317 612.36027714 189.502525317 617 c 0
 189.502525317 621.63972285 189.098344381 626.156434111 188.331914403 630.501213238 c 0
 188.221355188 630.501213238 188.110716683 630.502525317 188 630.502525317 c 0
 187.889283173 630.502525317 187.778644524 630.501213198 187.668085374 630.501213198 c 0
 186.901655405 626.156434094 186.497474683 621.63972286 186.497474683 617 c 0
462.660695208 693.722875756 m 1
 528.497474683 647 l 1
 165.339304792 135.277124244 l 1
 99.5025253169 182 l 1
 462.660695208 693.722875756 l 1
EndSplineSet
EndChar
StartChar: ampersand
Encoding: 38 38 5
GlifName: ampersand
Width: 577
Flags: HW
LayerCount: 2
Fore
SplineSet
298.320176435 546.603400173 m 0
 298.320176435 563.503686449 296.868313083 571.163389446 296.675116821 592.896797294 c 0
 296.402335396 623.58305343 296.008503208 667.886786317 288.368242884 701.954578486 c 1
 282.736020756 701.332116855 277.996511008 700.203549146 273.89951452 698.694101806 c 1
 252.497474683 644 l 1
 252.497474683 491 l 1
 258.598047317 477.359017669 260.903702039 463.188739194 263.083220889 449.175909796 c 1
 284.01691788 476.626935737 298.320176435 507.640998365 298.320176435 546.603400173 c 0
477.497474683 272 m 1
 477.497474683 240.127712728 452.292181506 174.195537182 417.993519271 133.269477762 c 1
 462.849037183 67.1669921875 l 1
 395.065843472 21.1709871475 l 1
 359.393845753 73.7399424148 l 1
 344.329957653 58.676054314 327.796487747 48.5025253169 311 48.5025253169 c 0
 252.293438749 48.5025253169 204.494721537 53.8529082379 176.409201919 81.9384278563 c 2
 126.911727236 131.435902539 l 2
 109.355809727 148.991820048 99.5025253169 175.431147546 99.5025253169 215 c 0
 99.5025253169 274.579673466 130.226757122 316.112756455 167.519273292 353.405272625 c 2
 190.051471924 375.937471257 l 1
 186.011129986 384.786706025 181.853075539 393.204608192 177.502525317 401 c 0
 161.948090668 428.870202232 166.758690443 461.358993792 153.502525317 491 c 1
 153.502525317 644 l 1
 180.502525317 713 l 1
 230 762.497474683 l 2
 232.901049564 764.161247376 235.466288127 765.959614332 237.801871347 767.839443886 c 2
 255.085905974 785.123478514 l 2
 264.108589948 794.146162488 274.963831171 801.497474683 299 801.497474683 c 0
 307.020114895 801.497474683 313.662556727 798.344981893 319.166583911 792.840954709 c 2
 368.664058594 743.343480026 l 2
 402.11890929 709.88862933 390.961148716 619.416704008 396.497474683 563 c 0
 397.049064086 557.379198871 397.315125801 551.917374107 397.315125801 546.603400181 c 0
 397.315125801 490.962887894 368.145840517 451.531784974 332.152828169 415.538772627 c 2
 290.139905643 373.5258501 l 1
 314.076577067 320.374223638 334.142408638 256.838819704 364.216504322 212.519356492 c 1
 373.226125262 235.704721817 378.502525317 257.417358052 378.502525317 272 c 1
 477.497474683 272 l 1
198.497474683 215 m 0
 198.497474683 193.401916259 201.433126531 175.7155956 206.954682178 161.250516779 c 1
 233.946191837 150.257843405 269.035640635 147.569476314 309.342824174 147.498915355 c 1
 261.502525317 218 l 2
 246.177497479 240.584091033 233.608047502 269.047694167 221.797619361 298.286765086 c 1
 207.552482102 274.370564454 198.497474683 247.344616587 198.497474683 215 c 0
EndSplineSet
EndChar
StartChar: quotesingle
Encoding: 39 39 6
GlifName: quotesingle
Width: 307
Flags: HW
LayerCount: 2
Fore
SplineSet
105.574784404 730.673586224 m 1
 204.497474683 728 l 1
 201.425215596 614.326413776 l 1
 102.502525317 617 l 1
 105.574784404 730.673586224 l 1
EndSplineSet
EndChar
StartChar: parenleft
Encoding: 40 40 7
GlifName: parenleft
Width: 391
Flags: HW
LayerCount: 2
Fore
SplineSet
217.997474683 467 m 0
 217.997474683 200.438109847 238.992559826 -18.8848387331 266.255125956 -46.1474048626 c 1
 222.5 -2.39227890678 l 1
 222.5 -98.4974746831 l 1
 220.559146332 -98.4974746831 218.643405417 -97.5306336897 216.757651273 -95.6448795456 c 2
 167.26017659 -46.1474048626 l 2
 139.99761046 -18.8848387331 119.002525317 200.438109847 119.002525317 467 c 0
 119.002525317 733.561890153 139.99761046 952.884838733 167.26017659 980.147404863 c 2
 216.757651273 1029.64487955 l 2
 218.643405417 1031.53063369 220.559146332 1032.49747468 222.5 1032.49747468 c 1
 222.5 936.392278907 l 1
 266.255125956 980.147404863 l 1
 238.992559826 952.884838733 217.997474683 733.561890153 217.997474683 467 c 0
EndSplineSet
EndChar
StartChar: parenright
Encoding: 41 41 8
GlifName: parenright
Width: 391
Flags: HW
LayerCount: 2
Fore
SplineSet
168.5 1032.49747468 m 1
 170.440853668 1032.49747468 172.356594583 1031.53063369 174.242348727 1029.64487955 c 2
 223.73982341 980.147404863 l 2
 251.00238954 952.884838733 271.997474683 733.561890153 271.997474683 467 c 0
 271.997474683 200.438109847 251.00238954 -18.8848387331 223.73982341 -46.1474048626 c 2
 174.242348727 -95.6448795456 l 2
 172.356594583 -97.5306336897 170.440853668 -98.4974746831 168.5 -98.4974746831 c 1
 168.5 -2.39227890678 l 1
 124.744874044 -46.1474048626 l 1
 152.007440174 -18.8848387331 173.002525317 200.438109847 173.002525317 467 c 0
 173.002525317 733.561890153 152.007440174 952.884838733 124.744874044 980.147404863 c 1
 168.5 936.392278907 l 1
 168.5 1032.49747468 l 1
EndSplineSet
EndChar
StartChar: asterisk
Encoding: 42 42 9
GlifName: asterisk
Width: 512
Flags: HW
LayerCount: 2
Fore
SplineSet
368.421751593 617.485729058 m 1
 418.997474683 568 l 1
 143.578248407 286.514270942 l 1
 93.0025253169 336 l 1
 368.421751593 617.485729058 l 1
91.0143739613 563.917033909 m 1
 140.5 614.497474683 l 1
 420.985626039 340.082966091 l 1
 371.5 289.502525317 l 1
 91.0143739613 563.917033909 l 1
205.002525317 614 m 1
 303.988988189 614.916541323 l 1
 306.997474683 290 l 1
 208.011011811 289.083458677 l 1
 205.002525317 614 l 1
EndSplineSet
EndChar
StartChar: plus
Encoding: 43 43 10
GlifName: plus
Width: 512
Flags: HW
LayerCount: 2
Fore
SplineSet
198.002525317 554 m 1
 296.997474683 554 l 1
 296.997474683 273 l 1
 198.002525317 273 l 1
 198.002525317 554 l 1
395.5 460.497474683 m 1
 395.5 361.502525317 l 1
 116.5 361.502525317 l 1
 116.5 460.497474683 l 1
 395.5 460.497474683 l 1
EndSplineSet
EndChar
StartChar: hyphen
Encoding: 45 45 13
GlifName: hyphen
Width: 512
Flags: HW
LayerCount: 2
Fore
SplineSet
430 460.497474683 m 1
 430 361.502525317 l 1
 82 361.502525317 l 1
 82 460.497474683 l 1
 430 460.497474683 l 1
EndSplineSet
EndChar
StartChar: period
Encoding: 46 46 14
GlifName: period
Width: 142
Flags: HW
LayerCount: 2
Fore
SplineSet
187.497474683 29 m 1
 138 -20.4974746831 l 1
 88.5025253169 29 l 1
 138 78.4974746831 l 1
 187.497474683 29 l 1
EndSplineSet
EndChar
StartChar: slash
Encoding: 47 47 15
GlifName: slash
Width: 512
Flags: HW
LayerCount: 2
Fore
SplineSet
175.51404335 72.0140489865 m 1
 91.0025253169 107 l 1
 336.48595665 699.985951013 l 1
 420.997474683 665 l 1
 175.51404335 72.0140489865 l 1
EndSplineSet
EndChar
StartChar: zero
Encoding: 48 48 16
GlifName: zero
Width: 334
Flags: HW
LayerCount: 2
Fore
SplineSet
45.5025253169 205 m 0
 45.5025253169 292.172619877 65.2387562234 366.393338221 93.08649537 394.241077368 c 2
 142.583970053 443.738552051 l 2
 150.195748466 451.350330464 158.413556712 455.497474683 167 455.497474683 c 0
 175.586443288 455.497474683 183.804251534 451.350330464 191.416029947 443.738552051 c 2
 240.91350463 394.241077368 l 2
 268.761243777 366.393338221 288.497474683 292.172619877 288.497474683 205 c 0
 288.497474683 117.827380123 268.761243777 43.6066617786 240.91350463 15.758922632 c 2
 191.416029947 -33.738552051 l 2
 183.804251534 -41.3503304644 175.586443288 -45.4974746831 167 -45.4974746831 c 0
 158.413556712 -45.4974746831 150.195748466 -41.3503304644 142.583970053 -33.738552051 c 2
 93.08649537 15.758922632 l 2
 65.2387562234 43.6066617786 45.5025253169 117.827380123 45.5025253169 205 c 0
144.497474683 205 m 0
 144.497474683 147.39234172 153.116625187 95.441000958 167 58.7913905259 c 1
 180.883374813 95.441000958 189.502525317 147.39234172 189.502525317 205 c 0
 189.502525317 262.60765828 180.883374813 314.558999042 167 351.208609474 c 1
 153.116625187 314.558999042 144.497474683 262.60765828 144.497474683 205 c 0
EndSplineSet
EndChar
StartChar: one
Encoding: 49 49 17
GlifName: one
Width: 259
Flags: HW
LayerCount: 2
Fore
SplineSet
179.497474683 -1.06581410364e-14 m 5
 80.5025253169 -1.06581410364e-14 l 5
 80.5025253169 312.790724835 l 5
 67 299.502525317 l 5
 17.5088605882 349.791908913 l 5
 130 460.497474683 l 5
 179.497474683 411 l 5
 179.497474683 -1.06581410364e-14 l 5
50 -49.4974746831 m 1
 50 49.4974746831 l 1
 209 49.4974746831 l 1
 209 -49.4974746831 l 1
 50 -49.4974746831 l 1
EndSplineSet
EndChar
StartChar: two
Encoding: 50 50 18
GlifName: two
Width: 550
Flags: HW
LayerCount: 2
Fore
SplineSet
346.969676597 279.548364428 m 0
 346.969676597 303.039318707 339.483527984 334.276338228 329.097844881 355.816497778 c 1
 319.731690469 359.562106856 309.434870642 361.599946936 298.259501884 361.599946936 c 0
 252.188945106 361.599946936 225.353026982 341.567800053 195.204546322 319.384342828 c 0
 179.176670035 307.59092239 162.213367985 295.109209309 141 284.502525317 c 1
 101.402020254 363.69848481 l 1
 141 383.497474683 l 2
 162.213367985 394.104158675 179.176670035 406.585871756 195.204546322 418.379292194 c 0
 225.352936212 440.56268263 252.190605962 460.594896302 298.259501884 460.594896302 c 0
 322.093341495 460.594896302 341.931137178 451.325863924 357.267330245 435.989670857 c 2
 406.764804928 386.492196174 l 2
 428.877963126 364.379037976 445.964625964 319.150116469 445.964625964 279.548364428 c 0
 445.964625964 251.872740978 437.582672209 225.603608673 418.497474683 199 c 0
 402.881287044 176.723967633 387.106882289 158.297885114 370.992587755 142.18359058 c 2
 321.495113072 92.6861158972 l 2
 305.280616415 76.4716192402 288.721989824 62.5977503396 271.634150482 49.4974746831 c 1
 396 49.4974746831 l 1
 396 -49.4974746831 l 1
 141 -49.4974746831 l 1
 141 49.4974746831 l 1
 195.289804886 97.0773036839 243.73734556 123.614379298 295.394196108 167.637194856 c 0
 303.48789139 177.221633455 311.515900237 187.607314224 319.502525317 199 c 0
 338.587722843 225.603608673 346.969676597 251.872740978 346.969676597 279.548364428 c 0
EndSplineSet
EndChar
StartChar: three
Encoding: 51 51 19
GlifName: three
Width: 1024
Flags: H
LayerCount: 2
Fore
SplineSet
347.815429688 -86.5025253169 m 1
 412.836659177 -104.708469574 458.282073478 -140.524095928 536.463300329 -140.524095928 c 0
 565.490953141 -140.524095928 593.647108746 -137.715744761 616.97992732 -128.318598055 c 1
 623.641282538 -111.123457893 626.687128081 -94.6646932315 626.687128081 -78.7286800221 c 0
 626.687128081 -39.8144007822 608.384934207 -3.21275120607 580.032511506 32.3586147108 c 1
 529.038652172 72.6243850984 476.517107968 90.7830660253 420.815429688 129.502525317 c 1
 371.317955005 179 l 1
 541.234099266 361.502525317 l 1
 348.815429688 361.502525317 l 1
 348.815429688 460.497474683 l 1
 636.815429688 460.497474683 l 1
 686.312904371 411 l 1
 481.645977284 191.172559795 l 1
 526.952270936 166.046582286 567.388158022 146.88075613 605.955373575 108.313540577 c 2
 655.452848258 58.8160658937 l 2
 689.415935121 24.8529790338 725.682077453 -29.1481841572 725.682077453 -78.7286800429 c 0
 725.682077453 -107.92245899 713.517683926 -141.677424787 697.009001396 -158.186107315 c 2
 647.511526713 -207.683581998 l 2
 621.602076239 -233.593032472 579.658381587 -239.519045294 536.463300329 -239.519045294 c 0
 458.300611555 -239.519045294 412.794110929 -203.691505429 347.815429688 -185.497474683 c 2
 322.11199328 -178.300512489 l 1
 347.815429688 -86.5025253169 l 1
EndSplineSet
EndChar
StartChar: four
Encoding: 52 52 20
GlifName: four
Width: 571
Flags: HW
LayerCount: 2
Fore
SplineSet
399 49.4974746831 m 1
 399 -49.4974746831 l 1
 79 -49.4974746831 l 1
 29.5025253169 1.06581410364e-14 l 1
 266.927391409 451.766759093 l 1
 344.497474683 411 l 1
 154.510746049 49.4974746831 l 1
 399 49.4974746831 l 1
344.497474683 -205 m 1
 245.502525317 -205 l 1
 245.502525317 411 l 1
 344.497474683 411 l 1
 344.497474683 -205 l 1
392.497474683 -199 m 1
 343 -248.497474683 l 1
 293.502525317 -199 l 1
 343 -149.502525317 l 1
 392.497474683 -199 l 1
EndSplineSet
EndChar
StartChar: five
Encoding: 53 53 21
GlifName: five
Width: 685
Flags: HW
LayerCount: 2
Fore
SplineSet
323.642155266 156.987210564 m 0
 275.454799822 156.987210564 233.684659032 138.083546566 184 135.502525317 c 1
 134.502525317 185 l 1
 128.502525317 411 l 1
 178 460.497474683 l 1
 508 460.497474683 l 1
 508 361.502525317 l 1
 228.811566931 361.502525317 l 1
 232.015359048 240.826355578 l 1
 260.932838936 246.526597587 293.24718826 255.982159931 323.642155266 255.982159931 c 0
 361.251145045 255.982159931 401.287716404 237.255346257 421.844611616 216.698451043 c 2
 471.342086299 167.20097636 l 2
 499.082171019 139.460891641 510.790075539 100.729407733 524.497474683 56 c 0
 533.701077994 24.810011001 539.505971179 -1.67407166966 539.505971179 -27.8635836205 c 0
 539.505971179 -69.3769879345 518.835630998 -121.664298921 494.367807149 -146.132122772 c 2
 444.870332466 -195.629597455 l 2
 424.044373392 -216.455556528 397.087595904 -228.600684404 364 -242.497474683 c 0
 335.715674165 -254.439745591 312.17210737 -259.665941193 286.664840945 -259.665941193 c 0
 271.590373309 -259.665941193 255.830052443 -257.840609516 238 -254.497474683 c 0
 197.185477677 -246.334570218 179.359660409 -219.313270928 148 -200.497474683 c 2
 104.325757633 -174.292929263 l 1
 148 -101.502525317 l 1
 179.373403632 -120.326567496 197.182328532 -147.338991023 238 -155.502525317 c 0
 255.830052443 -158.84566015 271.590373309 -160.670991827 286.664840945 -160.670991827 c 0
 330.332405613 -160.670991827 385.067334793 -137.186656252 416.15638001 -118.595590811 c 1
 431.163180342 -92.0119833905 440.511021813 -55.8387405775 440.511021813 -27.8635836205 c 0
 440.511021813 -1.55763297532 434.656299779 26.1265737609 425.146743466 57.1610545373 c 0
 415.77751972 87.7375592241 407.312581595 115.362923739 393.952364126 138.587256831 c 1
 374.044122932 149.61948081 345.822709893 156.987210564 323.642155266 156.987210564 c 0
EndSplineSet
EndChar
StartChar: six
Encoding: 54 54 22
GlifName: six
Width: 560
Flags: HW
LayerCount: 2
Fore
SplineSet
361.497474683 698 m 1
 320.683575107 591.854486517 252.424306179 488.629295201 214.522607173 378.266280898 c 1
 229.502550188 374.064725634 244.464728235 368.437978636 256.871477858 356.031229013 c 2
 306.368952541 306.533754329 l 2
 324.019141485 288.883565386 336.497474683 257.511530352 336.497474683 197 c 0
 336.497474683 107.560568832 315.569496627 31.0472417569 286.752300634 2.2300457645 c 2
 237.254825951 -47.2674289186 l 2
 229.3414625 -55.1807923698 220.833187036 -59.4974746831 212 -59.4974746831 c 0
 203.626283009 -59.4974746831 195.834515663 -55.609340072 188.677056805 -48.4518812143 c 2
 139.179582122 1.04559346878 l 2
 110.462469921 29.7627056693 86.7821061988 126.357543158 86.7821061988 220.700027215 c 0
 86.7821061988 397.752321813 206.933198619 553.479756228 262.502525317 698 c 2
 275.253455967 731.161596789 l 1
 361.497474683 698 l 1
237.502525317 197 m 0
 237.502525317 231.846539257 233.364438372 257.029787493 226.48358056 275.494049126 c 1
 215.050032827 279.627203538 203.015807419 282.355688269 190.948033404 285.55771219 c 1
 187.616787098 264.284243968 185.777055565 242.677354073 185.777055565 220.700027215 c 0
 185.777055565 154.147512276 197.964425641 86.8364959564 213.247265349 45.1093664412 c 1
 228.110850555 82.9703674358 237.502525317 137.084813571 237.502525317 197 c 0
EndSplineSet
EndChar
StartChar: seven
Encoding: 55 55 23
GlifName: seven
Width: 360
Flags: HW
LayerCount: 2
Fore
SplineSet
195.547623278 361.502525317 m 1
 76 361.502525317 l 1
 76 460.497474683 l 1
 260 460.497474683 l 1
 309.497474683 411 l 1
 117.216608329 -225.407867445 l 1
 26.5025253169 -198 l 1
 195.547623278 361.502525317 l 1
EndSplineSet
EndChar
StartChar: eight
Encoding: 56 56 24
GlifName: eight
Width: 360
Flags: HW
LayerCount: 2
Fore
SplineSet
12.5025253169 582 m 0
 12.5025253169 669.712912691 29.9741325638 743.986127499 53.9001970862 767.912192021 c 2
 103.397671769 817.409666704 l 2
 108.658745439 822.670740374 114.231899122 825.497474683 120 825.497474683 c 0
 125.768100878 825.497474683 131.341254561 822.670740374 136.602328231 817.409666704 c 2
 186.099802914 767.912192021 l 2
 210.025867436 743.986127499 227.497474683 669.712912691 227.497474683 582 c 0
 227.497474683 494.287087309 210.025867436 420.013872501 186.099802914 396.087807979 c 2
 136.602328231 346.590333296 l 2
 131.341254561 341.329259626 125.768100878 338.502525317 120 338.502525317 c 0
 114.231899122 338.502525317 108.658745439 341.329259626 103.397671769 346.590333296 c 2
 53.9001970862 396.087807979 l 2
 29.9741325638 420.013872501 12.5025253169 494.287087309 12.5025253169 582 c 0
111.497474683 582 m 4
 111.497474683 544.9937533 114.607442337 510.379789411 120 480.929823438 c 5
 125.392557663 510.379789411 128.502525317 544.9937533 128.502525317 582 c 4
 128.502525317 619.0062467 125.392557663 653.620210589 120 683.070176562 c 5
 114.607442337 653.620210589 111.497474683 619.0062467 111.497474683 582 c 4
12.5025253169 194 m 0
 12.5025253169 281.712912691 29.9741325638 355.986127499 53.9001970862 379.912192021 c 2
 103.397671769 429.409666704 l 2
 108.658745439 434.670740374 114.231899122 437.497474683 120 437.497474683 c 0
 125.768100878 437.497474683 131.341254561 434.670740374 136.602328231 429.409666704 c 2
 186.099802914 379.912192021 l 2
 210.025867436 355.986127499 227.497474683 281.712912691 227.497474683 194 c 0
 227.497474683 106.287087309 210.025867436 32.0138725012 186.099802914 8.08780797878 c 2
 136.602328231 -41.4096667043 l 2
 131.341254561 -46.6707403736 125.768100878 -49.4974746831 120 -49.4974746831 c 0
 114.231899122 -49.4974746831 108.658745439 -46.6707403736 103.397671769 -41.4096667043 c 2
 53.9001970862 8.08780797878 l 2
 29.9741325638 32.0138725012 12.5025253169 106.287087309 12.5025253169 194 c 0
111.497474683 194 m 0
 111.497474683 156.9937533 114.607442337 122.379789411 120 92.9298234378 c 1
 125.392557663 122.379789411 128.502525317 156.9937533 128.502525317 194 c 0
 128.502525317 231.0062467 125.392557663 265.620210589 120 295.070176562 c 1
 114.607442337 265.620210589 111.497474683 231.0062467 111.497474683 194 c 0
EndSplineSet
EndChar
StartChar: nine
Encoding: 57 57 25
GlifName: nine
Width: 564
Flags: HW
LayerCount: 2
Fore
SplineSet
134.502525317 198.151367188 m 0
 134.502525317 287.590798356 155.430503373 364.104125431 184.247699366 392.921321423 c 2
 233.745174049 442.418796107 l 2
 241.6585375 450.332159558 250.166812964 454.648841871 259 454.648841871 c 0
 267.366723805 454.648841871 275.308761093 450.593966076 282.729190296 443.173536872 c 2
 332.226664979 393.676062189 l 2
 362.636869171 363.265857997 390.767667688 259.323471405 390.767667688 163.095428276 c 0
 390.767667688 12.4318409849 298.575853991 -83.2262931072 255.497474683 -200 c 2
 243.639006415 -232.145064879 l 1
 156.502525317 -200 l 1
 190.052080553 -109.05632959 249.936496698 -34.0891617137 277.385126264 61.7679760972 c 1
 252.281631796 62.7621874151 223.769026186 65.1339651254 204.924473105 83.9785182069 c 2
 155.426998422 133.47599289 l 2
 142.791423588 146.111567723 134.502525317 166.153166304 134.502525317 198.151367188 c 0
291.772718322 163.095428276 m 0
 291.772718322 234.071624533 276.300852581 307.278895053 258.361146375 351.575070013 c 1
 243.145896637 313.649322592 233.497474683 258.880004611 233.497474683 198.151367188 c 0
 233.497474683 185.534928295 234.786078061 174.777279029 237.121641534 165.59948613 c 1
 255.312537199 160.850695111 273.095683992 161.052926435 291.76158175 160.218663729 c 1
 291.768994142 161.175217576 291.772718322 162.134131419 291.772718322 163.095428276 c 0
EndSplineSet
EndChar
StartChar: colon
Encoding: 58 58 26
GlifName: colon
Width: 142
Flags: HW
LayerCount: 2
Fore
SplineSet
116.497474683 439 m 1
 67 389.502525317 l 1
 17.5025253169 439 l 1
 67 488.497474683 l 1
 116.497474683 439 l 1
116.497474683 29 m 1
 67 -20.4974746831 l 1
 17.5025253169 29 l 1
 67 78.4974746831 l 1
 116.497474683 29 l 1
EndSplineSet
EndChar
StartChar: semicolon
Encoding: 59 59 27
GlifName: semicolon
Width: 231
Flags: HW
LayerCount: 2
Fore
SplineSet
214.997474683 -7 m 0
 214.997474683 -25.7777777778 196.219696905 -47.1635802469 185.78759814 -57.5956790123 c 2
 136.290123457 -107.093153695 l 2
 132.277777778 -111.105499374 129.5 -113.497474683 129.5 -113.497474683 c 1
 80.5507914101 -56.6532334716 l 1
 105.456347285 -35.2067821936 l 1
 111.384456049 -26.2657995433 116.002525317 -16.312200517 116.002525317 -7 c 0
 116.002525317 6 107.002525317 26 107.002525317 26 c 1
 189.326807543 63.0459269897 l 1
 205.997474683 26 l 1
 205.997474683 26 214.997474683 6 214.997474683 -7 c 0
180.497474683 388 m 1
 131 338.502525317 l 1
 81.5025253169 388 l 1
 131 437.497474683 l 1
 180.497474683 388 l 1
EndSplineSet
EndChar
StartChar: less
Encoding: 60 60 54
GlifName: less
Width: 565
Flags: HW
LayerCount: 2
Fore
SplineSet
376 684.497474683 m 1
 425.450303682 632.839568158 l 1
 192.546810937 409.889216128 l 1
 413.497474683 176 l 1
 361.186228008 126.582566971 l 1
 92.5025253169 411 l 1
 185.160283599 504.00722484 281.639732496 593.192759065 376 684.497474683 c 1
EndSplineSet
EndChar
StartChar: equal
Encoding: 61 61 57
GlifName: equal
Width: 512
Flags: HW
LayerCount: 2
Fore
SplineSet
430 421.497474683 m 1
 430 322.502525317 l 1
 82 322.502525317 l 1
 82 421.497474683 l 1
 430 421.497474683 l 1
430 521.497474683 m 1
 430 422.502525317 l 1
 82 422.502525317 l 1
 82 521.497474683 l 1
 430 521.497474683 l 1
EndSplineSet
EndChar
StartChar: greater
Encoding: 62 62 55
GlifName: greater
Width: 565
Flags: HW
LayerCount: 2
Fore
SplineSet
325.453189063 409.889216128 m 1
 92.5496963179 632.839568158 l 1
 142 684.497474683 l 1
 236.371205998 593.203697559 332.831915738 503.999424177 425.497474683 411 c 1
 156.813771992 126.582566971 l 1
 104.502525317 176 l 1
 325.453189063 409.889216128 l 1
EndSplineSet
EndChar
StartChar: question
Encoding: 63 63 94
GlifName: question
Width: 306
VWidth: 1000
Flags: HW
LayerCount: 2
Fore
SplineSet
173.497474683 350.502525317 m 1
 173.497474683 212 l 1
 74.5025253169 212 l 1
 74.5025253169 400 l 1
 124 449.497474683 l 1
 194.751182737 449.497474683 l 1
 202.839850412 470.202872671 206.521975671 489.516827388 206.521975671 507.668069886 c 0
 206.521975671 531.948750576 199.933156998 554.148866528 188.489532154 574.815923422 c 1
 171.261831294 583.939673643 153.765646097 588.501548753 136.000976566 588.501548753 c 0
 123.956559956 588.501548753 111.788725994 586.404537969 99.4974746831 582.210516406 c 1
 99.4974746831 570 l 1
 72.9465662932 570 l 1
 65.3436061121 565.613991176 57.6947506811 560.448166282 50 554.502525317 c 1
 65.4974746831 570 l 1
 0.502525316942 570 l 1
 0.502525316942 604 l 1
 50 653.497474683 l 1
 79.333984375 676.163490308 108.000976563 687.496498121 136.000976562 687.496498121 c 0
 164.000976562 687.496498121 193.253033988 678.244440695 218 653.497474683 c 2
 267.497474683 604 l 1
 290.942163249 575.290810403 305.516925035 543.780591296 305.516925035 507.668069878 c 0
 305.516925035 475.78050428 294.152994496 440.304527115 267.497474683 400 c 1
 218 350.502525317 l 1
 173.497474683 350.502525317 l 1
78.5025253169 152 m 1
 177.497474683 152 l 1
 177.497474683 108 l 1
 78.5025253169 108 l 1
 78.5025253169 152 l 1
EndSplineSet
EndChar
StartChar: at
Encoding: 64 64 95
GlifName: at
Width: 700
Flags: HW
LayerCount: 2
Fore
SplineSet
271.155119852 396.218722808 m 1
 309.895690683 385.768744067 344.780854384 345.497474683 388 345.497474683 c 1
 388 246.502525317 l 1
 364.404329169 246.502525317 343.953256781 259.041586492 322.76088908 272.035154261 c 0
 299.974408693 286.00611217 276.330916529 300.502525317 247 300.502525317 c 0
 239.968907719 300.502525317 233.546553314 299.747415574 227.680357495 298.326538181 c 1
 216.397818017 267.111604525 215.46022048 227.185367042 215.46022048 194.532671195 c 0
 215.46022048 188.280960931 215.497474683 182.099408204 215.497474683 176 c 0
 215.497474683 141.457971477 224.158074643 112.611495546 238.885577065 88.9809472762 c 1
 278.644888503 63.1883049761 329.69570167 51.4974746831 379 51.4974746831 c 0
 383.807320431 51.4974746831 388.3309219 51.9592137234 392.583077482 52.8361616881 c 0
 398.845069375 70.5493271129 401.502525317 90.8008075651 401.502525317 110 c 0
 401.502525317 133.106575225 403.772391671 145.025357758 407.884885375 149.137851461 c 2
 457.382360058 198.635326144 l 2
 458.535681639 199.788647726 459.833923065 200.328016539 461.267660962 200.328016539 c 0
 464.345556381 200.328016539 468.047899645 197.842286155 472.281460109 193.608725691 c 2
 521.778934792 144.111251008 l 2
 532.698936965 133.191248834 549.040252728 108.471326356 560.729940569 92.8533227498 c 0
 567.112765354 89.4545965598 573.557829667 87.4974746831 580 87.4974746831 c 0
 588.601151482 87.4974746831 596.336822343 88.4379499517 603.292103755 90.2206332338 c 1
 612.482356267 116.42568899 614.502525317 150.001265087 614.502525317 185 c 0
 614.502524135 242.78054638 592.87157861 297.610481096 557.46694676 342.575794176 c 1
 508.137534453 381.552453955 446.268260397 405.502525317 382 405.502525317 c 0
 342.086315349 405.502525287 305.002598039 402.498444937 271.155119852 396.218722808 c 1
614.502525317 -109 m 1
 713.497474683 -109 l 1
 713.497474683 -117 704.497474683 -119 704.497474683 -127 c 0
 704.497474683 -139.252479821 699.6118064 -149.950428826 691.72422497 -157.838010256 c 2
 642.226750287 -207.335484939 l 2
 633.376730824 -216.185504402 620.747520179 -221.497474683 607 -221.497474683 c 0
 498 -221.497474683 328 -218.497474683 328 -218.497474683 c 2
 258.943753092 -218.497474683 199.413848805 -189.108763112 153.083731687 -142.778645995 c 2
 103.586257004 -93.2811713116 l 2
 35.9986712253 -25.6935855328 -3.49747468306 77.9482539354 -3.49747468306 179 c 0
 -3.49747468306 263.847075061 20.8664574771 326.901849381 65.1198027984 371.155194702 c 2
 114.617277481 420.652669385 l 2
 172.776911568 478.812303471 265.290211503 504.497474683 382 504.497474683 c 0
 458.286801296 504.497474683 531.193471869 470.752233761 583.759690254 418.186015376 c 2
 633.257164937 368.688540693 l 2
 682.190313521 319.755392109 713.497474683 254.512954581 713.497474683 185 c 0
 713.497474683 132.763867818 708.997344839 83.6979651073 682.87502537 57.5756456382 c 2
 633.377550687 8.07817095516 l 2
 621.02419413 -4.27518560168 603.835284523 -11.4974746831 580 -11.4974746831 c 0
 565.748674829 -11.4974746831 551.483187103 -1.91971439496 537.908673996 11.6547987118 c 2
 492.872068286 56.6914044219 l 1
 488.242720138 42.1492846079 481.320252124 29.0857990332 471.610164733 19.3757116419 c 2
 422.11269005 -30.1217630412 l 2
 411.374145853 -40.8603072382 397.226201196 -47.4974746831 379 -47.4974746831 c 0
 317.11343433 -47.4974746831 252.47520417 -29.0783682933 210.869074139 12.5277617381 c 2
 161.371599456 62.0252364211 l 2
 133.925917622 89.4709182552 116.502525317 127.006303719 116.502525317 176 c 0
 116.502525317 182.103720857 116.465271114 188.277101043 116.465271114 194.532671195 c 0
 116.465271114 240.593935028 118.331006601 301.128898081 148.469380255 331.267271735 c 2
 188.61434591 371.41223739 l 1
 171.546417752 363.824539226 155.839549534 354.90631312 141.588243576 344.594391568 c 1
 111.667500477 302.781447359 95.4974746831 248.122357366 95.4974746831 179 c 0
 95.4974756082 90.4105881309 125.852509563 -0.169458974548 178.878387342 -66.7025983009 c 1
 220.764332872 -99.5881819882 271.154552031 -119.502525317 328 -119.502525317 c 0
 328.000000105 -119.502525371 497.581976989 -122.495148492 606.597436235 -122.502511761 c 1
 608.884238067 -118.06141298 614.502525317 -115.278342842 614.502525317 -109 c 1
EndSplineSet
EndChar
StartChar: A
Encoding: 65 65 28
GlifName: A_
Width: 366
Flags: HW
LayerCount: 2
Fore
SplineSet
164.471728918 351.856511712 m 1
 171.141284858 302.891549449 180.726730968 249.640163808 180.726730968 196.838106875 c 0
 180.726730968 182.554560973 179.807751307 168.514554202 177.497474683 155 c 1
 175.749804845 103.115510415 158.405045315 46.9538791861 120.865731708 9.4145655796 c 2
 71.3682570254 -40.0829091035 l 2
 66.577582991 -44.8735831379 61.4580157854 -49.360969807 56 -53.4974746831 c 1
 50 -53.4974746831 l 1
 50 37.5437832372 l 1
 21.8707823424 9.4145655796 l 1
 59.4100959488 46.9538791861 76.7548554791 103.115510415 78.5025253169 155 c 1
 80.8128019407 168.514554202 81.7317816016 182.554560973 81.7317816016 196.838106875 c 0
 81.7317816016 262.421115985 68.3473642093 325.707093806 60.9286767314 386.70585658 c 0
 57.4449362522 387.211806681 53.8431760457 387.502525317 50 387.502525317 c 0
 47.6222999182 387.502525317 41.9425084487 394.91916306 40.2309754301 396.630696079 c 1
 23.1362386093 399.479818882 6.04150178848 402.328941686 -11.0532350323 405.178064489 c 1
 -4.92582202865 441.942542511 l 1
 -6.01537744188 443.146900017 -7.0368357432 444.322888611 -7.74874608274 445.14249959 c 1
 -4.85642133802 442.358946655 l 1
 5 501.497474683 l 1
 41 495.497474683 l 1
 50 486.497474683 l 1
 51.4735140878 486.497474683 52.9115391736 486.454737991 54.3210301993 486.373519271 c 1
 54.3026655927 487.777731054 54.2935178459 489.181839801 54.2935178459 490.585773604 c 0
 54.2935178459 594.29826422 106.342658767 700.104180557 176.020846576 769.782368366 c 2
 225.518321259 819.279843049 l 2
 234.747968484 828.509490274 245.189877027 837.497474683 251 837.497474683 c 0
 251.630936546 837.497474683 252.149786943 837.253891882 252.574872176 836.828806649 c 2
 302.072346859 787.331331966 l 2
 303.512741559 785.890937265 303.876540879 782.366563075 303.876540879 779.173507762 c 0
 303.876540879 775.914142527 303.497474683 773 303.497474683 773 c 1
 315.967796396 688.470321713 334.115518817 606.925678454 345.497474683 524 c 2
 366.497474683 371 l 1
 372.497474683 230 l 1
 376.228372184 187.515304644 376.31285063 145.738459215 381.497474683 104 c 0
 388.212318433 81.1201171875 394.387123121 58.716796875 399.497474683 35 c 0
 408.133382483 9.90708550419 411.310445352 -3.14181068988 411.310445352 -7.81441466172 c 0
 411.310445352 -8.81440456137 411.164933259 -9.43075338591 410.896274854 -9.69941179075 c 2
 361.398800171 -59.1968864738 l 2
 361.292844367 -59.3028422776 361.167734097 -59.3547174988 361.024841371 -59.3547174988 c 0
 360.717299045 -59.3547174988 360.327384397 -59.1144198575 359.868776019 -58.6558114793 c 2
 310.371301336 -9.15833679624 l 2
 305.32413869 -4.11117415028 291.956891619 27.3774664825 288.502525317 56 c 1
 271.594216879 93.4708286777 272.291031627 135.02884714 261.502525317 176 c 1
 241.439873932 222.93337012 233.619326968 275.080598339 207.502525317 317 c 0
 204.953649687 322.299735594 202.122977969 327.35988361 199.03866349 332.194140117 c 0
 188.134354812 339.59951267 176.495204307 346.096796347 164.471728918 351.856511712 c 1
153.288467212 490.585773604 m 0
 153.288467212 486.724673682 153.357657152 482.862250555 153.497474683 479 c 0
 153.497474683 471.147285219 153.666512001 463.372117838 153.976981271 455.656807011 c 1
 181.056915007 443.80098453 206.745251394 428.562540085 227.223802321 408.083989157 c 2
 267.644513488 367.663277991 l 1
 261.162353549 420.340688112 253.448382875 471.786287498 246.502525317 524 c 0
 238.575376965 581.754937993 225.897385885 638.115428711 216.518626369 696.096953266 c 1
 177.502595156 634.584814442 153.288467212 562.816832296 153.288467212 490.585773604 c 0
EndSplineSet
EndChar
StartChar: B
Encoding: 66 66 29
GlifName: B_
Width: 403
Flags: HW
LayerCount: 2
Fore
SplineSet
135.4834698 823.315096992 m 0
 155.408977915 823.315096992 182.180859819 813.497474683 200 813.497474683 c 0
 201.800980241 813.806331079 203.563869717 813.949261542 205.294865892 813.949261542 c 0
 225.274553999 813.949261542 241.385147745 795.86297061 260 792.497474683 c 0
 291.522929003 786.798314537 318.503865362 771.778322502 339.518145063 750.764042801 c 2
 389.015619746 701.266568118 l 2
 420.41875183 669.863436034 438.497474683 625.074190673 438.497474683 578 c 1
 431.46457424 552.508157692 416.416698189 528.939900988 396.561645977 509.084848776 c 2
 347.064171294 459.587374093 l 2
 327.863117995 440.386320794 304.166356893 424.657884652 278.875031863 414.020602599 c 1
 299.482713368 399.38946014 320.314158565 382.912475519 338.668463044 364.558171039 c 2
 388.165937727 315.060696356 l 2
 422.05386847 281.172765613 447.497474683 240.885239551 447.497474683 194 c 0
 447.497474683 141.128846495 432.431648019 100.783857938 405.227586221 73.5797961402 c 2
 355.730111538 24.0823214571 l 2
 328.222113471 -3.42567660954 288.303137257 -17.4974746831 239 -17.4974746831 c 0
 204.448043264 -17.4974746831 171.881684755 7.55792617587 143 18.5025253169 c 1
 100.191927527 61.3105977901 l 1
 106.493080737 42.4943171105 113.200066996 23.7465437658 120.497474683 5 c 1
 34.5291854839 -28.4646035168 l 1
 21.5025253169 5 l 2
 -0.0668106205583 60.41015625 -16.4779434331 115.831054688 -32.4974746831 173 c 1
 -44.4974746831 293 l 1
 -35.4974746831 500 l 1
 -17.4974746831 611 l 1
 -12.026125047 632.885398544 -6.822670297 654.929429871 -1.02923075103 676.685911416 c 0
 0.821880435551 683.637510039 3.50252531694 693.704310672 3.50252531694 698 c 0
 7.69662871193 716.286834608 17.8882961898 735.32357502 32.3119021173 749.747180947 c 2
 81.8093768003 799.24465563 l 2
 96.1129267527 813.548205582 114.578258632 823.315096992 135.4834698 823.315096992 c 0
200 714.502525317 m 0
 182.287782504 714.502525317 155.288314472 724.320147625 135.4834698 724.320147625 c 0
 126.485954931 724.320147625 117.940404608 722.510923428 109.984100527 719.309464483 c 1
 106.654555358 712.30222155 104.124645032 705.0946737 102.497474683 698 c 0
 102.497474683 693.704310672 99.8168298017 683.637510039 97.9657186151 676.685911416 c 0
 92.1722790691 654.929429871 86.9688243191 632.885398544 81.4974746831 611 c 1
 63.4974746831 500 l 1
 54.4974746831 293 l 1
 61.0819121317 227.155625514 l 1
 156.31069176 231.296007237 l 1
 159.497474683 158 l 1
 181.003112813 99.3482596457 l 1
 199.553703509 90.0100544486 218.767336467 81.4974746831 239 81.4974746831 c 0
 273.418130637 81.4974746831 303.263053836 88.3551203224 327.505037296 101.854179244 c 1
 341.172164582 126.335682588 348.502525317 157.120504107 348.502525317 194 c 0
 348.502524536 229.967459124 333.528934886 262.052157703 311.25627984 290.343537552 c 1
 280.842708037 315.448699839 247.679743083 336.286839551 221.133829476 352.967117002 c 0
 200.074089151 366.200125927 183.178966857 376.816273165 175.125176531 384.870063491 c 2
 125.627701848 434.367538174 l 2
 122.31900818 437.676231842 120.502525317 440.552459374 120.502525317 443 c 0
 120.502525317 443.604626781 120.618865797 445.018183464 120.805725644 446.89862259 c 1
 110.521188512 457.183159722 l 2
 109.653686345 458.050661889 109.280408834 458.925402661 109.280408834 459.788501176 c 0
 109.280408834 460.97092247 109.980985342 462.131493286 111.071159235 463.221667179 c 2
 160.568633919 512.719141862 l 2
 164.390366713 516.540874657 173 519.497474683 173 519.497474683 c 1
 194 498.497474683 l 1
 198.577962841 498.058164664 203.207519591 497.843298273 207.871503544 497.843298273 c 0
 245.896492719 497.843298273 286.209849834 512.125415435 319.508573453 535.499541287 c 1
 328.498120387 548.764309499 335.378387534 563.051420694 339.502525317 578 c 1
 339.502525317 612.504562831 329.789487459 645.781507953 312.235683251 673.459142175 c 1
 296.724463006 683.098460692 279.205177928 690.030342112 260 693.502525317 c 0
 241.369247246 696.870895995 225.286021975 714.954312176 205.294865892 714.954312176 c 0
 203.563869717 714.954312176 201.800980241 714.811381713 200 714.502525317 c 0
EndSplineSet
EndChar
StartChar: C
Encoding: 67 67 30
GlifName: C_
Width: 346
Flags: HW
LayerCount: 2
Fore
SplineSet
115 67.4974746831 m 2
 129 67.4974746831 l 1
 158.515553108 54.8966216407 190.489794633 47.414563412 224.748365342 47.414563412 c 0
 247.276698555 47.414563412 263.676441086 51.4644281661 277.058297945 58.8153936741 c 1
 289.502525317 92 l 1
 291.612397625 155.296169235 l 1
 390.497474683 152 l 1
 388.497474683 92 l 1
 370.497474683 44 l 1
 321 -5.49747468306 l 1
 292.538220597 -29.5086472397 274.484990137 -51.5803859541 224.748365342 -51.5803859541 c 0
 190.489794633 -51.5803859541 158.515553108 -44.0983277254 129 -31.4974746831 c 1
 115 -31.4974746831 l 2
 105.116867754 -31.4974746831 96.2778336635 -26.5668669923 88.3318626917 -18.6208960205 c 2
 38.8343880087 30.8765786625 l 2
 12.9531081821 56.757858489 1.69233987862 106.57197205 -16.4974746831 140 c 0
 -25.3044545682 156.184636668 -29.9648019092 172.271290583 -32.4974746831 190 c 2
 -40.4974746831 246 l 1
 -44.4974746831 388 l 1
 -30.4974746831 522 l 1
 16.7855168992 583.302213257 19.5169537946 689.501267227 74.3520050015 744.336318433 c 2
 123.849479685 793.833793116 l 2
 145.637413695 815.621727126 175.452359535 829.497474683 219 829.497474683 c 0
 239.077186096 829.497474683 262.701497851 808.862602311 281 803.497474683 c 0
 288.336589073 801.346267106 294.555866327 797.359433704 299.78839063 792.1269094 c 2
 349.285865313 742.629434717 l 2
 363.098957307 728.816342723 370.035544772 706.322254008 372.497474683 686 c 1
 274.934361292 674.18076248 l 1
 273.387311501 686.951044308 272.1735548 697.858014568 268.622158206 709.524359683 c 1
 254.391730784 716.537273593 234.752766632 730.502525317 219 730.502525317 c 0
 191.179770301 730.502525266 168.964183213 724.839499231 150.865605574 715.068316593 c 1
 116.546125489 658.032524603 107.886925243 573.068268261 68.4974746831 522 c 1
 54.4974746831 388 l 1
 58.4974746831 246 l 1
 66.4974746831 190 l 1
 70.4690539779 172.527253088 73.6865442976 156.191896524 82.4974746831 140 c 0
 93.4151750941 119.936178389 102.467846553 90.2111337427 113.636559846 67.5288723291 c 0
 114.08882025 67.508003562 114.543295335 67.4974746831 115 67.4974746831 c 2
EndSplineSet
EndChar
StartChar: D
Encoding: 68 68 31
GlifName: D_
Width: 363
Flags: HW
LayerCount: 2
Fore
SplineSet
46.5417011893 122.587592048 m 1
 46.4821699531 211.369972607 21.4719635831 314.416630572 21.4719635831 402.757756247 c 0
 21.4719635831 404.51151998 21.4820166196 406.259012612 21.5025253169 408 c 2
 21.5025253169 664.434630438 l 1
 -44.4974746831 678 l 1
 -40.0244764315 699.762612751 -31.004237647 718.044176445 -17.1110019769 731.937412115 c 2
 32.3864727062 781.434886798 l 2
 51.6251606405 800.673574732 80.2080077665 811.497474683 119 811.497474683 c 0
 167.357098492 811.497474683 214.41988533 796.656098749 245.812736041 765.263248037 c 2
 295.310210724 715.765773354 l 2
 308.566156051 702.509828027 319.028096725 686.302696608 325.613685621 667.015625 c 2
 407.749427808 426.4765625 l 1
 395.054115308 285.58984375 l 1
 368.638854931 224.551105613 350.670709057 148.085568652 307.455694268 104.870553864 c 2
 257.958219585 55.3730791805 l 2
 239.023444489 36.4383040849 215.52148003 24.5025253169 185 24.5025253169 c 0
 168.640055451 24.5025253169 149.485362425 26.2571124983 131.995578343 27.6672633023 c 1
 128.379031833 17.2849432879 123.923549211 7.37033443358 118.497474683 -2 c 1
 69 -51.4974746831 l 1
 53.1996543715 -45.9766981199 30.3637349261 -44.0011551999 20.1865672507 -33.8239875246 c 2
 -29.3109074323 15.6734871585 l 2
 -32.5859154504 18.9484951766 -34.5510413355 23.0732393438 -34.5510413355 28.4396051185 c 0
 -34.5510413355 43.0723906504 -28.0915416774 54.7288025614 -20.96097095 61.8593732888 c 2
 28.5365037331 111.356847972 l 2
 33.4786045453 116.298948784 39.5715828508 119.945059828 46.5417011893 122.587592048 c 1
119 712.502525317 m 0
 96.6674344555 712.502525317 77.7184956083 708.915149836 61.9881398784 702.200069322 c 1
 58.4960733439 694.102175119 56.0249326663 685.431587207 54.0864028782 676 c 1
 120.497474683 676 l 1
 120.497474683 408 l 2
 120.476965986 406.259012612 120.466912949 404.51151998 120.466912949 402.757756247 c 0
 120.466912949 315.211386468 144.934944666 213.435387174 145.525623874 125.557920508 c 1
 159.196109086 124.455579686 172.608199515 123.497474683 185 123.497474683 c 0
 202.825722772 123.497474683 218.257080991 127.568781801 231.782617899 134.727909107 c 1
 259.39082117 178.648339918 274.696257075 236.225764746 296.059165942 285.58984375 c 1
 308.754478442 426.4765625 l 1
 226.618736255 667.015625 l 2
 224.060951651 674.506553641 220.918428202 681.532880262 217.254578429 688.102148391 c 0
 188.9231191 704.590929362 154.306543428 712.502525317 119 712.502525317 c 0
EndSplineSet
EndChar
StartChar: E
Encoding: 69 69 32
GlifName: E_
Width: 332
Flags: HW
LayerCount: 2
Fore
SplineSet
-40.891493857 577.978640704 m 0
 -40.891493857 583.63103544 -41.6761472776 589.080058342 -41.6761472776 594.526230791 c 0
 -41.6761472776 636.785620202 -23.5404984919 679.523969378 2.32479094194 714 c 0
 6.90217261624 722.537928152 12.7506553734 730.281483479 19.5843780584 737.115206164 c 2
 69.0818527415 786.612680847 l 2
 86.9587901868 804.489618292 111.578112554 816.140212579 137.822265625 819.497474683 c 0
 168.585990841 819.497474683 199.082870121 813.970344101 229.822265625 813.497474683 c 0
 251.410302364 813.16585676 271.37230595 791.344010289 291.822265625 789.497474683 c 2
 300.688755369 788.696872175 l 1
 291.822265625 690.502525317 l 1
 271.376897213 692.348646353 251.406536431 714.170965243 229.822265625 714.502525317 c 0
 199.076395159 714.97549434 168.59248971 720.502525317 137.822265625 720.502525317 c 0
 123.361668652 718.652665178 109.394376655 714.284917169 96.7764874509 707.745060764 c 1
 73.3556812233 674.427700741 57.3188020885 634.26519998 57.3188020885 594.526230791 c 0
 57.3188020885 589.078772925 58.1034555091 583.632255865 58.1034555091 577.978640704 c 0
 58.1034555091 559.178118023 55.5290711966 539.296532121 55.5290711966 520.45004475 c 0
 55.5290711966 506.692327637 56.8891805124 493.438397139 61.5866150923 481.500430739 c 0
 61.6651565944 481.500430739 61.7437071425 481.497474683 61.822265625 481.497474683 c 0
 63.1170031172 481.702612137 64.4035338345 481.794452902 65.684866466 481.794452902 c 0
 75.3070650582 481.794452902 84.6884655283 476.875487133 93.822265625 475.497474683 c 0
 110.328512293 473.007765444 121.179013234 461.497474683 139.822265625 461.497474683 c 2
 167.822265625 461.497474683 l 1
 167.822265625 362.502525317 l 1
 147.170673161 357.311247992 121.762344619 344.639967259 98.9079912039 327.588250896 c 1
 79.0411252529 307.721384945 l 1
 62.0139095767 284.958152756 54.6072596662 258.358089256 54.6072596662 228.501144141 c 0
 54.6072596662 223.105968427 54.8491075354 217.604446403 55.3197403081 212 c 0
 54.9487169143 202.267332574 54.4975940858 192.282308451 54.4975940858 182.513713419 c 0
 54.4975940858 159.107098744 57.0608148999 136.263250174 69.3197403081 116 c 0
 72.6430842756 105.035594457 77.2744021182 94.8287259725 82.9887288167 85.4076544658 c 1
 112.897052147 66.4202888792 148.982174718 56.139456573 183.822265625 55.4974746831 c 1
 192.902382576 52.7847144368 201.831146282 51.5236889315 210.531051097 51.5236889315 c 0
 229.021374444 51.5236889315 246.47791857 57.2198712348 262.156597098 66.7813480026 c 1
 272.324790942 80 l 1
 280.924454233 97.1993265821 289.524117524 114.398653164 298.123780815 131.597979746 c 1
 377.319740308 92 l 1
 371.319740308 80 l 1
 351.319740308 54 l 2
 346.822981854 48.0498857181 341.949313959 42.417615026 336.742451823 37.2107528901 c 2
 287.24497714 -12.286721793 l 2
 266.167108593 -33.3645903405 239.629163735 -47.4712604346 210.531051097 -47.4712604346 c 0
 201.831146282 -47.4712604346 192.902382576 -46.2102349293 183.822265625 -43.4974746831 c 1
 137.085486486 -42.6362781414 88.1082359848 -24.429684736 54.8068651829 8.87168606591 c 2
 5.3093904998 58.369160749 l 2
 -10.5559162113 74.2344674601 -22.8632335645 93.5258694442 -29.6752090581 116 c 1
 -41.9341344663 136.263250174 -44.4973552803 159.107098744 -44.4973552803 182.513713419 c 0
 -44.4973552803 192.283297801 -44.0462690414 202.266372757 -43.6752090581 212 c 0
 -44.1458418308 217.604446403 -44.3876896999 223.105968427 -44.3876896999 228.501144141 c 0
 -44.3876896999 264.586267463 -33.5686811121 295.914013214 -8.022168738 321.460525588 c 2
 11.6464305656 341.129124892 l 2
 15.7565662622 346.308119217 20.2857048256 351.341362193 25.128555803 356.18421317 c 2
 54.1682737768 385.223931144 l 1
 51.8418779428 386.760756218 49.5723552764 388.804569125 47.4056804546 390.971243947 c 2
 35.996080251 402.380844151 l 2
 32.3003598777 405.01293363 28.9658748372 407.67124645 26.0513628971 410.58575839 c 2
 -23.446111786 460.083233073 l 2
 -39.7585598512 476.395681138 -43.4658785735 497.736263733 -43.4658785735 520.450042988 c 0
 -43.4658785735 539.297732872 -40.891493857 559.17691845 -40.891493857 577.978640704 c 0
EndSplineSet
EndChar
StartChar: F
Encoding: 70 70 33
GlifName: F_
Width: 442
Flags: HW
LayerCount: 2
Fore
SplineSet
41 473.497474683 m 2
 74.8204890316 473.497474683 111.196268912 459.795287096 143 453.497474683 c 1
 233.594476873 449.283778084 l 1
 229 350.502525317 l 1
 143 354.502525317 l 1
 111.171395766 360.805263139 74.836368587 374.502525317 41 374.502525317 c 2
 33 374.502525317 l 1
 33 473.497474683 l 1
 41 473.497474683 l 2
5 61.4974746831 m 1
 15.7090393063 55.3273228176 30.5698160562 55.2995312284 45.4277214108 55.2995312284 c 0
 50.4242894843 55.2995312284 55.0737327292 55.6756597775 59.3993837268 56.3992804603 c 1
 64.7563213123 75.4943809479 66.174883504 98.2914139971 66.174883504 121.697776328 c 0
 66.174883504 147.011123527 64.3765574381 173.943007785 64.3765574381 198.662440984 c 0
 64.3765574381 213.637120023 65.107730017 227.131109555 67.5025253169 238 c 1
 66.6422631449 253.9380603 66.2823881209 269.837993706 66.2823881209 285.710730513 c 0
 66.2823881209 367.032138162 75.7248994318 447.624227295 75.7248994318 528.955382933 c 0
 75.7248994318 535.964333822 75.6548012066 542.978892962 75.5025253169 550 c 0
 72.3853590363 582.006996949 74.0604913885 617.755711725 72.2292275874 651.193556768 c 1
 33.8576088507 689.565175505 l 2
 16.5398079261 706.88297643 4.34004989207 731.162475426 -12.4974746831 748 c 1
 -10.4974746831 804 l 1
 39 853.497474683 l 1
 72.6918111901 821.524302751 105.855880904 789.023389343 138.497474683 756 c 0
 146.259491005 746.769076545 152.211239881 736.569707821 156.782232442 725.661551455 c 1
 217.942642691 747.426859206 289.180228843 819.979325338 355 831.497474683 c 0
 359.979049479 832.368819765 364.991995892 832.816940143 369.91002635 832.816940143 c 0
 385.334074179 832.816940143 399.824537759 828.40927095 409.40784807 818.825960639 c 2
 458.905322753 769.328485956 l 2
 465.858844646 762.374964062 470.228868278 752.696591507 470.497474683 740 c 1
 480.211818794 726.939249316 478.298464514 705.853720103 486.497474683 692 c 1
 413.181980186 648.609886701 l 1
 387.502525317 692 l 2
 380.790176285 703.341735503 380.987529279 721.061739711 375.215275257 733.644117241 c 1
 373.463425299 733.763094998 371.692963154 733.821990777 369.91002635 733.821990777 c 0
 364.991995892 733.821990777 359.979049479 733.373870399 355 732.502525317 c 0
 293.912543918 721.812508777 227.18048163 658.76142551 171.930849002 632.940941388 c 1
 172.837195326 597.230070046 174.719848798 563.95976445 174.719848798 528.955382933 c 0
 174.719848798 447.623999448 165.277337487 367.032365981 165.277337487 285.710730513 c 0
 165.277337487 269.837993706 165.637212511 253.9380603 166.497474683 238 c 1
 164.102679383 227.131109555 163.371506804 213.637120023 163.371506804 198.662440984 c 0
 163.371506804 173.961677979 165.16983287 146.994386416 165.16983287 121.697776328 c 0
 165.16983287 81.6128265978 161.009354965 43.314968774 140.031987092 22.3376009012 c 2
 90.5345124092 -27.1598737819 l 2
 80.1406464918 -37.5537396992 65.6182271007 -43.6954181377 45.4277214108 -43.6954181377 c 0
 30.6021397448 -43.6954181377 15.7086013181 -43.6673741959 5 -37.4974746831 c 2
 -37.8219034829 -12.8250796997 l 1
 5 61.4974746831 l 1
EndSplineSet
EndChar
StartChar: G
Encoding: 71 71 34
GlifName: G_
Width: 423
Flags: HW
LayerCount: 2
Fore
SplineSet
223.502525317 135 m 0
 223.502525317 171.864116296 181.502525317 197.701124304 181.502525317 233 c 0
 181.502525317 239.656925267 179.502525317 246.580608102 179.502525317 253 c 0
 179.502525317 262.038688828 183.128171577 269.3854094 188.866952327 275.124190151 c 2
 238.36442701 324.621664834 l 2
 249.133383427 335.390621251 267.343405072 340.497474683 283 340.497474683 c 0
 304.434408251 340.497474683 325.525852504 343.035181295 345.76014275 343.035181295 c 0
 362.204531428 343.035181295 375.438160262 340.890852399 383.669088253 332.659924408 c 2
 433.166562936 283.162449725 l 2
 439.156913778 277.172098883 442.497474683 267.957847684 442.497474683 254 c 0
 442.497474683 201.553379533 403.257326173 157.372368863 398.903452594 107.245000544 c 1
 408.450186452 106.414849774 417.996920309 105.584699004 427.543654167 104.754548234 c 1
 419 6.50252531694 l 1
 373 10.5025253169 l 1
 323.502525317 60 l 1
 319.72877205 65.4509769407 314.958979236 69.9578558623 310.556752383 74.7564281021 c 1
 304.953304448 62.1949729571 297.050070376 51.4362841922 287.519733374 41.9059471906 c 2
 238.022258691 -7.5915274925 l 2
 213.046032757 -32.567753427 176.637526739 -45.5364024905 143 -46.4974746831 c 1
 129.068808848 -40.8379282775 116.642007163 -32.1814485229 105.548125603 -21.0875669623 c 2
 56.0506509197 28.4099077208 l 2
 -25.2675710482 109.728129689 -34.9693374491 322.00549543 -40.5850811325 444.879539857 c 0
 -41.8795218337 473.202264894 -44.5120060023 495.378529577 -44.5120060023 522.384784934 c 0
 -44.5120060023 597.876620339 -21.1159131477 672.449793251 27.0013199687 720.567026367 c 2
 76.4987946517 770.06450105 l 2
 109.398788005 802.964494404 153.856146294 823.496087768 210.294431439 823.496087768 c 0
 224.441292837 823.496087768 239.340925435 822.206071365 255 819.497474683 c 1
 300.993951597 817.497737657 339.481539818 782.915587733 371 757.497474683 c 2
 419.373950668 718.486224145 l 1
 371 658.502525317 l 1
 339.473357422 683.927237073 301.001463839 718.502461672 255 720.502525317 c 1
 239.34092615 723.211121764 224.441294165 724.501138061 210.294433292 724.501138061 c 0
 167.828306603 724.501138061 132.145277757 712.877011388 103.064911009 693.106253608 c 1
 70.4284184525 646.404302436 54.4829433596 584.707598338 54.4829433596 522.384785056 c 0
 54.4829433596 495.408328171 57.1165869214 473.176897142 58.4098682336 444.879539857 c 0
 63.4413239912 334.789879544 71.7527773768 152.932951923 131.913173254 57.7968927869 c 0
 135.498784054 55.8142544992 139.193226764 54.0439763103 143 52.4974746831 c 0
 165.306668386 53.1348080655 188.831918293 59.0526613731 209.433655414 70.2510346057 c 1
 219.337586198 90.0742310164 223.502525317 113.231272028 223.502525317 135 c 0
283 241.502525317 m 0
 281.937387863 241.502525317 280.863013803 241.479001472 279.780002412 241.431780194 c 1
 280.169960796 238.665365027 280.497474683 235.832682514 280.497474683 233 c 0
 280.497474683 207.260728478 305.437945631 183.257055883 315.594094461 162.274341934 c 1
 326.255282557 187.649580277 340.365953505 215.52025171 343.030413058 244.021593521 c 1
 323.490038059 243.762074459 303.740049637 241.502525317 283 241.502525317 c 0
EndSplineSet
EndChar
StartChar: H
Encoding: 72 72 35
GlifName: H_
Width: 682
Flags: HW
LayerCount: 2
Fore
SplineSet
218.365674976 305.278712478 m 1
 214.798789543 379.579996224 209.787537303 455.963628729 209.787537303 531.569269905 c 0
 209.787537303 555.671847919 210.291233311 579.810328875 211.502525317 604 c 0
 210.296220806 614.709571881 209.594659987 628.391453173 209.594659987 643.322360657 c 0
 209.594659987 656.557074077 210.145876223 670.773147198 211.385380428 684.770413051 c 1
 156.959211963 697.76258327 115.206714113 737.447969375 54.4974746831 742.066497157 c 1
 54.4974746831 716 l 1
 64.4974746831 666 l 1
 -30.6899766305 646.962509737 l 1
 -44.4974746831 716 l 1
 -44.4974746831 782 l 1
 5 831.497474683 l 1
 17.5068380326 834.877779064 27.3890723018 841.497474683 43 841.497474683 c 0
 122.251860384 841.497474683 168.010562178 779.497474683 247 779.497474683 c 0
 247.448542826 779.497474683 247.895860418 779.501965092 248.341851227 779.510949031 c 2
 284.961671214 816.130769018 l 2
 287.430123984 818.599221788 290.105446968 820.424196917 293 821.497474683 c 1
 342.497474683 772 l 1
 342.497474683 759.384254969 338.2650476 749.646114033 331.356657316 742.737723749 c 2
 317.139813418 728.520879851 l 1
 311.017351659 703.194697993 308.589609353 671.097409687 308.589609353 643.322360657 c 0
 308.589609353 628.391453173 309.291170172 614.709571881 310.497474683 604 c 1
 309.286182677 579.810328875 308.782486669 555.671847919 308.782486669 531.569269905 c 0
 308.782486669 482.829442617 310.842212838 434.236430526 313.275583271 385.663821082 c 1
 346.559340069 412.256172881 380.232303606 438.897339376 411.298651039 467.12877604 c 0
 423.094679977 480.358159825 434.103971279 494.061696816 444.091608122 508.370659155 c 1
 440.866560817 539.810913588 436.774079137 572.710966835 436.774079137 605.020980504 c 0
 436.774079137 612.653338808 436.99641934 620.309617398 437.502525317 628 c 0
 437.502525317 645.708458177 450.374911401 751.314756759 476.979006141 777.918851498 c 2
 526.476480824 827.416326182 l 2
 530.357822888 831.297668245 534.531439801 833.497474683 539 833.497474683 c 0
 539.815429728 833.497474683 540.514256341 833.165560937 541.113265743 832.566551534 c 2
 590.610740427 783.069076851 l 2
 595.810542241 777.869275037 592.740178729 759.97288697 594.497474683 750 c 0
 598.472238987 727.435167971 600.339646912 706.082943722 600.339646912 685.809243871 c 0
 600.339646912 615.578500174 577.930377029 558.29026572 543.086557492 508.370659172 c 0
 543.577056765 503.588893289 544.05243674 498.799514826 544.497474683 494 c 0
 558.375804274 450.032781002 559.175364116 391.098004025 559.999520993 330.350203565 c 0
 561.094197649 249.66265556 562.232268781 165.776541295 594.118852977 109.516880649 c 0
 598.205805568 107.318501487 602.496085412 105.308583589 607 103.497474683 c 0
 615.934570312 99.9047012456 671 71.4974746831 671 71.4974746831 c 1
 682.899494937 67.5309763709 694.798989873 63.5644780587 706.69848481 59.5979797464 c 1
 677 -29.4974746831 l 1
 671 -27.4974746831 l 1
 646.13263644 -14.6688892935 586.812260719 10.6799039834 566.308087806 31.1840768958 c 2
 516.810613123 80.6815515789 l 2
 447.767601771 149.724562932 466.630440037 291.379868488 458.461307357 413.99715818 c 1
 437.808847026 393.344697849 l 2
 401.322876686 356.858727509 359.516769271 323.592269309 318.051841041 290.483536032 c 1
 319.810460203 251.673214123 321.350507638 217.618981326 321.350507638 177.031145417 c 0
 321.350507638 124.778004748 316.362425198 54.0873807083 283.900866469 21.6258219798 c 2
 234.403391786 -27.8716527033 l 2
 223.390425775 -38.8846187147 209.215302438 -45.4974746831 191 -45.4974746831 c 0
 168.634637369 -44.8848657511 142.080803449 -33.9269632512 124.606822254 -16.452982056 c 2
 75.1093475708 33.0444926271 l 2
 63.7195466996 44.4342934983 56.1874359502 58.5925327109 56.1874359502 74.4587789623 c 0
 56.1874359502 78.214822237 56.609549692 82.0665854587 57.5025253169 86 c 0
 73.2922798941 146.906342652 109.529732371 196.844854851 154.850718079 242.165840559 c 2
 204.348192762 291.663315242 l 2
 208.9316976 296.246820081 213.608110095 300.783096208 218.365674976 305.278712478 c 1
155.182385316 74.4587789623 m 0
 155.182385316 69.9181789963 155.799256949 65.5174629387 156.946879817 61.2814849841 c 1
 168.271840623 56.5363843579 180.130558996 53.7951991937 191 53.4974746831 c 0
 196.183737712 53.4974746832 201.040274981 54.0330275255 205.589847832 55.0531354095 c 0
 219.691858742 90.816101857 222.355558266 138.846549058 222.355558266 177.031145417 c 0
 222.355558266 188.17554596 222.128664664 198.481278123 221.893016521 207.39859891 c 1
 191.76543173 171.327963129 168.360452675 131.759457431 156.497474683 86 c 0
 155.604499058 82.0665854587 155.182385316 78.214822237 155.182385316 74.4587789623 c 0
EndSplineSet
EndChar
StartChar: I
Encoding: 73 73 36
GlifName: I_
Width: 276
Flags: HW
LayerCount: 2
Fore
SplineSet
227.507764808 817.123637147 m 0
 227.507764808 589.909343395 275.522865308 373.006485659 275.522865308 144 c 0
 275.522865308 95.8215893403 254.469266635 46.3799627603 226.466071453 18.3767675781 c 2
 176.96859677 -31.120707105 l 2
 162.588996365 -45.5003075101 146.376920992 -54.2270057897 130.242048263 -54.2270057897 c 0
 118.060041071 -54.2270057897 105.922042605 -49.2524240005 94.649954752 -37.9803361479 c 2
 45.1524800689 11.5171385351 l 2
 37.0638525795 19.6057660245 29.4211009946 30.9371141441 22.5279159419 46 c 1
 10.5279159419 96 l 1
 104.131309821 118.464814531 l 1
 121.522865308 46 l 2
 122.195943031 44.5292005318 128.607792377 44.7679435764 130.242048262 44.7679435764 c 0
 137.09952621 44.7679435764 143.970949524 46.344275649 150.709710537 49.2609616998 c 1
 166.33907364 76.3567408387 176.527915942 110.484035688 176.527915942 144 c 0
 176.527915942 287.283613096 157.944682014 426.962863362 144.115776191 562.502525317 c 1
 80.025390625 562.502525317 l 1
 78.1578592015 564.116441362 76.3865431301 565.763315152 74.708966699 567.440891583 c 2
 25.211492016 616.938366266 l 2
 7.81937857363 634.330479708 0.502690028838 655.022607469 0.502690028838 676.501841188 c 0
 0.502690028838 712.997377703 21.6257341516 751.765263761 50.3394760574 780.479005666 c 2
 99.8369507404 829.976480349 l 2
 123.293287544 853.432817153 151.815126377 870.179719715 178.025390625 873.497474683 c 1
 227.522865308 824 l 1
 227.512764298 821.707070707 227.507764808 819.414957657 227.507764808 817.123637147 c 0
99.4976393983 676.501841122 m 0
 99.4976393983 671.445848471 99.9030451197 666.433468068 100.749837553 661.497474683 c 1
 135.089126646 661.497474683 l 1
 132.683868835 692.694461479 130.785029829 723.939261349 129.658325651 755.293606297 c 1
 128.633569067 754.628370364 127.612061042 753.94891784 126.594236544 753.255646178 c 0
 110.143864355 729.466161844 99.4976393983 702.411358098 99.4976393983 676.501841122 c 0
EndSplineSet
EndChar
StartChar: J
Encoding: 74 74 37
GlifName: J_
Width: 366
Flags: HW
LayerCount: 2
Fore
SplineSet
162.922014863 450.893976505 m 1
 154.685691988 443.233227553 145.675195827 431.829419992 133.408548595 431.829419992 c 0
 131.687515593 431.829419992 129.888898549 432.04161862 128 432.502525317 c 0
 112.877017715 432.502525317 99.6555845609 439.724705038 88.6035546308 450.776734968 c 2
 39.1060799478 500.274209651 l 2
 14.371247179 525.00904242 0.502525316942 568.926836046 0.502525316942 594 c 0
 0.502525316942 617.280230321 14.5370823263 636.404494317 32.2949446143 654.162356605 c 2
 81.7924192974 703.659831288 l 2
 85.1545730497 707.021983998 88.6501957603 710.335155647 92.2093051607 713.61827869 c 0
 99.7213568898 724.277497775 104.502525317 735.553179666 104.502525317 748 c 0
 104.502525317 757.588211148 108.502525317 763.10674388 108.502525317 772 c 0
 108.353570188 778.078478161 108.284267876 782.613924565 108.284267876 785.847517532 c 0
 108.284267876 790.197022441 108.409656077 792.191092799 108.635242667 792.416679389 c 2
 108.635242667 792.416679389 158.13271735 841.914154072 158.232108154 841.907713789 c 2
 207.729582837 792.410239106 l 2
 208.311145998 791.828675945 209.404331335 782.321335875 210.702635133 771.030097962 c 0
 212.185557448 758.133248472 213.93608148 742.909089565 215.497474683 736 c 0
 215.174362823 729.670502537 215.021090397 723.379391856 215.021090397 717.122965704 c 0
 215.021090397 626.073943442 247.379860366 540.681374818 260.919051633 457.249578947 c 1
 266.080041173 472.732547568 271.241030713 488.215516189 276.402020254 503.69848481 c 1
 365.497474683 474 l 1
 341.497474683 402 l 1
 330.449006585 386.307273554 288.316064923 333.462358894 267.819431827 307.322135778 c 1
 268.387868709 233.282374025 269.497474683 158.361985941 269.497474683 84 c 0
 269.497474683 79.4919215504 267.497474683 74.6866756497 267.497474683 70 c 0
 265.829096289 55.995184618 256.964177216 41.1143875992 244.705238121 28.8554485037 c 2
 195.207763438 -20.6420261794 l 2
 179.675593972 -36.1741956452 158.694975809 -47.4974746831 140 -47.4974746831 c 0
 126.916761148 -47.4974746831 110.50180022 -36.9003300425 96.4583065081 -22.8568363308 c 2
 46.960831825 26.6406383523 l 2
 30.0026839745 43.5987862028 16.5025253169 65.5822777572 16.5025253169 80 c 0
 16.5025253169 109.946364319 102.041814343 222.151374478 168.824482461 307.322135778 c 1
 168.63174027 332.427097028 168.502525317 357.350744762 168.502525317 382 c 0
 168.502525041 405.374285622 166.352155662 428.274093207 162.922014863 450.893976505 c 1
170.502525317 84 m 0
 170.502525317 115.191361621 170.307171329 146.52151233 170.038572562 177.817424332 c 1
 138.537764662 133.240519906 115.497474683 95.5419410021 115.497474683 80 c 0
 115.497474683 73.2227580064 118.480462981 64.7737874138 123.403410149 55.9608635439 c 0
 129.218900885 53.1293039291 134.865972445 51.4974746831 140 51.4974746831 c 0
 148.186137446 51.4974746831 156.810519442 53.6685778412 165.22380674 57.4134739203 c 0
 166.882404299 61.6252327456 168.008266204 65.8510565396 168.502525317 70 c 0
 168.502525317 74.6866756497 170.502525317 79.4919215504 170.502525317 84 c 0
122.504514542 642.339586386 m 1
 119.789232738 639.696264086 116.985136367 637.068533102 114.129349118 634.446350473 c 0
 105.28494057 622.185570394 99.4974746831 608.949688387 99.4974746831 594 c 0
 99.4974746831 578.081847667 105.087367368 554.568225571 115.498819514 533.189951868 c 0
 119.506202328 532.08807714 123.675350427 531.497474683 128 531.497474683 c 0
 129.888898549 531.036567986 131.687515593 530.824369358 133.408548595 530.824369358 c 0
 138.008050882 530.824369358 142.053418045 532.33997374 145.787021803 534.674283061 c 1
 137.414959027 569.989510994 128.348243818 606.050226378 122.504514542 642.339586386 c 1
EndSplineSet
EndChar
StartChar: K
Encoding: 75 75 38
GlifName: K_
Width: 752
Flags: HW
LayerCount: 2
Fore
SplineSet
53 791.497474683 m 2
 115.05078125 791.497474683 179 825.497474683 179 825.497474683 c 1
 228.497474683 776 l 1
 237.692750228 704.910135636 242.747305635 615.721534865 242.747305635 523.124745065 c 0
 242.747305635 475.066970352 241.385803224 426.091160874 238.535045405 378.251036281 c 1
 263.075752482 413.125706663 290.025794492 446.135012541 320.315658374 476.424876423 c 2
 369.813133057 525.922351106 l 2
 390.955154103 547.064370093 413.724301708 566.881505281 438.436992345 585.083323498 c 1
 460.064718608 608.352338214 483.238381543 633.618684251 505.567242421 655.947545129 c 2
 555.064717104 705.445019812 l 2
 583.245305439 733.625608148 608.569211723 755.497474683 621 755.497474683 c 1
 670.497474683 706 l 1
 684.078071874 674.520741197 690.176629089 645.121795027 690.176629089 617.998611383 c 0
 690.176629089 567.371551623 668.92896532 524.673356879 635.430682442 491.175074002 c 2
 585.933207759 441.677599319 l 2
 532.550503834 388.294895393 448.056791991 358.275788715 368.863184236 356.76421609 c 1
 372.539188433 306.277303583 406.026140285 242.731397068 456.572579851 185.130690869 c 1
 523.981392483 125.910991673 608.344602902 81.5564246655 691.21009992 79.5671761706 c 0
 692.966564131 82.6461112751 694.91549415 85.4177832163 697.198896131 87.7011851981 c 2
 746.997592808 137.499881875 l 1
 796.471972092 86.4112782184 l 1
 791.299259384 81.4020132853 l 1
 783.011785982 68.1325478016 779.432892895 49.5895874717 768.564189697 38.7208842739 c 2
 719.066715014 -10.7765904092 l 2
 713.782815251 -16.0604901721 706.843065208 -19.4974746831 697 -19.4974746831 c 0
 601.430026925 -19.4974746831 503.291050348 37.8167683181 430.971719972 110.136098695 c 2
 381.474245289 159.633573378 l 2
 338.276914027 202.83090464 304.291612437 251.381806941 285.568297657 296.269698629 c 1
 257.873325599 248.179084125 233.02723548 198.051723961 209.021048321 147.731624737 c 1
 194.28823238 82.5560806121 174.381095858 31.7050748118 148.629387395 5.95336634902 c 2
 99.1319127117 -43.544108334 l 2
 95.2233623383 -47.4526587075 91.1801726039 -50.7830053409 87 -53.4974746831 c 1
 37.5025253169 -4 l 1
 62.2474286399 45.5698061284 85.903232598 97.1669499132 110.026098033 147.731622088 c 1
 133.402767287 251.146145507 143.752355992 390.624709526 143.752355992 523.124745761 c 0
 143.752355992 588.330527118 141.245881415 651.846241076 136.552040838 708.541992383 c 1
 113.151859344 700.373938601 82.8561739931 692.502525317 53 692.502525317 c 2
 5 692.502525317 l 1
 5 791.497474683 l 1
 53 791.497474683 l 2
591.181679722 617.998611403 m 0
 591.181679722 624.813091708 590.796723578 631.77122382 590.004870615 638.869908097 c 1
 585.915592743 635.497590879 581.608191783 631.730961977 577.134411541 627.650259186 c 0
 554.763701549 604.016309746 525.371623355 571.369887174 505.142632062 551.140895881 c 2
 455.645157379 501.643421198 l 2
 437.753540034 483.751803853 421.808255073 474.000473743 403.457302055 458.1896576 c 1
 459.277718889 464.927652939 515.113920033 485.194383893 558.580447335 517.240109387 c 1
 579.015144368 545.919003849 591.181679722 579.688750603 591.181679722 617.998611403 c 0
EndSplineSet
EndChar
StartChar: L
Encoding: 76 76 39
GlifName: L_
Width: 518
Flags: HW
LayerCount: 2
Fore
SplineSet
207.125562981 108.086867654 m 1
 232.951858659 82.2605719763 264.361016066 57.2972631961 308.010044536 57.2972631961 c 0
 357.379043127 57.2972631961 410.891992272 65.1156665188 449.749372397 86.0904797799 c 1
 458.566584193 103.671331704 463.589311398 125.279604386 463.589311398 151.876938843 c 0
 463.589311398 153.889261732 463.560560017 155.930143292 463.502525317 158 c 1
 435.502525317 186 l 1
 485 235.497474683 l 1
 562.497474683 158 l 1
 562.555509384 155.930143292 562.584260764 153.889261732 562.584260764 151.876938843 c 0
 562.584260764 108.981852842 549.520192289 79.0632718328 528.544252166 58.0873317094 c 2
 479.046777483 8.58985702637 l 2
 440.422460514 -30.034459943 370.501939478 -41.6976861698 308.010044551 -41.6976861698 c 0
 263.353405871 -41.6976861698 231.832115872 -16.7776370971 202.566200634 12.4882781407 c 2
 178.652593969 36.4018848061 l 1
 176.883560205 34.105742184 175.044144594 31.9919353113 173.131594058 30.0793847757 c 2
 123.634119375 -19.4180899073 l 2
 115.984709935 -27.0674993469 107.165384195 -31.4974746831 97 -31.4974746831 c 0
 81.1609128073 -28.7906649309 67.2759808366 -20.3278525303 55.6220104666 -8.67388216018 c 2
 6.12453578349 40.8235925229 l 2
 -16.4967249264 63.4448532327 -30.7122082131 98.0897021596 -34.4974746831 126 c 0
 -36.0143997162 131.070537978 -36.7199215111 135.361093633 -36.7199215111 138.972170195 c 0
 -36.7199215111 144.255680862 -35.209555448 148.084577128 -32.5204714335 150.773661143 c 2
 16.9770032496 200.271135826 l 2
 20.9663970821 204.260529658 27.5500597559 205.741283146 35.6450992553 205.741283146 c 0
 42.0054517576 205.741283146 49.2988376496 204.827154768 57 203.497474683 c 0
 58.0246316397 203.523023692 59.0424239054 203.535680449 60.0535013314 203.535680449 c 0
 83.0101121673 203.535680449 102.505079236 197.010851223 119.996069257 186.717660934 c 1
 122.889526154 217.764955215 123.540216908 237.104643179 123.540216908 253.214524713 c 0
 123.540216908 319.347665863 105.796636879 383.128870114 99.5025253169 446 c 0
 97.6652312872 484.035059658 88.0258642422 536.033273087 82.8678598015 576.584874464 c 1
 79.8239466783 576.44701028 76.8109463258 576.377828216 73.8366494385 576.377828216 c 0
 61.8741793777 576.377828216 56.1960217876 583.368551891 50.1171422085 589.44743147 c 2
 0.619667525444 638.944906153 l 2
 -33.6608803662 673.225454045 -39.7705110533 736.541078229 -44.4974746831 782 c 1
 53.4385411706 792.183699194 l 1
 57.3584454198 754.486218407 60.1585480617 713.009983668 76.1077078944 675.386127564 c 0
 76.8036198325 675.394280718 77.501516744 675.40616608 78.2013007406 675.42177737 c 0
 80.8396141947 707.395869655 89.3802388402 735.110495292 108.263707466 753.993963918 c 2
 157.761182149 803.491438601 l 2
 174.23175842 819.962014872 198.570872219 829.714101482 233.725089397 829.714101482 c 0
 236.736733811 829.714101482 239.827753127 829.642528341 243 829.497474683 c 1
 292.497474683 780 l 1
 295.74547042 769.132063736 297.253572391 758.792892593 297.253572391 748.997361115 c 0
 297.253572391 721.548135009 285.411303778 698.367802555 266.827167947 679.783666724 c 2
 217.329693264 630.286192041 l 2
 206.482978429 619.439477206 193.339629024 610.158468682 178.913724331 602.508241968 c 1
 183.76631965 553.052781988 196.209659214 493.361607027 198.497474683 446 c 0
 204.793536498 383.109389277 222.535166274 319.362619729 222.535166274 253.214524713 c 0
 222.535166274 226.901664753 220.407646721 166.893021242 207.125562981 108.086867654 c 1
187.783023028 706.513944955 m 0
 190.992178985 712.644794333 193.537052079 719.106151953 195.31455506 725.891402498 c 1
 192.635662342 725.130695012 190.053468378 724.284370159 187.564990394 723.355498799 c 0
 184.963892394 716.887492949 182.880897026 709.999059778 181.247165831 702.761070957 c 1
 183.459113726 703.973087523 185.638988051 705.224126072 187.783023028 706.513944955 c 0
69.2346290535 104.185361433 m 1
 72.426892161 93.3332274203 76.9093051719 82.2129225439 82.5870046559 71.703436535 c 0
 86.9575911229 69.8785290254 91.5117030607 68.4982379005 96.2418798824 67.6316918158 c 1
 99.5468370601 76.2274511318 102.458502239 85.5640990078 105.022608866 95.3273312446 c 1
 94.0237437159 100.032200374 82.1931516512 103.171585499 69.2346290535 104.185361433 c 1
EndSplineSet
EndChar
StartChar: M
Encoding: 77 77 40
GlifName: M_
Width: 650
Flags: HW
LayerCount: 2
Fore
SplineSet
560.497474683 748 m 0
 560.497474683 662.101364868 557.178652652 574.309258287 557.178652652 488.774969525 c 0
 557.178652652 314.607392996 571.157972439 152.869136466 656.497474683 40 c 1
 694.497474683 -4 l 1
 637.795042147 -52.970282645 l 1
 557.502525317 40 l 1
 472.163023073 152.869136466 458.183703286 314.607392996 458.183703286 488.774969525 c 0
 458.183703286 533.403491987 459.10746327 579.153035249 459.974074206 624.610110497 c 1
 424.068641367 528.360498007 392.323836511 418.266003232 392.323836511 376.890296154 c 0
 392.323836511 375.134322193 392.381013062 373.502119766 392.497474683 372 c 1
 293.502525317 372 l 1
 270.545973192 415.745281498 247.266195682 458.550486647 225.165978974 504.45618161 c 1
 222.422029504 319.518598335 212.267026772 138.742498597 82.4974746831 2 c 1
 33 -47.4974746831 l 1
 32.0971068737 -46.7791175479 31.2150884107 -45.9858976737 30.354049735 -45.124858998 c 2
 -19.1434249481 4.37261568506 l 2
 -34.1758332436 19.4050239806 -42.813648812 55.1084528028 -44.4974746831 74 c 1
 43.7812266565 81.8683847133 l 1
 122.689378381 215.578457055 124.663090842 377.815824238 126.651196553 541.236303537 c 0
 127.764138127 632.719087607 128.881590201 724.572630665 143.502525317 812 c 1
 242.497474683 812 l 1
 242.469221058 809.886046687 242.455202541 807.775222526 242.455202541 805.667520653 c 0
 242.455202541 699.067108952 278.314475333 600.45349178 322.011623845 508.938861436 c 1
 354.997186526 618.858467462 408.480311225 754.380001785 438.739937536 784.639628096 c 2
 488.237412219 834.137102779 l 2
 492.255171337 838.154861897 495.863511154 840.316903325 498.960090191 840.316903325 c 0
 500.680175139 840.316903325 502.242352699 839.649790233 503.629081848 838.263061083 c 2
 553.126556531 788.7655864 l 2
 557.814593837 784.077549095 560.497474683 771.165197957 560.497474683 748 c 0
EndSplineSet
EndChar
StartChar: N
Encoding: 78 78 41
GlifName: N_
Width: 516
Flags: HW
LayerCount: 2
Fore
SplineSet
160.497474683 172 m 0
 160.497474683 156.303911086 161.284205619 139.909205997 161.284205619 123.02302369 c 0
 161.284205619 81.7625378282 157.41815358 33.7556373782 132.545749261 8.88323305891 c 2
 83.0482745776 -40.6142416241 l 2
 72.5432223209 -51.1192938808 58.2909297917 -57.4974746831 39 -57.4974746831 c 0
 33.3659065448 -56.4750776955 28.9772768929 -53.9950824661 25.4895513514 -50.5073569246 c 2
 -24.0079233317 -1.00988224154 l 2
 -37.7246311335 12.7068255603 -36.7550765385 40.6686069741 -44.4974746831 60 c 1
 40.8130291012 94.1676300992 l 1
 54.4974746831 60 l 2
 55.1247893393 58.4337072732 55.6930784367 56.7690156992 56.2178621598 55.0261885438 c 1
 61.1633735112 76.5258155826 62.2892562456 100.756774956 62.2892562456 123.023024176 c 0
 62.2892562456 139.939374355 61.5025253169 156.267575895 61.5025253169 172 c 0
 56.6888210916 255.209999865 47.9031203757 347.399508188 47.9031203757 429.243368393 c 0
 47.9031203757 553.522628297 68.0947968342 672.783922356 153.541677369 758.230802891 c 2
 203.039152052 807.728277574 l 2
 210.714213305 815.403338827 216.23871326 818.682724007 220.137852129 818.682724007 c 0
 221.807319635 818.682724007 223.178819987 818.081535091 224.293577429 816.966777649 c 2
 273.791052112 767.469302966 l 2
 276.91314298 764.347212098 278.021376155 757.196757126 278.021376155 747.94280476 c 0
 278.021376155 726.491736721 271.383072907 691.529545856 271.383072907 670.416277369 c 0
 271.383072907 666.081018316 271.706866138 662.507596725 272.497474683 660 c 0
 281.821554795 621.015676368 284.783854703 580.081797601 284.783854703 538.34109265 c 0
 284.783854703 466.03513009 275.78635096 390.85187934 275.78635096 318.801699828 c 0
 275.78635096 282.749751875 278.067642857 247.61016431 284.92764576 214.155210318 c 1
 323.704627947 404.119212523 386.808481203 574.346127483 443.502525317 748 c 1
 497.140707089 819.517575696 l 1
 560.497474683 772 l 1
 542.497474683 748 l 1
 467.294649074 517.653724736 380.219955853 291.766829406 354.497474683 18 c 1
 255.502525317 18 l 1
 255.502525317 37.9478000499 204.624433981 144.79366386 197.502525317 172 c 0
 181.456019039 217.563040998 176.791402129 267.249607717 176.791402129 318.801701567 c 0
 176.791402129 390.845340218 185.788904993 466.041696042 185.788904993 538.34109165 c 0
 185.788904993 572.473902916 183.808045961 606.067197906 177.987456363 638.496120458 c 1
 154.154292774 574.857078085 146.898069773 504.459113859 146.898069773 429.243367747 c 0
 146.898069773 347.425121006 155.686365338 255.165144605 160.497474683 172 c 0
EndSplineSet
EndChar
StartChar: O
Encoding: 79 79 42
GlifName: O_
Width: 418
Flags: HW
LayerCount: 2
Fore
SplineSet
253.48046875 51.4974746831 m 0
 254.16421971 51.4687587962 266.581767269 53.0417651799 272.242716056 55.4163154642 c 0
 329.522061618 147.46456831 363.982994067 330.498466572 363.982994067 376 c 0
 360.932321848 420.878587862 352.391870409 465.079208711 339.671964887 508.064396744 c 1
 332.141753025 492.012083607 322.156489253 477.293637108 309.578726799 464.715874655 c 2
 260.081252116 415.218399971 l 2
 255.552555005 410.68970286 250.687765784 406.438524509 245.48046875 402.502525317 c 1
 197.860521044 465.503354417 l 1
 231.239404387 490.733191896 l 1
 249.788026692 520.30011834 258.530440806 556.261340988 258.530440806 592.372350281 c 0
 258.530440806 631.930453261 248.039292321 671.668304526 228.455439278 703.376987851 c 1
 211.016879165 713.414926521 190.963048831 719.175730497 168.546701284 719.175730497 c 0
 141.146869877 719.175730497 118.3967226 711.792575712 100.03085522 700.950828785 c 1
 77.9735679833 665.808335149 66.9779434331 621.236794034 66.9779434331 578 c 2
 66.9779434331 532 l 1
 64.2408846337 452.916062589 54.4978426877 368.026249282 54.4978426877 289.326160881 c 0
 54.4978426877 206.486958968 65.6994665714 131.203572973 108.683641524 72.3881308579 c 0
 112.793007565 69.3459632961 117.056848074 66.3816454097 121.48046875 63.4974746831 c 1
 133.48046875 63.4974746831 l 2
 171.776811362 63.4974746831 213.994720501 51.4974746831 253.48046875 51.4974746831 c 0
133.48046875 -35.4974746831 m 2
 121.48046875 -35.4974746831 l 1
 106.483139484 -25.719317555 93.3223272723 -15.0199470598 81.7912750924 -3.48889487996 c 2
 32.2938004094 46.0085798031 l 2
 -29.513426003 107.815806215 -44.4971065945 193.517523046 -44.4971065945 289.326161298 c 0
 -44.4971065945 368.061241223 -34.7554172332 452.876983748 -32.0170059331 532 c 1
 -32.0170059331 578 l 2
 -32.0170059331 634.040212488 -13.5450671335 692.322713833 23.5426018861 729.410382853 c 2
 73.0400765691 778.907857536 l 2
 96.2381279337 802.1059089 126.117846289 818.170679863 168.54670128 818.170679863 c 0
 203.637587725 818.170679863 232.939068832 804.053690953 255.481562025 781.51119776 c 2
 300.369418141 736.623341643 l 1
 322.274585849 749.936638762 l 1
 348.977943433 706 l 2
 409.035560621 607.18359375 454.961341871 493.932617188 462.977943433 376 c 0
 462.977943433 324.341570682 418.560111834 95.4131435314 346.761423318 23.6144550153 c 2
 297.263948635 -25.8830196677 l 2
 283.619341558 -39.5276267445 268.985871588 -47.4974746831 253.48046875 -47.4974746831 c 0
 214.023804522 -47.4974746831 171.744498951 -35.4974746831 133.48046875 -35.4974746831 c 2
EndSplineSet
EndChar
StartChar: P
Encoding: 80 80 43
GlifName: P_
Width: 542
Flags: HW
LayerCount: 2
Fore
SplineSet
248.477261379 492.304788358 m 0
 248.477261379 490.836270129 248.497474683 489.404799775 248.497474683 488 c 0
 248.497474683 458.872751938 255.771592485 425.086153412 270.87778456 397.154731612 c 1
 281.647430774 392.258539109 293.677097422 389.497474683 307 389.497474683 c 0
 355.848382623 389.497474793 412.208584629 409.39905874 456.911710358 442.6343407 c 1
 475.872787569 469.030148844 487.502525317 499.309625491 487.502525317 532 c 0
 487.502525317 590.04632913 472.905265655 637.271195846 447.112668962 674.080092321 c 1
 399.264525466 707.996340632 335.365896148 724.502525317 263 724.502525317 c 0
 195.62310672 724.502525317 142.331251 722.357355838 104.618236132 704.44748713 c 1
 93.7198461633 681.353768713 88.0592598988 647.42605197 88.0592598988 609.069780761 c 0
 88.0592598988 559.837937115 97.0100854716 510.613951414 116.497474683 466 c 1
 33.3639481323 429.687247216 l 1
 17.5025253169 466 l 2
 -1.98486389454 510.613951414 -10.9356894673 559.837937115 -10.9356894673 609.069780761 c 0
 -10.9356894673 667.124406219 1.50774324017 709.286718552 25.8560252119 733.635000524 c 2
 75.353499895 783.132475207 l 2
 112.12136744 819.900342753 175.751421365 823.497474683 263 823.497474683 c 0
 350.053264168 823.497474683 424.853442466 799.611172007 474.199533527 750.265080946 c 2
 523.69700821 700.767606263 l 2
 563.290917462 661.173697011 586.497474683 605.188765327 586.497474683 532 c 0
 586.497474683 487.979247096 565.409005184 448.330230436 533.727958093 416.649183345 c 2
 484.23048341 367.151708662 l 2
 437.082198032 320.003423283 366.473566973 290.502525317 307 290.502525317 c 0
 280.978088231 290.502525317 259.889714237 301.035650267 243.487385663 317.437978841 c 2
 193.98991098 366.935453524 l 2
 163.8181721 397.107192405 149.502525317 447.138455652 149.502525317 488 c 0
 149.502525317 489.403071337 149.482312013 490.837849864 149.482312013 492.304788358 c 0
 149.482312013 499.393269311 149.894755735 508.706690406 154.445776494 513.257711165 c 2
 203.943251177 562.755185848 l 2
 205.648843825 564.460778496 207.93571468 565.497474683 211 565.497474683 c 1
 211 470.816985305 l 1
 253.44072586 513.257711165 l 1
 248.889705102 508.706690406 248.477261379 499.393269311 248.477261379 492.304788358 c 0
115.526410515 174.912760395 m 0
 115.526410515 179.450799433 115.502525317 183.720097238 115.502525317 188 c 0
 115.502525317 260.521181074 107.99513224 245.020244666 107.502525317 313 c 2
 105.502525317 589 l 1
 204.492276733 589.717317039 l 1
 206.497474683 313 l 1
 209.096844325 245.094885827 214.497474683 260.494225062 214.497474683 188 c 0
 214.497474683 183.726555478 214.521359881 179.444829716 214.521359881 174.912760395 c 0
 214.521359881 132.271991328 212.728946137 50.9022074013 178.089730953 16.2629922173 c 2
 128.59225627 -33.2344824658 l 2
 118.462644793 -43.3640939424 105.524092595 -49.4974746831 89 -49.4974746831 c 0
 73.6468443245 -49.4974746831 62.6607472084 -43.4616244413 53.8313298111 -34.6322070439 c 2
 4.33385512803 14.8652676391 l 2
 -11.647059763 30.8461825301 -20.6878532628 56.1903785797 -36.4974746831 72 c 1
 -44.4974746831 83 l 1
 20.2505732807 130.089489428 l 1
 34.6583038941 110.500536114 48.6931820478 90.5387303405 63.3326652931 71.1815296583 c 1
 69.0950124111 65.4191825403 73.9591351874 58.1603125088 78.6687647408 50.4958578154 c 0
 81.8812906519 49.8452143136 85.3148470316 49.4974746831 89 49.4974746831 c 0
 92.7423639114 49.4974746831 96.300815253 49.8120732342 99.6843756003 50.416443568 c 0
 114.530827569 89.8423727641 115.526410515 143.13343889 115.526410515 174.912760395 c 0
EndSplineSet
EndChar
StartChar: Q
Encoding: 81 81 44
GlifName: Q_
Width: 382
Flags: HW
LayerCount: 2
Fore
SplineSet
54.1257723165 396.454189674 m 0
 54.1257723165 302.103888343 74.5079956463 166.133029135 136.081699704 81.23739494 c 1
 155.238993089 68.0212995057 176.924930061 58.7897229765 201.407737411 54.7374936927 c 1
 215.923602141 65.1238451803 230.562850128 75.368257833 244.957878172 85.9151104464 c 1
 306.573495603 167.924702882 327.175236089 291.034163084 327.175236089 395.081403515 c 0
 327.175236089 412.698068393 326.584640545 429.768271575 325.502525317 446 c 1
 326.71398437 459.225094609 327.354697246 473.112662455 327.354697246 487.368431834 c 0
 327.354697246 553.505318389 313.564527168 627.567067915 278.997832133 680.169893665 c 1
 257.879015828 693.169963546 232.826904355 700.678385675 203.361984932 700.678385675 c 0
 194.327469679 700.678385675 184.878082333 699.972478045 175 698.502525317 c 1
 169.680185879 698.9305563 164.528626343 699.139856316 159.539948606 699.139856316 c 0
 134.44493256 699.139856316 113.471618778 693.843547294 95.9360870867 684.451427731 c 1
 57.0343752379 618.118274787 55.7211668331 513.658107616 54.7505468017 436.449394685 c 0
 54.5752704724 422.506904981 54.1257723165 410.448693644 54.1257723165 396.454189674 c 0
332.876988743 28.0415511041 m 1
 345.30648556 0.426325282646 390.535807755 -23.3794886416 390.535807755 -59.1990782336 c 0
 390.535807755 -59.7962931756 390.523152101 -60.3965806796 390.497474683 -61 c 0
 390.497474683 -97.170215044 357.351831062 -115.933273609 342.497474683 -141 c 1
 293 -190.497474683 l 1
 221 -190.497474683 l 1
 221 -91.5025253169 l 1
 282.756583182 -91.5025253169 l 1
 288.01040705 -82.711490331 291.502525317 -72.8924677759 291.502525317 -61 c 0
 291.528202735 -60.3965806796 291.540858389 -59.7962931756 291.540858389 -59.1990782336 c 0
 291.540858389 -47.4681257508 286.657823437 -36.9226850155 279.666466064 -27.1136696065 c 1
 267.820720757 -38.9594149163 247.979670442 -46.641318829 229.281951722 -46.641318829 c 0
 179.690193493 -46.641318829 140.842435663 -26.7336044217 110.102157263 4.00667397867 c 2
 60.6046825795 53.5041486617 l 2
 -19.4001624757 133.508993717 -44.8691770553 290.985491543 -44.8691770553 396.454189513 c 0
 -44.8691770553 410.449647786 -44.4196695393 422.507649085 -44.2444025644 436.449394685 c 0
 -43.1154583201 526.252128252 -41.5230467654 652.921723581 19.1396828846 713.584453231 c 2
 68.6371575676 763.081927914 l 2
 90.4184162237 784.86318657 119.815050993 798.134805793 159.539947332 798.134805793 c 0
 164.528625458 798.134805793 169.680185419 797.925505741 175 797.497474683 c 1
 184.878082337 798.967427412 194.327469688 799.673335042 203.361984945 799.673335042 c 0
 246.338080434 799.673335042 279.926492777 783.700129619 305.615093028 758.011529368 c 2
 355.112567711 708.514054685 l 2
 406.59635481 657.030267586 426.349646598 566.523490279 426.349646598 487.368431691 c 0
 426.349646598 473.112662361 425.708933727 459.225094562 424.497474683 446 c 1
 425.579589909 429.768271609 426.170185452 412.698068465 426.170185452 395.081403629 c 0
 426.170185452 278.817238387 400.446420228 138.751585919 320.519255438 58.8244211285 c 2
 312.694834309 51 l 1
 332.497474683 51 l 1
 334.586748609 46.6821672185 335.531405349 42.5971379326 335.531405349 38.7692316559 c 0
 335.531405349 34.9259393466 334.579139369 31.3418411806 332.876988743 28.0415511041 c 1
EndSplineSet
EndChar
StartChar: R
Encoding: 82 82 45
GlifName: R_
Width: 533
Flags: HW
LayerCount: 2
Fore
SplineSet
424.8984375 -47.4974746831 m 0
 404.507755586 -47.4974746831 387.184467263 -38.1724082147 372.618824729 -23.6067656805 c 2
 323.121350046 25.8907090025 l 2
 287.818640974 61.193418074 268.715194822 127.280889235 261.400962817 166 c 0
 250.249850469 225.029098547 252.18260297 286.624151525 244.854147234 347.946046739 c 1
 199.304851852 393.49534212 l 2
 172.658334269 420.141859703 155.195716669 461.123435097 155.195716669 498.96891347 c 0
 155.195716669 505.921207161 156.01500208 513.431844726 158.813807615 516.230650261 c 2
 208.311282298 565.728124944 l 2
 209.493968612 566.910811258 210.936686753 567.457239985 212.586244365 567.457239985 c 0
 217.327817623 567.457239985 223.778396032 562.942388421 230.674657305 556.046127147 c 2
 280.172131988 506.548652464 l 2
 299.411342433 487.309442019 315.169552877 457.010174746 321.596475402 441.072452838 c 1
 341.006495103 448.531925377 360.282195677 459.272989685 377.894090443 472.336277894 c 1
 394.860932272 495.939672552 405.400962817 522.020916523 405.400962817 548 c 0
 405.400962675 603.724957663 392.929278841 654.227931754 365.816273047 694.08370931 c 1
 328.166516028 719.697863747 277.72648364 734.502525317 212.8984375 734.502525317 c 1
 203.332559367 735.887153115 194.308546185 736.550538034 185.794349076 736.550538034 c 0
 163.239459924 736.550538034 144.262300399 731.89511031 128.267065953 723.659863038 c 1
 97.5694898296 670.131170483 92.0148175587 594.711288164 87.9944324918 531.708475879 c 1
 -10.5990371831 538 l 1
 -5.96106947716 610.680851186 2.5896952012 704.251979606 51.4121870684 753.074471473 c 2
 100.909661751 802.571946156 l 2
 121.298501403 822.960785807 148.710708551 835.545487384 185.794349179 835.545487384 c 0
 194.308546259 835.545487384 203.332559408 834.882102469 212.8984375 833.497474683 c 1
 294.789413488 833.497474683 353.721701096 809.873949058 392.915812707 770.679837446 c 2
 442.41328739 721.182362763 l 2
 485.124216548 678.471433605 504.395912183 617.270315634 504.395912183 548 c 0
 504.395912183 512.00768302 484.165076229 475.819276267 454.641451495 446.295651533 c 2
 405.143976812 396.79817685 l 2
 387.173459029 378.827659068 365.760013616 363.326406724 343.370318991 351.841639731 c 1
 351.257891231 289.42027092 349.004132039 226.303088316 360.395912183 166 c 0
 365.894244697 136.893656985 378.05465031 92.3214809388 398.750527653 56.9870489821 c 1
 406.841304692 53.4586472027 415.547316397 51.4974746831 424.8984375 51.4974746831 c 0
 435.150780559 51.4974756009 444.447910159 54.8629908448 453.05788166 60.222481507 c 0
 457.940791388 65.5514970481 462.955319092 70.3984442084 468.034028767 75.4771538832 c 1
 476.943435199 96.2657688916 485.852841631 117.0543839 494.762248063 137.842998908 c 1
 578.395912183 102 l 1
 566.395912183 74 l 1
 551.142261207 58.7463490236 537.405535683 42.082279048 522.121570773 26.7983141379 c 2
 472.62409609 -22.6991605451 l 2
 458.77446732 -36.5487893146 443.3902023 -47.4974746831 424.8984375 -47.4974746831 c 0
234.395912183 258 m 0
 234.395912183 233.451689073 235.99522992 210.557726792 235.99522992 181.417620445 c 0
 235.99522992 117.346272521 230.052609905 35.7471121392 195.257133986 0.951636220423 c 2
 145.759659303 -48.5458384626 l 2
 135.078798559 -59.2266992064 121.679272476 -65.4974746831 104.8984375 -65.4974746831 c 0
 85.0398454889 -65.4974746831 58.5582062134 -52.3040743718 40.252393662 -33.9982618205 c 2
 8.53160537905 -2.27747353751 l 1
 7.14233251853 -3.66674639802 5.03220056054 -5.54774773288 5.00579924399 -5.54683561397 c 2
 5.00579924399 -5.54683561397 -44.4916754391 43.9506390691 -44.497962875 43.9701138127 c 0
 -44.497962875 45.1260016179 -8.26855630249 85.667346831 -5.45928144023 88.4766216933 c 2
 44.0381932428 137.974096376 l 2
 44.1390712633 138.074974397 44.1968556821 138.127198785 44.2098496209 138.126669934 c 2
 44.2098496209 138.126669934 93.707324304 88.6291952508 93.7079188606 88.6273377391 c 2
 93.7079188606 88.6273377391 81.6919362933 74.7675276993 66.8569266014 58 c 1
 68.3959121831 58 l 1
 68.3959121831 52.8985252988 69.42924571 47.7712701671 71.2986053686 42.7259751469 c 0
 82.9123240337 36.9313066888 94.767267435 33.4974746831 104.8984375 33.4974746831 c 0
 109.24537906 33.4974746832 113.365425416 33.9182611091 117.270094929 34.7274906275 c 0
 133.652547975 75.3644528715 137.000280554 133.328120692 137.000280554 181.417620444 c 0
 137.000280554 210.645883415 135.400962817 233.328518281 135.400962817 258 c 0
 135.400962817 389.387389007 97.3827254765 517.659493643 79.4009628169 640 c 1
 80.7275958127 649.28643097 82.0542288085 658.572861941 83.3808618043 667.859292911 c 1
 180.395912183 654 l 1
 178.395912183 640 l 1
 196.383587226 517.619268219 234.395912183 389.412527824 234.395912183 258 c 0
5.13402127329 93.3198917228 m 1
 -2.42215013044 85.7637203191 l 1
 25.3415701887 58 l 1
 40.4539129961 58 l 1
 5.13402127329 93.3198917228 l 1
-27.3186703712 60.8672000784 m 1
 -30.1858704496 58 l 1
 -24.0779676192 58 l 1
 -27.3186703712 60.8672000784 l 1
EndSplineSet
EndChar
StartChar: S
Encoding: 83 83 46
GlifName: S_
Width: 442
Flags: HW
LayerCount: 2
Fore
SplineSet
354.497474683 716 m 0
 354.497474683 607.344103505 314.561939884 531.131988752 273.335380049 450.966045987 c 1
 304.351662407 428.23769582 334.854536075 405.33640445 360.965573986 379.225366539 c 2
 410.463048669 329.727891856 l 2
 454.816319434 285.374621091 486.497474683 231.760011517 486.497474683 154 c 0
 486.497474683 107.192753287 464.685867006 56.9080801318 429.542545938 21.7647590634 c 2
 380.045071255 -27.7327156197 l 2
 352.51780335 -55.2599835246 316.811038638 -73.4974746831 277 -73.4974746831 c 0
 261.343070715 -73.4974746831 247.448799014 -66.0008630905 235.344853461 -53.896917537 c 2
 185.847378778 -4.3994428539 l 2
 164.93878313 16.5091527941 149.372483629 51.1659375693 139.291100233 84.677884275 c 1
 129.07402447 66.4423232681 116.931137139 49.594340874 102.150270428 34.813474163 c 2
 52.6527957449 -14.6840005201 l 2
 39.1507412951 -28.1860549699 23.4474270311 -39.9632063675 5 -49.4974746831 c 1
 48.4974746831 -6 l 1
 -44.4974746831 -6 l 1
 -44.4974746831 1.06581410364e-14 l 1
 5 49.4974746831 l 1
 12.4820026941 53.364433527 19.5126014662 57.600344586 26.1280137759 62.170649628 c 0
 67.3232241924 120.346182495 81.4263203632 195.145699809 99.5025253169 268 c 0
 115.659090189 333.11591836 141.355445074 386.463810323 167.269977125 437.184382658 c 1
 116.782996515 487.671363267 l 2
 69.7030060615 534.751353721 35.5025253169 592.629464791 35.5025253169 678 c 0
 35.5025253169 722.778418084 40.8220413644 748.680003275 55.7863949845 763.644356895 c 2
 105.283869668 813.141831578 l 2
 124.199655072 832.057616983 158.526331529 833.497474683 217 833.497474683 c 0
 246.222341565 833.497474683 272.374812011 828.654754791 288.427881393 812.601685409 c 2
 337.925356076 763.104210726 l 2
 348.334600575 752.694966227 354.497474683 737.572244578 354.497474683 716 c 0
134.497474683 678 m 0
 134.497474683 606.8843188 158.230160828 554.846415868 193.370759964 512.23599888 c 0
 196.123775118 509.882298978 198.902828802 507.551059632 201.704583167 505.239666651 c 1
 231.670359793 567.407447004 255.502525317 631.880217092 255.502525317 716 c 0
 255.502525317 721.346527723 255.123963967 726.296886376 254.396018166 730.877505561 c 1
 243.013476725 733.49546713 230.325932835 734.502525317 217 734.502525317 c 0
 183.480042364 734.502525317 157.895127617 734.029367724 138.599569645 730.06221546 c 1
 135.708273799 716.429997379 134.497474683 699.363319362 134.497474683 678 c 0
260.114483636 160.44619642 m 1
 259.602312408 163.289540806 258.82851984 166.119391322 257.81943258 168.918168189 c 0
 247.148874079 173.855713339 235.948590523 176.830894788 225.355223033 177.08471354 c 0
 224.949679757 173.733504458 224.683131102 170.188680703 224.56589712 166.443350997 c 1
 233 175.497474683 l 1
 233 175.497474683 243.676904943 165.551716766 260.114483636 160.44619642 c 1
359.838406153 152.450732808 m 0
 359.838406153 141.541419811 355.653869155 130.675100577 345.813206158 120.83443758 c 2
 296.315731474 71.3369628966 l 2
 291.788627218 66.8098586404 286.064475558 62.4998215316 279 58.5025253169 c 1
 264.17488328 58.5025253169 251.620808608 64.061601841 243.392149671 69.0010461769 c 1
 248.398271326 54.7681244091 254.390020708 40.7469291764 261.356467361 28.0788646764 c 0
 266.358463315 26.398037769 271.573358202 25.4974746831 277 25.4974746831 c 0
 304.964544934 25.4974746831 330.90399719 34.4960460875 353.405936374 49.3920246353 c 1
 374.89479087 80.8165369599 387.502525317 118.41329456 387.502525317 154 c 0
 387.502524257 217.996497808 366.043952631 265.638611015 333.723246835 305.223340554 c 1
 303.588898757 330.851395548 269.771805871 354.207109114 237.574563415 378.266457622 c 1
 222.532739414 345.017703051 208.90466569 309.467292607 198.867357263 269.482066701 c 1
 206.234447318 274.053748027 214.816084012 276.097341545 223.886711549 276.097341545 c 0
 246.122650132 276.097341545 271.297165135 263.816425001 288.721548582 246.392041553 c 2
 338.219023265 196.89456687 l 2
 351.169224903 183.944365232 359.838406153 168.153013541 359.838406153 152.450732808 c 0
EndSplineSet
EndChar
StartChar: T
Encoding: 84 84 47
GlifName: T_
Width: 381
Flags: HW
LayerCount: 2
Fore
SplineSet
277.618568433 74 m 1
 277.618568433 56.4751803936 l 2
 278.601644124 55.8256959182 279.602751508 55.1638912835 280.623619067 54.4885176782 c 1
 280.623619067 645.909380158 l 1
 244.990060691 651.163491373 204.828447684 671.763851221 165.80987545 691.77790366 c 0
 126.830934318 711.771627857 88.9927131702 731.180235063 57.9490445857 734.119667963 c 1
 62.2649962617 713.819683876 68.3084259325 694.064929497 77.34747093 677.597492449 c 1
 98.4683639025 660.608556396 l 1
 50.12109375 600.502525317 l 1
 48.0360927008 602.179630046 46.0417266337 603.977331514 44.1333890465 605.885669102 c 2
 -5.36408563658 655.383143785 l 2
 -26.5055199201 676.524578068 -37.0884904119 711.244625641 -43.3763809331 746 c 0
 -44.1276463471 750.152323092 -44.4971919127 753.869095556 -44.4971919127 757.193142145 c 0
 -44.4971919127 765.123254768 -42.3939341462 770.818179572 -38.3527213896 774.859392329 c 2
 11.1447532935 824.356867012 l 2
 18.3261936726 831.538307391 31.6275206431 833.497474683 50.12109375 833.497474683 c 0
 82.5157129439 833.497474683 123.490487024 812.480014787 165.80987545 790.772853026 c 0
 208.391227266 768.931320664 252.333891681 746.391521292 290.267127429 743.861050171 c 1
 292.623619067 758 l 2
 293.968602783 766.06877111 296.71945508 771.781952786 300.142121629 775.204619335 c 2
 349.639596312 824.702094019 l 2
 352.224536213 827.287033919 355.192672084 828.565487448 358.227786513 828.565487448 c 0
 361.587413613 828.565487448 365.029107571 826.999035924 368.123990352 823.904153143 c 2
 417.621465035 774.40667846 l 2
 420.812602426 771.21554107 423.635020678 766.39942186 425.618568433 760 c 1
 418.406736327 740.020043572 409.448490039 725.364788036 399.104541057 715.020839054 c 2
 381.525541719 697.441839716 l 1
 379.618568433 686 l 1
 379.618568433 30 l 1
 374.662098431 21.6769297498 369.644815833 12.3525015993 363.234727122 5.94241288839 c 2
 313.737252439 -43.5550617947 l 2
 309.222600216 -48.0697140177 304.054951384 -51.0739396214 297.842415761 -51.0739396214 c 0
 293.23108133 -51.0739396214 288.044062188 -49.4187490669 282.12109375 -45.4974746831 c 0
 262.800661715 -32.7063035774 247.766262306 -22.990381156 228.12109375 -9.49747468306 c 1
 178.623619067 40 l 1
 178.623619067 74 l 1
 243.618568433 74 l 1
 228.12109375 89.4974746831 l 1
 236.622332465 83.6585622527 243.838886779 78.8064149093 251.073240788 74 c 1
 277.618568433 74 l 1
EndSplineSet
EndChar
StartChar: U
Encoding: 85 85 48
GlifName: U_
Width: 683
Flags: HW
LayerCount: 2
Fore
SplineSet
189.007229525 385.312572215 m 0
 189.007229525 481.995090865 210.502525317 576.284373782 210.502525317 673 c 0
 210.502525317 686.030874524 208.669975327 697.987025962 205.47399463 708.561344655 c 1
 203.459152513 705.169317395 201.128424625 702.183214645 198.527729591 699.582519611 c 2
 149.030254908 650.085044928 l 2
 139.283319837 640.338109858 125.744385866 636.00466923 110.830721138 636.00466923 c 0
 84.0838536547 636.00466923 52.915230412 649.942973844 31.2689511326 671.589253123 c 2
 -18.2285235504 721.086727806 l 2
 -32.2101318311 735.068336087 -42.2189866846 752.265736917 -44.4974746831 771 c 1
 53.0545078095 782.864412299 l 1
 54.6698029666 769.583076407 55.9922482119 759.42350666 61.0321792625 748.64869739 c 1
 77.2219362601 739.994877325 94.818670905 734.999618596 110.830721138 734.999618596 c 0
 113.813794055 734.999618596 116.741865206 735.172995738 119.595589833 735.528393406 c 0
 122.248177606 739.659036454 125.076144614 743.187537094 128.032962625 746.144355105 c 2
 177.530437308 795.641829788 l 2
 185.791901629 803.903294109 195.059261014 807.701830539 204.317637431 807.701830539 c 0
 215.00606044 807.701830539 225.682511153 802.639227277 234.785459864 793.536278565 c 2
 284.282934547 744.038803882 l 2
 298.926019441 729.395718989 309.497474683 704.2977441 309.497474683 673 c 0
 309.497474683 576.283672733 288.002178891 481.995791684 288.002178891 385.312572215 c 0
 288.002178891 364.774389354 289.362491515 345.876519352 290.646839767 325.620516632 c 0
 294.518489368 264.559083536 303.276463375 126.433349304 342.106585043 50.8357936821 c 0
 347.142590002 49.3023934159 352.435797955 48.4974746831 358 48.4974746831 c 0
 385.24177305 48.4974746831 409.231025384 55.9136577065 430.25449314 69.3494780305 c 1
 445.313085404 91.1488817368 457.956021925 117.201762325 468.424705371 146.332370136 c 1
 442.97695765 230.937470891 433.633231427 330.393231148 433.633231427 430.888781676 c 0
 433.633231427 554.605780351 447.793946643 679.898614359 463.502525317 781 c 1
 562.497474683 781 l 1
 590.013996527 710.050514868 609.534706031 579.18545376 609.534706031 444.536764007 c 0
 609.534706031 338.301047318 597.383134736 229.710035438 567.419654737 146.332370136 c 1
 577.005993398 114.461056525 588.877621301 84.6971700801 603.395928266 57.7790080735 c 1
 610.425246684 55.7336692169 617.977777499 54.7397147986 625.960455359 54.7397147986 c 0
 629.840725194 54.7397147986 633.822630098 54.9745661784 637.895481296 55.4376729641 c 1
 652.870512853 81.6439781885 l 1
 727.497474683 39 l 1
 711.497474683 11 l 1
 662 -38.4974746831 l 1
 649.306557216 -42.2824525783 637.206632415 -44.2552345675 625.960455359 -44.2552345675 c 0
 606.177788052 -44.2552345675 589.036856846 -38.1508911824 575.954097091 -25.0681314273 c 2
 526.456622408 24.4293432557 l 2
 520.396442773 30.4895228899 515.466731084 38.4378743992 510.883180902 46.2535735502 c 1
 509.221717757 44.4520819313 507.536137217 42.6958190052 505.826211672 40.9858934598 c 2
 456.328736989 -8.51158122321 l 2
 429.729279858 -35.111038354 397.238659922 -50.4974746831 358 -50.4974746831 c 0
 341.580353279 -50.4974746831 327.520541666 -43.488187256 315.466175007 -31.4338205966 c 2
 265.968700324 18.0636540864 l 2
 207.441839262 76.5905151481 196.190073831 254.04689494 191.651890401 325.620516632 c 0
 190.363391257 345.941984835 189.007229525 364.720501415 189.007229525 385.312572215 c 0
EndSplineSet
EndChar
StartChar: V
Encoding: 86 86 49
GlifName: V_
Width: 688
Flags: HW
LayerCount: 2
Fore
SplineSet
732.816539632 663.263503817 m 0
 732.816539632 660.865196573 732.712612276 658.444247049 732.497474683 656 c 0
 729.565717491 622.695213404 733.930201893 584.875785645 715.821616356 566.767200108 c 2
 666.324141673 517.269725425 l 2
 658.272021622 509.217605375 645.725761391 504.502525317 626 504.502525317 c 0
 600.429157079 504.502525317 586.822980344 509.478562856 579.011096582 517.290446618 c 2
 529.513621899 566.787921301 l 2
 511.770689821 584.530853382 520.260238398 612.228110725 501.502525317 632 c 1
 553.603940925 681.42893375 l 1
 600.497474683 632 l 2
 608.769423842 623.280810078 612.297350293 613.490268829 614.65610261 603.868310956 c 0
 618.149903139 603.623978529 621.922865068 603.497474683 626 603.497474683 c 0
 627.598743802 603.497474683 629.150326444 603.528447397 630.656177606 603.589659162 c 0
 632.595555854 622.379729853 633.821590266 643.610322064 633.821590266 663.263503817 c 0
 633.821590266 684.935704193 625.335136383 704.758991316 613.736229561 723.216866747 c 1
 570.052360914 721.157001044 533.945397344 708.042596086 504.019375097 686.658009707 c 1
 421.479528966 575.066890161 409.04526749 377.298429966 399.608472776 227.205047798 c 0
 395.672801457 164.607710744 392.258496496 110.302769836 384.497474683 74 c 0
 380.956063982 57.4351570983 376.898443588 47.385293548 372.429312089 42.9161620488 c 2
 322.931837406 -6.58131263421 l 2
 321.077997821 -8.43515221897 319.153350682 -9.32873098924 317.165368866 -9.32873098924 c 0
 314.67396876 -9.32873098924 312.083096002 -7.92528732496 309.407459521 -5.24965084444 c 2
 259.909984838 44.2478238386 l 2
 210.399327888 93.7584807883 131.864944014 578.877391005 117.502525317 668 c 0
 114.187088089 692.373164255 106.223484657 719.436162508 94.629441443 743.76818805 c 1
 86.6091574266 742.59436522 79.0583986567 740.212300579 72.0046869036 736.872089548 c 1
 59.8745625712 715.056171879 55.7310276513 696.822943404 53.7153379302 674.235534794 c 1
 -44.4974746831 683 l 1
 -42.1692972795 709.089081957 -28.2039662914 743.313010659 -4.67343760118 766.84353935 c 2
 44.8240370819 816.341014033 l 2
 60.9653250865 832.482302037 81.6075917498 843.591726954 106.082031306 843.591726954 c 0
 107.377320135 843.591726954 108.684864367 843.56213146 110.001521619 843.498996303 c 2
 160.006316435 793.494201487 l 2
 189.807172151 763.693345771 210.573127844 711.55234881 216.497474683 668 c 0
 225.830071201 610.088768961 262.258041684 384.975741101 300.211985169 220.822002438 c 1
 310.65570359 386.658916858 323.31522199 608.850631764 428.480520446 714.01593022 c 2
 477.977995129 763.513404903 l 2
 514.745909067 800.281318841 562.805705718 822.497474683 626 822.497474683 c 1
 675.497474683 773 l 1
 699.575000369 741.945111297 732.816539632 705.735669365 732.816539632 663.263503817 c 0
EndSplineSet
EndChar
StartChar: W
Encoding: 87 87 50
GlifName: W_
Width: 775
Flags: HW
LayerCount: 2
Fore
SplineSet
138.502525317 98 m 0
 138.502525317 289.359003568 193.444997629 472.191070683 212.589801518 653.309432979 c 1
 210.458391929 653.375278933 208.262045476 653.759199024 206 654.502525317 c 0
 188.618984928 654.502525317 175.841762208 661.986834774 165.423181994 672.405414989 c 2
 115.925707311 721.902889672 l 2
 111.765045089 726.063552164 107.980540443 730.692173814 104.429203044 735.498969071 c 0
 104.286574257 735.498969071 104.143508022 735.502525317 104 735.502525317 c 0
 85.3466927993 735.502525318 74.8099164222 733.696121645 67.3714084561 730.093554729 c 0
 63.1612152658 724.23921256 59.3449446904 718.267853748 54.4974746831 713 c 2
 9.10704737484 663.673210505 l 1
 -44.4974746831 713 l 1
 -35.8242799841 722.425354079 -30.9083998974 732.890892388 -21.5125214778 742.286770808 c 2
 1.35097422756 765.150266513 l 2
 3.58391839568 767.724002213 5.60679653151 770.048367364 7.68125720454 772.122828037 c 2
 57.1787318876 821.62030272 l 2
 65.7509550162 830.192525848 75.2039820301 834.497474683 104 834.497474683 c 0
 112.335703303 834.497474683 119.180865642 830.487893387 125.415859102 824.252899927 c 2
 174.913333785 774.755425244 l 2
 179.998811121 769.669947908 184.67836748 763.103992773 189.429700865 756.025666445 c 0
 194.458522044 754.404156449 199.950399318 753.497474683 206 753.497474683 c 0
 206.511212208 753.32948625 207.019068904 753.179854125 207.523578887 753.048101232 c 0
 210.029001449 758.937223517 215.33824343 772.73857782 217.329654248 774.729988638 c 2
 266.827128931 824.227463321 l 2
 267.086355596 824.486689985 267.322358559 824.622166633 267.535354059 824.622166633 c 0
 267.67515031 824.622166633 267.805035529 824.56380672 267.925070851 824.443771397 c 2
 317.422545535 774.946296714 l 2
 318.168328219 774.20051403 318.533888159 771.07395552 318.533888159 764.771454356 c 0
 318.533888159 763.621622325 318.521720654 762.366080411 318.497474683 761 c 0
 314.505167448 535.976932076 237.497474683 324.639012127 237.497474683 98 c 0
 237.497474683 78.9730928672 238.706345781 63.375755847 241.582677584 50.6210901019 c 1
 257.900199224 46.7840014338 278.710077106 45.4974746831 305 45.4974746831 c 0
 327.716345 45.4974756518 343.547448855 48.9524952771 355.588229689 54.6620900461 c 1
 364.042453687 64.0840895589 373.4476679 72.8329938259 382.399721758 81.785047683 c 1
 399.502525317 173 l 1
 498.497474683 173 l 1
 501.497474683 38 l 2
 501.901147036 36.582587073 502.302620362 35.1473004017 502.705949034 33.7008314771 c 0
 505.609555323 34.3473937931 508.70232003 35.2709396331 512 36.4974746831 c 0
 548.960667428 38.6634701794 579.275210921 48.7888555016 604.084190252 64.989666393 c 1
 650.683361415 133.759709151 661.682661461 237.943561578 661.682661461 336.906286696 c 0
 661.682661461 389.700353821 658.635881275 439.579268701 656.046961503 484.309350579 c 1
 645.807359853 483.349185006 635.155542278 481.245281357 624.613187964 481.245281357 c 0
 588.585123282 481.245281357 554.023005099 494.784417962 529.95579168 518.851631381 c 2
 480.458316997 568.349106064 l 2
 461.365829154 587.441593908 448.878023568 613.159639934 447.502525317 644 c 0
 447.502525317 677.441218189 464.975718419 729.626135394 496.489940418 761.140357393 c 2
 545.987415101 810.637832076 l 2
 562.128552726 826.778969702 581.953134033 837.497474683 605 837.497474683 c 0
 612.617292188 837.497474683 619.853772638 833.623123217 626.688538339 826.788357516 c 2
 676.186013022 777.290882833 l 2
 704.824233058 748.652662797 726.409637022 668.039111708 739.404509251 602.683392184 c 1
 770 630.497474683 l 1
 819.273504209 576.296620053 l 1
 753.170443477 516.202928478 l 1
 758.568451074 458.916672692 760.677610792 402.283398601 760.677610792 336.906287671 c 0
 760.677610792 223.467780748 746.225117918 103.168991351 680.26812306 37.2119964931 c 2
 630.770648377 -12.28547819 l 2
 602.003039891 -41.0530866762 563.437576783 -59.4830939378 512 -62.4974746831 c 1
 504.615692771 -65.2439848717 498.25887366 -66.471243591 492.752624287 -66.471243591 c 0
 483.822690287 -66.471243591 477.129904067 -63.2433376452 471.919607819 -58.0330413979 c 2
 422.422133136 -8.53556671487 l 2
 418.343770375 -4.45720395359 415.17372711 0.835766522859 412.550076847 6.74600760856 c 1
 376.254141021 -29.5499282175 l 2
 362.239742224 -43.5643270143 343.517372285 -53.4974746831 305 -53.4974746831 c 0
 255.807905407 -53.4974746831 225.80232731 -48.9931381919 208.512761482 -31.7035723645 c 2
 159.015286799 17.7939023186 l 2
 143.89852539 32.910663728 138.502525317 57.8010994919 138.502525317 98 c 0
624.613187964 580.240230723 m 0
 631.182057334 580.240230723 637.799659071 580.690311385 644.411268055 581.608722944 c 1
 635.494285269 630.85541979 620.894832643 694.831276297 601.416168967 738.415606533 c 1
 591.115064875 737.914403165 581.481943255 735.264625248 572.559847092 730.960571141 c 1
 555.616245437 702.098159708 546.497474683 668.158173727 546.497474683 644 c 0
 547.282555315 626.397528058 551.687670251 610.463742194 558.874691299 596.478149082 c 1
 578.533775952 585.926017889 601.265668393 580.240230723 624.613187964 580.240230723 c 0
EndSplineSet
EndChar
StartChar: X
Encoding: 88 88 51
GlifName: X_
Width: 796
Flags: HW
LayerCount: 2
Fore
SplineSet
90.4696969053 663.621744792 m 0
 90.4696969053 616.383012445 93.3998320009 575.363709168 105.497474683 533 c 0
 105.122474683 531.200195312 104.934974683 529.550292969 104.934974683 528.050292969 c 0
 104.934974683 526.550292969 105.122474683 525.200195312 105.497474683 524 c 1
 15.3072938 495.820155037 l 1
 6.50252531694 524 l 2
 6.12752531694 525.200195312 5.94002531694 526.550292969 5.94002531694 528.050292969 c 0
 5.94002531694 529.550292969 6.12752531694 531.200195312 6.50252531694 533 c 0
 -5.58397308219 575.324683948 -8.52525246084 616.429242669 -8.52525246084 663.621744792 c 0
 -8.52525246084 673.070932968 -8.49747468306 682.379922143 -8.49747468306 692 c 0
 -5.02294544736 705.212875249 3.01568929467 717.249332253 13.4919456149 727.725588574 c 2
 62.9894202979 777.223063257 l 2
 95.6468623387 809.880505296 142.741728863 825.497474683 203 825.497474683 c 0
 242.279387979 825.497474683 262.506600939 817.357103959 275.164227761 804.699477137 c 2
 324.661702444 755.202002454 l 2
 345.358375846 734.505329052 347.695269271 705.655992306 367.856197098 681.641277585 c 1
 381.497474683 668 l 1
 383.644492298 652.970876696 l 1
 397.642116652 686.257536932 416.063472292 716.468165152 440.121754585 740.526447445 c 2
 489.619229268 790.023922128 l 2
 524.218221731 824.622914591 570.475643812 846.497474683 632 846.497474683 c 0
 640.066150568 846.497474683 650.037755541 848.303521972 659.034924414 848.303521972 c 0
 666.79353043 848.303521972 673.962614837 847.276396133 677.566043083 843.672967888 c 2
 727.063517766 794.175493205 l 2
 728.608035662 792.630975308 729.497474683 790.613141645 729.497474683 788 c 0
 729.497474683 776.761398393 730.454071905 764.54354106 730.454071905 753.248914931 c 0
 730.454071905 747.548719618 730.2149226 742.053059896 729.497474683 737 c 0
 714.943454879 634.512554837 668.308090198 557.154916572 604.695373687 493.542200062 c 2
 555.197899004 444.044725379 l 2
 521.38245211 410.229278485 482.769534556 380.297880145 441.627994047 352.540348792 c 1
 447.237451824 271.44320728 475.444636238 188.742824274 524.330762632 126.815280896 c 1
 569.238795137 91.9408732702 618.456798248 74.7579841931 687.657235688 74.7579841931 c 0
 705.85292812 74.7579841931 722.698166532 76.1558888168 737.281739318 80.3545777837 c 1
 738.708917828 85.5604888857 739.790677 91.235567497 740.501614169 97.4189229554 c 1
 724.983331102 100.005303467 709.465048035 102.591683978 693.946764968 105.178064489 c 1
 710 201.497474683 l 1
 746 195.497474683 l 1
 757.900665896 187.828013109 783.66118557 173.372949717 789.911584764 167.122550523 c 2
 839.409059447 117.62507584 l 2
 840.111108088 116.923027199 840.497474683 116.36923615 840.497474683 116 c 0
 840.497474683 83.6814757103 832.464927429 62.4541487384 818.734460566 48.7236818754 c 2
 769.236985883 -0.77379280765 l 2
 750.597460769 -19.4133179216 721.457304692 -24.236965173 687.657235688 -24.236965173 c 0
 604.603802428 -24.236965173 547.319970291 1.82916748384 498.49148488 50.6576528947 c 2
 448.994010197 100.155127578 l 2
 398.413307753 150.735830022 365.005021246 221.670949676 350.252392011 295.663534971 c 1
 341.63495164 290.619005048 332.982154068 285.611591299 324.311518754 280.628088141 c 1
 276.497474683 185 l 1
 264.807249556 171.051571926 251.91768206 147.363901803 237.467419315 120.808080038 c 0
 215.978517364 81.3170714505 191.038217208 35.4832913012 161.458161761 5.9032358544 c 2
 111.960687078 -43.5942388287 l 2
 93.2613627071 -62.2935631993 72.7078709468 -74.4974746831 50 -74.4974746831 c 0
 45.9179012155 -74.4974746831 41.9423636235 -72.2767394321 38.1519519413 -68.4863277499 c 2
 -11.3455227418 -18.9888530668 l 2
 -30.2155945157 -0.118781292926 -44.4974746831 57.654414501 -44.4974746831 74 c 0
 -38.1024617093 100.996330112 -23.4951956985 128.229220255 -1.66991305907 150.054502894 c 2
 47.827561624 199.551977577 l 2
 49.5090173675 201.233433321 51.2333150391 202.882792667 53 204.497474683 c 0
 108.542709296 253.36870458 175.497758347 294.314041411 244.762653762 334.194640466 c 1
 288.502525317 455 l 1
 294.502525317 584 l 1
 282.600485297 667.31428014 l 1
 275.337770761 674.576994676 l 2
 259.753341832 690.161423605 252.453340628 706.644457326 245.676597202 721.839443003 c 1
 234.641846908 724.836327872 220.770753898 726.502525317 203 726.502525317 c 0
 161.208386353 726.502525317 122.803443837 718.09313495 93.7965910459 701.391472398 c 0
 92.4491126283 698.333682913 91.33932493 695.201372484 90.4974746831 692 c 0
 90.4974746831 682.375700958 90.4696969053 673.075073051 90.4696969053 663.621744792 c 0
529.132306368 518.521581203 m 1
 580.66407776 577.252599625 617.800797955 647.556148471 630.502525317 737 c 0
 630.975468082 740.330984823 631.240567784 743.854299921 631.366329656 747.501750885 c 1
 584.516735024 747.387167604 546.542753568 734.563506324 515.842887255 713.091704019 c 1
 464.420078085 642.024608157 446.586563683 538.255430052 442.492037805 452.118826537 c 1
 473.094468215 472.806366527 502.286615591 494.705399363 529.132306368 518.521581203 c 1
77.5264987137 126.022195373 m 1
 66.4790921706 109.652994025 58.7081490657 91.7752189238 54.4974746831 74 c 1
 54.4974746831 65.504144732 58.3557981304 45.8164072821 64.7112857912 26.2165930716 c 1
 72.5584124676 28.0564270469 80.1342832511 31.3180380774 87.4529534788 35.7341626457 c 0
 106.453075342 61.9647668574 123.320722794 92.9631125103 138.472469949 120.808080038 c 0
 152.922732694 147.363901803 165.81230019 171.051571926 177.502525317 185 c 1
 184.917053829 199.829057024 l 1
 146.987973924 176.618125391 110.644102572 152.428163299 77.5264987137 126.022195373 c 1
EndSplineSet
EndChar
StartChar: Y
Encoding: 89 89 52
GlifName: Y_
Width: 599
Flags: HW
LayerCount: 2
Fore
SplineSet
426.584562494 57.4493102077 m 0
 453.390062683 57.4493102077 480.408495309 57.3915737732 507.502525317 63.7652966583 c 1
 507.502525317 80 l 1
 501.502525317 161 l 1
 483.77514527 282.13709699 l 1
 453.954191527 258.324969237 417.215725768 243.63489056 378.992441385 243.63489056 c 0
 369.39325734 243.63489056 359.700427983 244.561372069 350 246.502525317 c 1
 322.926024674 246.502525317 309.496103678 253.886371144 296.43778839 266.944686433 c 2
 246.940313707 316.442161116 l 2
 238.952550928 324.429923895 230.670703357 334.856615526 222.502525317 344 c 0
 170.866752075 401.798265786 160.90436083 475.842545652 160.90436083 552.988761224 c 0
 160.90436083 574.182573046 161.656247679 595.610495797 162.502525317 617 c 0
 162.45007019 621.709658119 162.42678003 626.313831031 162.42678003 630.810447649 c 0
 162.42678003 650.742348487 162.884392859 668.560947423 163.287957764 684.085865052 c 1
 150.798285531 673.213249367 135.272903987 658.435782971 116 639.502525317 c 1
 81.6882271962 639.502525317 47.0251232906 646.453645312 25.7792335049 667.699535097 c 2
 -23.7182411782 717.197009781 l 2
 -36.5580453589 730.036813961 -44.4974746831 748.097503032 -44.4974746831 773 c 2
 -44.4974746831 779 l 1
 54.4974746831 779 l 1
 54.4974746831 773 l 2
 54.4974746831 763.427534153 55.6706182037 754.866025426 57.8442891558 747.223406568 c 1
 75.4783847496 740.906647454 95.8000758961 738.497474683 116 738.497474683 c 1
 163.425931586 785.08761921 188.159398521 806.513098907 200.806901766 806.513098907 c 0
 203.298611642 806.513098907 205.321220221 805.681496185 206.955832976 804.04688343 c 2
 256.453307659 754.549408747 l 2
 261.571724741 749.430991665 262.885895509 736.439170357 262.885895509 716.451788843 c 0
 262.885895509 688.312366497 261.421729394 662.540475324 261.421729394 630.810447805 c 0
 261.421729394 626.313831138 261.445019555 621.709658174 261.497474683 617 c 0
 260.651197045 595.610495797 259.899310196 574.182573046 259.899310196 552.988761224 c 0
 259.899310196 479.576778306 268.920592017 408.97370296 314.288572528 352.505810788 c 1
 323.360713426 347.942134288 334.421705243 345.497474683 350 345.497474683 c 0
 359.700427983 343.556321435 369.39325734 342.629839927 378.992441385 342.629839927 c 0
 411.320996058 342.629839927 442.587390637 353.138339145 469.504698137 370.786528516 c 1
 461.92187109 407.608916237 452.705116378 442.797376293 444.502525317 479 c 1
 436.354087817 490.51953125 433.702720629 518.723632812 432.502525317 533 c 0
 430.728749138 554.08545204 428.238303399 576.179491039 428.238303399 598.125946669 c 0
 428.238303399 619.741803522 430.646104583 641.309907158 438.502525317 662 c 1
 437.915899936 666.019175102 437.616446182 670.292804331 437.616446182 674.693052961 c 0
 437.616446182 694.514356435 443.692753773 716.904932866 456.96800387 730.180182963 c 2
 506.465478553 779.677657646 l 2
 513.644209564 786.856388657 522.92806923 791.369598357 534.494580069 791.369598357 c 0
 538.692830695 791.369598357 543.191807705 790.775008499 548 789.497474683 c 0
 556.975705318 789.497474683 566.516142017 791.20488239 575.141429786 791.20488239 c 0
 580.954245504 791.20488239 585.825739121 790.287663579 589.004707702 787.108694999 c 2
 638.502182385 737.611220316 l 2
 641.038534372 735.074868329 642.497474683 731.098752939 642.497474683 725 c 0
 642.497474683 705.781198598 644.4649226 685.276208483 644.4649226 665.988498264 c 0
 644.4649226 656.281792534 643.97306062 646.847981771 642.497474683 638 c 0
 628.732449908 555.466795798 631.28671078 475.926669938 591.497474683 410 c 0
 585.784351901 395.400771298 578.098363369 381.53640785 568.820479437 368.797370527 c 1
 580.291690346 300.443792845 595.294246784 231.243576639 600.497474683 161 c 2
 606.497474683 80 l 1
 606.497474683 47 l 1
 604.046433085 42.1382220717 600.903279353 37.8958349938 597.199807485 34.1923631257 c 2
 547.702332802 -15.3051115574 l 2
 520.897539291 -42.1099050686 467.159096085 -41.5456391584 426.584562494 -41.5456391584 c 0
 384.730148315 -41.5456391584 349.045349849 -28.4504642104 324.657610385 -4.06272474561 c 2
 275.160135702 45.4347499374 l 2
 253.287993558 67.3068920815 240.502525317 98.262093037 240.502525317 137 c 0
 240.502525317 147.14967203 248.10756222 165.39043047 258.94367478 176.22654303 c 2
 308.441149463 225.724017713 l 2
 313.699794721 230.982662972 319.719375508 234.497474683 326 234.497474683 c 0
 330.597908906 234.497474683 335.095561114 231.894289757 339.268085429 227.721765442 c 2
 388.765560112 178.224290759 l 2
 401.691646751 165.29820412 411.497474683 137.311136922 411.497474683 125 c 0
 411.497474683 115.808729755 407.526674185 110.763998341 405.497474683 104 c 1
 368.685284151 67.1878094681 l 1
 385.982517722 60.772284208 405.500752834 57.4493102077 426.584562494 57.4493102077 c 0
530.938624316 539.450884503 m 1
 535.299643091 572.436715465 538.118311215 605.716989312 543.502525317 638 c 0
 544.978111254 646.847981771 545.469973233 656.281792534 545.469973233 665.988498264 c 0
 545.469973233 674.28588611 545.110569729 682.782678283 544.698984383 691.283413218 c 0
 542.447692388 691.749112794 540.267956363 692.06053723 538.158822201 692.227617045 c 0
 537.118190666 686.356105866 536.611395548 680.417434163 536.611395548 674.693052961 c 0
 536.611395548 670.292804331 536.910849302 666.019175102 537.497474683 662 c 1
 529.641053949 641.309907158 527.233252765 619.741803522 527.233252765 598.125946669 c 0
 527.233252765 578.410520724 529.249044549 558.515330788 530.938624316 539.450884503 c 1
EndSplineSet
EndChar
StartChar: Z
Encoding: 90 90 53
GlifName: Z_
Width: 340
Flags: HW
LayerCount: 2
Fore
SplineSet
20 825.497474683 m 0
 69.2465541303 825.497474683 117.664552861 801.497474683 167 801.497474683 c 0
 169.662339367 800.849311865 172.598887564 800.551072983 175.763077313 800.551072983 c 0
 195.642354205 800.551072983 224.506829354 812.322805638 250.808814671 823.049483946 c 0
 272.821580844 832.026899854 293.039471516 840.272315807 304.693037809 840.272315807 c 0
 308.266899367 840.272315807 311.035288168 839.496836315 312.80295471 837.729169773 c 2
 362.300429393 788.23169509 l 2
 363.746257846 786.785866637 364.522592729 784.676254757 364.522592729 781.784276204 c 0
 364.522592729 775.27313427 360.587334011 764.796158339 351.497474683 749 c 1
 342.302162183 724.763671875 334.739662183 703.252929688 327.497474683 680 c 0
 307.768053901 616.653898957 187.01935591 506.850992306 170.272447407 443.377286685 c 1
 217.885437769 395.764296324 l 2
 220.901481799 392.748252293 223.82935968 389.630921448 226.671797376 386.421239706 c 1
 248.254955529 409.30622742 269.958011518 432.101342521 293 453.497474683 c 2
 335 492.497474683 l 1
 384.361865163 439.338542969 l 1
 311.985332755 372.131762875 l 1
 266.987308083 325.133825995 l 1
 283.613776803 291.633079738 295.235984293 255.125916697 303.497474683 221 c 0
 303.497297978 220.85951801 303.497210024 220.718829233 303.497210024 220.577934746 c 0
 303.497210024 185.658926455 307.787653578 145.356746237 307.787653578 108.721355111 c 0
 307.787653578 63.594992046 302.212004204 20.5058958857 278.348465498 -3.35764282116 c 2
 228.850990815 -52.8551175042 l 2
 216.773282708 -64.932825611 200.011077731 -72.0858503888 176.916323034 -72.0858503888 c 0
 167.662846 -72.0858503888 157.392741581 -70.9375039578 146 -68.4974746831 c 1
 139.672617137 -70.3504206467 134.012193285 -71.2069719042 128.948458065 -71.2069719042 c 0
 118.596371247 -71.2069719042 110.738084301 -67.6271024398 104.773193965 -61.6622121042 c 2
 55.275719282 -12.1647374211 l 2
 37.0621987324 6.04878312845 36.5019199243 46.499245348 36.5019199243 75.170340386 c 0
 36.5019199243 151.154165238 79.5909688001 205.349470204 108.502525317 263 c 1
 167.992358717 325.133825995 l 1
 160.509708555 340.210651283 152.013495247 354.678556871 142.353906428 368.046446415 c 0
 134.997950642 373.110265541 127.22171349 377.623155515 119 381.502525317 c 1
 69.5025253169 431 l 1
 69.5025253169 461.699792903 108.709567137 510.562695123 148.545280664 560.209097518 c 0
 183.1600031 603.348689776 218.249404976 647.079864923 228.502525317 680 c 0
 232.798569296 693.793568391 237.2073257 706.97409115 242.002760218 720.474152372 c 1
 218.231470848 710.867777244 193.443546843 701.556123616 175.763077313 701.556123616 c 0
 172.598887564 701.556123616 169.662339367 701.854362499 167 702.502525317 c 0
 132.409953921 702.502525317 96.6773680315 714.532594968 64.7612824555 721.175612659 c 1
 65.4060809989 717.439093011 65.9937732203 713.714398591 66.4974746831 710 c 1
 -30.7098820909 696.81792312 l 1
 -34.3968178074 724.00614838 -40.5653964617 749.369849419 -44.4974746831 776 c 1
 54.4384188795 776 l 1
 5.0516256899 825.38679319 l 1
 5.32016698509 825.118251894 6.61150869183 825.025252461 8.34049479167 825.025252461 c 0
 11.7114939907 825.025252461 16.7719497628 825.497474683 20 825.497474683 c 0
198.175153191 245.118891224 m 1
 170.105918006 193.04067014 135.49686929 143.69226311 135.49686929 75.170340386 c 0
 135.49686929 61.1380321929 135.631075888 44.2841488082 137.903369741 28.5965666273 c 1
 140.472997125 29.0391922916 143.169777641 29.6686566377 146 30.4974746831 c 0
 157.392741581 28.0574454083 167.662846 26.9090989774 176.916323034 26.9090989774 c 0
 184.920238892 26.9090989774 192.163553684 27.7682471107 198.714869701 29.3937858379 c 1
 206.529358788 52.0456795512 208.792704212 79.9700194211 208.792704212 108.721355111 c 0
 208.792704212 145.356746237 204.502260658 185.658926455 204.502260658 220.577934746 c 0
 204.502260658 220.718829233 204.502348612 220.85951801 204.502525317 221 c 0
 202.581916684 228.933498555 200.479676091 236.995693211 198.175153191 245.118891224 c 1
EndSplineSet
EndChar
StartChar: bracketleft
Encoding: 91 91 58
GlifName: bracketleft
Width: 300
Flags: HW
LayerCount: 2
Fore
SplineSet
148.497474683 768.502525317 m 1
 148.497474683 -152.502525317 l 1
 201 -152.502525317 l 1
 201 -251.497474683 l 1
 99 -251.497474683 l 1
 49.5025253169 -202 l 1
 49.5025253169 818 l 1
 99 867.497474683 l 1
 201 867.497474683 l 1
 201 768.502525317 l 1
 148.497474683 768.502525317 l 1
EndSplineSet
EndChar
StartChar: backslash
Encoding: 92 92 60
GlifName: backslash
Width: 512
Flags: HW
LayerCount: 2
Fore
SplineSet
420.997474683 107 m 1
 336.48595665 72.0140489865 l 1
 91.0025253169 665 l 1
 175.51404335 699.985951013 l 1
 420.997474683 107 l 1
EndSplineSet
EndChar
StartChar: bracketright
Encoding: 93 93 59
GlifName: bracketright
Width: 300
Flags: HW
LayerCount: 2
Fore
SplineSet
151.502525317 768.502525317 m 1
 99 768.502525317 l 1
 99 867.497474683 l 1
 201 867.497474683 l 1
 250.497474683 818 l 1
 250.497474683 -202 l 1
 201 -251.497474683 l 1
 99 -251.497474683 l 1
 99 -152.502525317 l 1
 151.502525317 -152.502525317 l 1
 151.502525317 768.502525317 l 1
EndSplineSet
EndChar
StartChar: asciicircum
Encoding: 94 94 62
GlifName: asciicircum
Width: 349
Flags: HW
LayerCount: 2
Fore
SplineSet
-133.502525317 239 m 1
 -183 189.502525317 l 1
 -232.497474683 239 l 1
 -183 288.497474683 l 1
 -133.502525317 239 l 1
383.838888831 739.963636336 m 1
 339 669.502525317 l 1
 174 774.502525317 l 1
 10 669.502525317 l 1
 -34.9537994274 739.716078708 l 1
 174 873.497474683 l 1
 383.838888831 739.963636336 l 1
EndSplineSet
EndChar
StartChar: underscore
Encoding: 95 95 61
GlifName: underscore
Width: 512
Flags: HW
LayerCount: 2
Fore
SplineSet
-16.5937333029 -250.485389232 m 1
 -15.5 -151.502525317 l 1
 528.593733303 -157.514610768 l 1
 527.5 -256.497474683 l 1
 -16.5937333029 -250.485389232 l 1
EndSplineSet
EndChar
StartChar: grave
Encoding: 96 96 63
GlifName: grave
Width: 223
Flags: HW
LayerCount: 2
Fore
SplineSet
0.502525316942 549 m 1
 55.6706351033 598.171576114 l 1
 222.497474683 411 l 1
 167.329364897 361.828423886 l 1
 0.502525316942 549 l 1
EndSplineSet
EndChar
StartChar: a
Encoding: 97 97 64
GlifName: a
Width: 510
Flags: HW
LayerCount: 2
Fore
SplineSet
108.303630754 183.229434605 m 0
 108.303630754 154.729589343 112.043317755 126.46354248 120.065846555 100.126728004 c 1
 171.305017035 119.741818587 222.215471986 145.736588335 263.871705561 179.236134863 c 1
 292.71573145 216.134685304 310.530143507 259.702807685 310.530143507 310.795754385 c 0
 310.530143507 322.779527966 309.550119347 335.177264669 307.502525317 348 c 0
 308.253157091 352.410469294 308.610495612 356.537338913 308.610495612 360.39781515 c 0
 308.610495612 363.584516732 279.596044406 364.422456003 276 364.502525317 c 1
 256.263002783 374.900493396 237.197767601 379.624896306 219.10837125 379.624896306 c 0
 198.009102612 379.624896306 178.23742635 373.197522145 160.275860181 361.848931509 c 1
 127.779466231 314.524749129 108.303630754 248.26829504 108.303630754 183.229434605 c 0
280.286019026 73.7550679149 m 1
 277.948166759 78.6556838205 275.968959018 83.7581959011 274.348081693 88.9991796523 c 1
 263.395510601 79.4749043796 251.692214739 70.5202641351 239.421309122 62.112176662 c 1
 253.455492212 64.7973767571 267.210116857 68.710053587 280.286019026 73.7550679149 c 1
429.083864206 143.428446779 m 0
 429.083864206 115.795945366 418.284453364 91.4534286738 400.535845172 71.3185824899 c 1
 404.853335489 70.7780592471 409.341353015 70.4974746831 414 70.4974746831 c 0
 420.3187024 70.4974746831 427.067958857 65.0143063095 434.483443492 58.9898870136 c 0
 443.523252264 51.6458493581 453.553123068 43.4974746831 465 43.4974746831 c 2
 471 43.4974746831 l 1
 510 61.4974746831 l 1
 547.666370978 -20.11299577 l 1
 522.110913986 -31.9078220743 496.555456993 -43.7026483787 471 -55.4974746831 c 1
 465 -55.4974746831 l 2
 453.553123068 -55.4974746831 443.523252264 -47.349100008 434.483443492 -40.0050623525 c 0
 427.067958857 -33.9806430567 420.3187024 -28.4974746831 414 -28.4974746831 c 0
 386.112171579 -28.4974746831 364.338883337 -18.4426716852 348.658201036 -2.76198938401 c 2
 337.497428554 8.39878309752 l 1
 301.41434018 -23.0480875353 247.106455519 -41.1711404707 194.709294283 -41.1711404707 c 0
 173.000913836 -41.1711404707 151.620505684 -38.0603504986 132 -31.4974746831 c 0
 131.226016281 -31.5441442328 130.465446258 -31.5670511538 129.717940753 -31.5670511538 c 0
 119.704757575 -31.5670511538 112.035851398 -27.4566685358 105.871917651 -21.2927347892 c 2
 93.169722122 -8.59053925974 l 1
 60.867256891 -19.603838019 29.0582825654 -28.144639942 -1.7763568394e-14 -34.4974746831 c 1
 -20.6554066407 59.9817093551 l 1
 -2.71410456969 63.904106587 13.7595977825 67.4235142239 31.6399979617 72.0396274095 c 1
 16.2905929245 105.78304415 9.30868140467 144.287991107 9.30868140467 183.229434401 c 0
 9.30868140467 262.675142709 38.3683820374 343.937610344 84.7223635833 390.29159189 c 2
 134.219838266 439.789066573 l 2
 158.374809223 463.94403753 187.225924782 478.619846017 219.108370432 478.619846017 c 0
 237.197766957 478.619846017 256.263002394 473.895443011 276 463.497474683 c 1
 301.811853492 462.922749465 329.734752052 458.197203811 345.459057685 442.472898177 c 2
 394.956532368 392.975423494 l 2
 402.79767344 385.134282422 407.605444979 374.558128908 407.605444979 360.39781515 c 0
 407.605444979 356.537338913 407.248106457 352.410469294 406.497474683 348 c 1
 408.545068712 335.177264676 409.525092872 322.779527978 409.525092872 310.795754403 c 0
 409.525092872 285.669276191 405.216724441 262.362656835 397.406941885 240.774176356 c 1
 419.814294246 218.366823995 l 2
 424.133362896 214.047755345 425.690917052 188.633886743 426.6365898 173.203795362 c 0
 427.389232855 160.923277454 429.083864206 154.430992546 429.083864206 143.428446779 c 0
EndSplineSet
EndChar
StartChar: b
Encoding: 98 98 65
GlifName: b
Width: 522
Flags: HW
LayerCount: 2
Fore
SplineSet
529.497474683 227 m 0
 529.497474683 222.227457704 529.53182533 217.421049896 529.53182533 212.639414084 c 0
 529.53182533 197.769868238 529.201931799 182.978145557 526.497474683 170 c 0
 518.089741648 129.646671542 498.973338191 78.0122196997 467.192948942 46.2318304513 c 2
 417.695474259 -3.26564423174 l 2
 400.344547442 -20.6165710484 379.218791074 -32.0494793654 354 -32.4974746831 c 0
 298.319505916 -32.4974746831 249.400240298 -14.5325085383 198 -8.49747468306 c 0
 183.929277305 -6.84541198608 172.677924598 -0.412361143433 163.264994083 9.00056937212 c 2
 113.56368924 58.701874215 l 1
 77.7661057147 21.6164062463 41.5258414766 -16.3045395935 -1.7763568394e-14 -47.4974746831 c 1
 -47.5382532172 15.7882007911 l 1
 -20.7560520572 35.9061666802 6.77821544175 55.364069217 31.7733479936 77.3521542233 c 0
 46.7750055221 94.3664995805 60.7774736785 112.302257873 73.7361274283 131.018516347 c 1
 66.2943277374 148.79548399 58.8505970476 165.953643918 49.5025253169 179 c 1
 44.1111047802 196.786373118 39.5569450068 214.772999489 34.5025253169 233 c 1
 19.5025253169 341 l 1
 13.5025253169 527 l 1
 20.1217417587 588.380783558 25.9890397885 650.513485528 31.5025253169 713 c 1
 40.2455958751 736.018832377 46.5926603405 759.338123308 61.5025253169 779 c 0
 69.2701442773 789.243984091 74.3252432848 804.030099503 83.4864905133 813.191346732 c 2
 132.983965196 862.688821415 l 2
 136.861347224 866.566203443 141.40739904 869.446223249 147 870.497474683 c 0
 159.9584568 870.497474683 169.87499943 865.735824376 177.592696821 858.018126985 c 2
 227.090171504 808.520652302 l 2
 249.685431682 785.925392124 252.12930194 743.981559592 259.497474683 710 c 0
 271.56319578 654.355657638 283.644472414 593.650580642 283.644472414 535.052629846 c 0
 283.644472414 531.359451717 283.596482665 527.674643602 283.497474683 524 c 0
 284.10564078 512.883309747 284.407206025 501.750385738 284.407206025 490.617127991 c 0
 284.407206025 455.393064065 281.388535725 420.16565943 275.510674118 385.438471823 c 1
 299.603177017 409.530974723 l 2
 305.97511697 415.902914675 312.704242204 420.497474683 318 420.497474683 c 0
 363.879772146 420.497474683 393.629817239 413.468064864 420.861554768 386.236327336 c 2
 460.815484399 346.282397705 l 1
 469.502525317 368 l 1
 470.730099913 382.730895155 471.957674509 397.46179031 473.185249106 412.192685465 c 1
 571.497474683 404 l 1
 568.497474683 368 l 1
 538.497474683 293 l 1
 516.73840031 271.240925627 l 1
 524.174669055 257.209158249 529.474978477 242.510111762 529.497474683 227 c 0
185.412256659 490.617127991 m 0
 185.412256659 505.444178644 184.649523048 520.193072724 184.649523048 535.052629846 c 0
 184.649523048 593.650580642 172.568246414 654.355657638 160.502525317 710 c 0
 156.792815115 727.108955327 154.652486828 744.835634419 150.195718433 762.495753103 c 1
 141.864954823 746.460255021 136.877568659 729.797567034 130.497474683 713 c 1
 124.983989155 650.513485528 119.116691125 588.380783558 112.497474683 527 c 1
 118.497474683 341 l 1
 132.836413869 237.759637858 l 1
 167.092191526 317.046652079 185.412256659 403.842027278 185.412256659 490.617127991 c 0
430.508112125 223.343615256 m 1
 409.94631177 218.385383699 395.064011573 210.319548321 373.04845601 210.319548321 c 0
 359.072896435 210.319548321 345.46675402 212.906366843 333 216.502525317 c 0
 320.68439388 216.811672768 311.478977286 221.552185658 304.216305744 228.814857201 c 2
 254.71883106 278.312331884 l 2
 252.946180657 280.084982312 251.289266414 282.00788667 249.731113112 284.053284074 c 1
 231.073545166 229.623832884 205.173447639 177.875219876 172.731076799 131.018516263 c 1
 178.244932274 117.84702166 183.720829633 104.42508533 189.98440031 92.0221945954 c 0
 192.551303591 91.3366688873 195.220650147 90.823801931 198 90.4974746831 c 0
 249.400240298 84.4624408278 298.319505916 66.4974746831 354 66.4974746831 c 0
 367.672486638 66.7403574617 380.14190046 70.2120548477 391.458949516 76.105124364 c 1
 409.628426614 105.395610028 421.39285246 140.67632446 427.502525317 170 c 0
 430.206982433 182.978145557 430.536875963 197.769868238 430.536875963 212.639414084 c 0
 430.536875963 216.209709023 430.508112125 219.78076318 430.508112125 223.343615256 c 1
373.04845601 309.314497682 m 0
 377.935384961 309.314497682 382.867483975 309.63079798 387.811831906 310.330845775 c 1
 371.436777614 317.548758021 352.928173647 320.570707587 330.306565579 321.312379351 c 1
 330.67539752 320.356011712 331.918793133 315.524615235 333 315.497474683 c 0
 345.466754019 311.901316205 359.072896435 309.314497682 373.04845601 309.314497682 c 0
EndSplineSet
EndChar
StartChar: c
Encoding: 99 99 66
GlifName: c
Width: 495
Flags: HW
LayerCount: 2
Fore
SplineSet
201.281071753 277.55939312 m 0
 201.281071753 265.204350622 201.674911421 252.462898877 202.221917647 239.446526164 c 1
 230.694091544 250.264532815 257.451048142 261.88994895 280.209098811 276.867984668 c 0
 284.508499174 283.969794709 288.229656591 291.610052672 291.304636532 299.864472781 c 1
 253.54040329 337.628706023 l 2
 245.434369495 345.734739818 244.502525317 361.13559409 244.502525317 374 c 0
 244.502525317 377.243349188 244.557628971 380.715916338 244.82456717 384.223391701 c 1
 234.758705967 381.350861939 225.747657143 377.872072075 217.68601114 373.835851535 c 1
 204.698661651 346.996745046 201.281071753 313.954624858 201.281071753 277.55939312 c 0
348 57.4974746831 m 1
 495 144.497474683 l 1
 538.390445111 71.1825846682 l 1
 348 -41.4974746831 l 1
 330.400818425 -41.4974746831 315.711452107 -39.5004046959 300 -38.4974746831 c 1
 300 -38.4974746831 296.871111111 -38.6396969053 291.808 -38.6396969053 c 0
 277.884444444 -38.6396969053 249.333333333 -37.5641413497 231 -29.4974746831 c 0
 219.444444444 -24.2011783868 207.193415638 -13.5729204992 197.595488493 -3.97499335399 c 2
 148.09801381 45.5224813291 l 2
 137.761784576 55.8587105624 130.502525317 65 130.502525317 65 c 1
 117.395776645 109.235276766 l 1
 75.0756347127 92.6590197366 33.7323450094 72.745908917 -1.7763568394e-14 42.1021346919 c 1
 -49.2701324796 96.3381793533 l 1
 1.06581410364e-14 141.097084058 l 2
 30.4093065683 168.722080914 67.0038812926 187.626474306 104.92344215 203.227131749 c 1
 103.778741874 227.76896378 102.286122387 254.02600094 102.286122387 277.55939312 c 0
 102.286122387 328.318235414 108.933561768 372.555052998 138.917427034 402.538918264 c 2
 188.414901717 452.036392947 l 2
 204.266035237 467.887526467 226.639153145 479.755293682 258 486.497474683 c 1
 282.974337958 486.497474683 302.581574192 487.983437648 324.695039134 487.983437648 c 0
 345.955995971 487.983437648 360.044785739 485.667553634 370.458861626 475.253477747 c 2
 419.956336309 425.756003064 l 2
 427.063295415 418.649043958 440.686058725 396.343245488 440.686058725 374.044937151 c 0
 440.686058725 366.075472267 437.562366885 359.767190547 432.504740588 354.70956425 c 2
 395.741410298 317.94623396 l 1
 389.152386321 289.877948594 376.028912563 268.093200498 358.336786642 250.401074577 c 2
 308.839311959 200.903599894 l 2
 282.655610449 174.719898383 246.465226136 157.500234947 206.640395189 142.142643292 c 1
 227.673801442 71.1548971883 l 1
 244.876793883 61.9224104593 276.985628111 60.3552524608 291.808 60.3552524608 c 0
 296.871111111 60.3552524608 300 60.4974746831 300 60.4974746831 c 1
 315.722458028 59.4938421147 330.395231461 57.4974746831 348 57.4974746831 c 1
EndSplineSet
EndChar
StartChar: d
Encoding: 100 100 67
GlifName: d
Width: 618
Flags: HW
LayerCount: 2
Fore
SplineSet
307.777934922 253.415138661 m 0
 307.777934922 284.21982716 300.057979628 322.406817952 291.890192977 344.849382211 c 1
 278.282630364 349.227034202 261.328723116 351.502525317 240 351.502525317 c 0
 218.360325717 351.502525317 200.525234899 348.081625392 185.826293174 341.857579721 c 1
 167.360030799 301.868315694 166.497474683 246.425172888 166.497474683 191 c 0
 167.951025678 185.201472663 169.604738883 178.975502908 171.460266066 172.436581163 c 1
 218.736884758 177.778914021 263.936052333 184.644603422 297.916998428 201.993356195 c 1
 304.282426152 216.202304212 307.777934922 233.138499062 307.777934922 253.415138661 c 0
254.20354005 44.7872935921 m 0
 257.413609069 44.7872935921 260.679026053 45.0191917929 264 45.4974746831 c 0
 302.129772083 50.9888984448 334.285414264 63.9089455567 360.979336883 82.7397942419 c 1
 368.493544752 93.2131979422 375.217193381 104.434104735 381.181634094 116.309649464 c 1
 375.339853072 130.739748811 369.845652271 145.825975157 364.731997703 161.084725609 c 1
 328.031065497 124.383793403 l 2
 300.667096895 97.0198248016 256.727196262 85.3084659598 207.630475429 78.0567987569 c 1
 212.148442503 69.3051883275 216.985585319 60.8419509923 222.145019942 52.8830731432 c 1
 232.141987612 47.7009428488 242.825058337 44.7872935921 254.20354005 44.7872935921 c 0
254.20354005 -54.2076557741 m 0
 232.520132033 -54.2076557741 213.362111362 -43.6267286596 196.66506366 -26.9296809576 c 2
 147.167588977 22.5677937254 l 2
 134.970647286 34.7647354167 124.086901025 50.2252893908 114.491241937 67.2091063452 c 1
 73.1220014188 62.3715213921 32.9428407164 55.9780222267 -1.7763568394e-14 42.1021346919 c 1
 -35.41455793 126.180081995 l 1
 1.06581410364e-14 141.097084058 l 2
 22.5372713695 150.590031116 48.4614112645 156.580940438 75.8364156539 160.967467017 c 1
 72.5606956189 171.736677887 69.784863634 181.895261899 67.5025253169 191 c 0
 67.5025253169 262.263113933 68.9284705216 333.555935058 107.364667603 371.992132139 c 2
 156.862142286 421.489606822 l 2
 175.040956875 439.668421412 201.498665768 450.497474683 240 450.497474683 c 0
 272.011393142 450.497474683 294.168181399 445.371758187 309.947417722 435.706319634 c 1
 304.502525317 629 l 1
 319.502525317 770 l 1
 369 819.497474683 l 1
 372.45836237 818.03992183 375.662467471 815.712701519 378.616932515 812.758236475 c 2
 428.114407198 763.260761792 l 2
 443.270349349 748.104819641 451.856940918 716.442750237 454.497474683 701 c 0
 476.505997135 572.278757643 513.974119735 439.607762267 517.497474683 299 c 0
 517.497474683 230.894990831 505.894995209 167.51648742 480.17658346 116.309649464 c 1
 489.062454448 94.3601788048 498.752526262 73.9287976183 509.130779508 56.7174805229 c 0
 513.359220218 55.2614465512 517.650594352 54.4974746831 522 54.4974746831 c 0
 533.098287224 54.4974746831 542.867825672 56.9892646033 552.697033539 60.1644138951 c 1
 564.624276003 83.886244487 576.551518466 107.608075079 588.47876093 131.329905671 c 1
 667.497474683 91.599609375 l 1
 631.497474683 20 l 1
 582 -29.4974746831 l 1
 562.623222308 -34.4241271727 544.140481295 -44.4974746831 522 -44.4974746831 c 0
 508.880081211 -44.4974746831 496.288201871 -37.5459537943 484.358907448 -25.6166593714 c 2
 434.861432765 23.8808153117 l 2
 430.2353033 28.5069447769 425.708817018 33.8816593529 421.28982046 39.8898523307 c 1
 387.509510296 6.10954216621 l 2
 356.488346958 -24.9116211712 315.745402993 -46.0451363382 264 -53.4974746831 c 0
 260.679026053 -53.9757575733 257.413609069 -54.2076557741 254.20354005 -54.2076557741 c 0
EndSplineSet
EndChar
StartChar: e
Encoding: 101 101 68
GlifName: e
Width: 540
Flags: HW
LayerCount: 2
Fore
SplineSet
183.729937081 181.75652741 m 1
 232.226985217 199.088128166 278.507440519 222.279547605 316.750380985 252.582586891 c 1
 339.671509025 282.214609744 355.814000152 316.660334428 362.312618964 356.535935472 c 1
 337.229667441 361.769770385 309.935057253 363.886695524 297.768133974 363.954749255 c 0
 297.768133974 363.979499455 297.73157951 363.991727826 297.65998701 363.991727826 c 0
 295.094279374 363.991727826 247.527897296 348.286368683 224.758570553 330.382902413 c 1
 204.381007608 304.553454585 190.497474683 277.48544832 190.497474683 257 c 0
 188.42125526 232.080115107 185.052027561 206.910781649 183.729937081 181.75652741 c 1
91.5025253169 257 m 0
 91.5025253169 284.6374313 116.772476383 324.256028924 149.166754377 356.650306918 c 2
 198.66422906 406.147781601 l 2
 230.279622972 437.763175513 268.680869541 462.497474683 297 462.497474683 c 0
 317.468920776 462.497474683 387.014365095 457.585351045 407.973307068 436.626409073 c 2
 457.470781751 387.12893439 l 2
 461.29138213 383.308334011 463.497474683 378.954505008 463.497474683 374 c 0
 458.177105898 314.054761488 431.821469489 265.654514484 393.101509245 226.93455424 c 2
 343.604034562 177.437079557 l 2
 301.641848633 135.474893628 245.157985686 104.882031217 185.189062778 83.2850445493 c 1
 186.925602832 75.9673929186 189.391613512 69.0949924152 192.49761984 62.6697808898 c 1
 216.283257586 50.0107825709 244.772022923 43.6313893374 273.356470634 43.6313893374 c 0
 282.274979926 43.6313893374 291.20280366 44.2524074982 300 45.4974746831 c 0
 398.855927705 59.4882528871 431.724164243 86.4429512857 497.537319659 131.84871208 c 1
 523.946764968 168.821935511 l 1
 589.497474683 122 l 1
 574.497474683 101 l 1
 525 51.5025253169 l 1
 509.113165535 40.9189556845 495.320562578 31.3380804568 482.810452867 22.6480746182 c 0
 422.42363534 -19.2989433552 391.919332005 -40.4884117305 300 -53.4974746831 c 0
 291.20280366 -54.742541868 282.274979926 -55.3635600288 273.356470634 -55.3635600288 c 0
 231.548002012 -55.3635600288 189.94422538 -41.7162114913 162.961763841 -14.7337499518 c 2
 113.464289158 34.7637247313 l 2
 106.641643517 41.5863703724 100.753819895 49.2616039773 96.0338834157 57.7843778164 c 1
 62.8527734705 50.4809862837 30.241704187 45.5160182887 -1.7763568394e-14 42.5025253169 c 1
 -9.76755571409 140.524167745 l 1
 21.5390930016 143.64377917 51.3518089018 147.548099803 84.2677666565 154.281402328 c 1
 84.2078805147 156.773710573 84.1795119123 159.261755544 84.1795119123 161.746365289 c 0
 84.1795119123 193.693976985 88.9234803093 226.044936186 91.5025253169 257 c 0
EndSplineSet
EndChar
StartChar: f
Encoding: 102 102 69
GlifName: f
Width: 397
Flags: HW
LayerCount: 2
Fore
SplineSet
248.234420012 571.426193259 m 0
 248.234420012 547.430913546 251.280189444 523.72246849 251.280189444 499.744572001 c 0
 251.280189444 419.334548577 237.840196311 339.398552305 206.580096985 268.220415829 c 1
 249.34291959 225.457593224 l 2
 266.082077392 208.718435422 277.524880629 189.381240893 285.250383769 167.934878741 c 1
 327 157.497474683 l 1
 404.562086361 144.987460754 l 1
 389 48.5025253169 l 1
 327 58.5025253169 l 1
 293.645680342 66.8411052314 l 1
 292.81977224 49.177561328 290.018736284 32.182780546 280.497474683 18 c 0
 275.544186227 7.15126283707 269.70093132 -5.06638423346 261.248024391 -13.5192911624 c 2
 211.750549708 -63.0167658455 l 2
 205.709284492 -69.0580310615 198.335031303 -73.1762991551 189 -73.4974746831 c 0
 183.615824844 -73.4974746831 179.081860222 -71.129771347 175.22884675 -67.2767578746 c 2
 125.731372067 -17.7792831915 l 2
 112.763660206 -4.81157133084 109.098788031 19.8544779232 103.502525317 38 c 0
 96.4848518113 60.7543551887 91.3482966521 84.435810106 87.7152994474 108.680848199 c 1
 72.2963543506 93.2619031027 l 2
 50.4087270515 71.3742758036 25.39579398 51.6254505923 -3 34.5025253169 c 1
 -46.7767570729 107.099687015 l 1
 -3 133.497474683 l 2
 14.784176101 144.22149894 31.2414370141 155.975523039 46.4350528506 168.639886506 c 0
 58.9178435536 183.611482375 70.1660586593 199.379737239 80.2467711755 215.817798449 c 0
 80.2428639688 216.955811781 80.2409279372 218.093907708 80.2409279372 219.232052408 c 0
 80.2409279372 222.035032251 80.2526703521 224.838307915 80.2756302374 227.641374194 c 0
 79.769733626 230.906081594 79.5025253169 234.35152388 79.5025253169 238 c 0
 79.5025253169 239.600385353 79.3870168971 241.103891688 79.3870168971 242.611915785 c 0
 79.3870168971 244.461759958 79.6327711774 245.783114355 80.6000011773 246.750344355 c 0
 81.0356649607 263.867370493 81.7328075335 281.185993065 81.7328075335 299.028197769 c 0
 81.7328075335 340.320988912 80.3355944634 381.911114781 80.3355944634 423.236947106 c 0
 80.3355944634 473.459153425 82.3932287752 523.380243185 91.5025253169 572 c 0
 91.5044456188 572.367115899 91.5053679891 572.734738868 91.5053679891 573.102837605 c 0
 91.5053679891 582.13309033 90.9556020874 591.403521599 90.9556020874 600.458186522 c 0
 90.9556020874 609.27143926 91.4714526577 617.923377728 93.5025253169 626 c 0
 96.0902603949 653.852684625 99.2790054109 686.090329735 117.502525317 708 c 1
 167 757.497474683 l 1
 175.06087048 757.497474683 181.302569411 754.719517336 186.109925675 749.912161071 c 2
 235.607400359 700.414686388 l 2
 247.837360471 688.184726275 250.784277151 662.820527932 250.784277151 636.646948763 c 0
 250.784277151 614.865037825 248.234420012 591.520534983 248.234420012 571.426193259 c 0
194.997649519 89.090753031 m 0
 194.997649519 94.883144105 195.000090861 100.652015233 195.163477926 106.324116711 c 0
 192.206104239 108.872609671 189.125195331 111.314836665 185.980930019 113.697848718 c 1
 188.212258204 97.8656329541 191.069719774 82.2616340139 194.657467227 66.9861304815 c 1
 194.657467227 74.2915040558 194.997649519 81.7102211797 194.997649519 89.090753031 c 0
EndSplineSet
EndChar
StartChar: g
Encoding: 103 103 70
GlifName: g
Width: 417
Flags: HW
LayerCount: 2
Fore
SplineSet
-1 42.5025253169 m 1
 -45.5088656313 113.655504617 l 1
 -1.47986169655 141.197303137 l 1
 9.8201520408 152.497316875 l 2
 15.5720151863 158.887982278 20.9951407684 165.619061075 25.5025253169 172 c 1
 31.4690236291 189.899494937 37.4355219413 207.798989873 43.4020202536 225.69848481 c 1
 132.497474683 196 l 1
 124.497474683 172 l 1
 113.061747675 155.810860863 97.3838145153 140.619337325 83.2330051303 126.46852794 c 0
 76.5410997022 118.990015262 70.1257147027 110.937023415 63.1378497089 103.949158421 c 2
 13.6403750259 54.4516837377 l 2
 9.14616169988 49.9574704117 4.37733523097 45.8662508222 -1 42.5025253169 c 1
216.722724764 57.6422270898 m 0
 190.488648596 57.6422270898 158.058270962 51.555469298 138.792285007 51.555469298 c 0
 118.543816571 51.555469298 104.643809903 55.1214257799 95.2388969006 64.526338782 c 2
 45.7414222175 114.023813465 l 2
 31.3844991448 128.380736538 27.5025253169 156.344222172 27.5025253169 206 c 0
 27.4718473943 207.3341715 27.4565809994 208.677967037 27.4565809994 210.030750441 c 0
 27.4565809994 265.814653217 53.4161662122 336.881884173 95.1586240979 378.624342059 c 2
 144.656098781 428.121816742 l 2
 166.036296375 449.502014336 191.557000241 463.189099953 219.850769376 463.189099953 c 0
 240.291686959 463.189099953 262.179973504 456.04528581 285 439.497474683 c 0
 285.458096239 439.165288827 285.934566754 438.749233727 286.42718345 438.256617031 c 2
 335.924658133 388.759142348 l 2
 347.642873031 377.04092745 368.497474683 322 368.497474683 322 c 1
 374.497474683 192 l 1
 373.9833962 143.162544132 l 1
 380.497474683 140 l 1
 378.580163104 136.050800375 376.347055428 132.559289651 373.839303769 129.473763184 c 1
 373.593894644 106.159896323 l 1
 389.870512853 134.643978188 l 1
 464.497474683 92 l 1
 456.497474683 78 l 1
 456.497474683 78 437.929706842 57.6817783941 436.497474683 54 c 0
 432.367804628 43.3840325464 426.578799042 34.7516874314 419.508224176 27.6811125649 c 2
 370.010749493 -21.8163621182 l 2
 369.343561991 -22.4835496205 368.664963364 -23.136831082 367.975271009 -23.7765609402 c 0
 362.563802967 -53.93217136 357.593831733 -84.5292785884 352.497474683 -115 c 1
 334.497474683 -167 l 1
 331.340633337 -172.104181544 327.72688744 -176.887110093 323.647200483 -180.96679705 c 2
 274.1497258 -230.464271733 l 2
 266.357849056 -238.256148476 256.866314674 -243.482743795 245.612165323 -243.482743795 c 0
 242.848079412 -243.482743795 239.977668552 -243.167463664 237 -242.497474683 c 0
 233.647689498 -242.848573804 230.247407098 -243.02607591 226.836988758 -243.02607591 c 0
 206.787775593 -243.02607591 186.388259856 -236.891523715 173.325740997 -223.829004856 c 2
 123.828266314 -174.331530172 l 2
 118.081286488 -168.584550347 113.754488056 -161.496562815 111.502525317 -153 c 0
 101.026133057 -135.956368227 93.0189496428 -117.54730306 93.0189496428 -96.1458512843 c 0
 93.0189496428 -69.7181951654 98.187257281 -50.8376927104 111.086284897 -37.9386650945 c 2
 160.58375958 11.5588095885 l 2
 184.575924733 35.5509747409 230.266279107 38.0241183818 273.937355183 43.3088372664 c 1
 274.091104208 57.9149946473 l 1
 267.093803003 57.2695444312 259.879031951 57.0670040526 252.638102918 57.0670040526 c 0
 240.725545313 57.0670040526 228.470542272 57.6422270898 216.722724764 57.6422270898 c 0
226.836988758 -144.031126544 m 0
 230.247407098 -144.031126544 233.647689498 -143.853624438 237 -143.502525317 c 0
 239.163148167 -143.989243503 241.269692184 -144.28876772 243.319989646 -144.416214161 c 1
 253.502525317 -115 l 1
 263.178848487 -56.9420609787 l 1
 238.792772411 -59.7174863439 214.406178412 -62.230578289 194.207317263 -68.6030959439 c 1
 193.086638185 -74.1574283506 192.497474683 -80.2685060261 192.497474683 -87 c 0
 192.170063058 -90.1099317642 192.013899009 -93.1570717731 192.013899009 -96.1458512842 c 0
 192.013899009 -112.714996278 196.813371466 -127.490517177 203.84238488 -141.227411726 c 1
 211.262477863 -143.111895511 219.075978828 -144.031126544 226.836988758 -144.031126544 c 0
138.792285007 150.550418664 m 0
 158.049189289 150.550418664 190.517669278 156.637176456 216.722724764 156.637176456 c 0
 228.470542272 156.637176456 240.725545313 156.061953419 252.638102918 156.061953419 c 0
 260.239404016 156.061953419 267.81187864 156.285155843 275.134205681 157.009634586 c 1
 275.502525317 192 l 1
 269.502525317 322 l 1
 269.502525317 322 262.74790135 339.82727735 254.766929146 357.350341477 c 1
 242.74833351 362.0378204 231.081110439 364.194150523 219.850769565 364.194150523 c 0
 202.272704757 364.194150523 185.764977083 358.911261406 170.655492572 349.7828102 c 1
 142.89656068 308.511375752 126.451530366 254.430176902 126.451530366 210.030750442 c 0
 126.451530366 208.677967037 126.46679676 207.334171501 126.497474683 206 c 0
 126.497474683 183.35597348 127.30474751 165.222950594 129.544513439 150.834151278 c 1
 132.4693445 150.641883788 135.549397209 150.550418664 138.792285007 150.550418664 c 0
EndSplineSet
EndChar
StartChar: h
Encoding: 104 104 71
GlifName: h
Width: 597
Flags: HW
LayerCount: 2
Fore
SplineSet
416.797333908 129.704073762 m 0
 416.797333908 157.073433843 418.669354846 184.272702848 418.669354846 209.291781097 c 0
 418.669354846 223.379301082 417.956235974 236.31977713 417.812101489 251.114740913 c 0
 417.441501544 289.155654917 417.038387242 330.534104275 403.240501081 363.012497776 c 0
 402.829666026 363.177879985 402.416171579 363.341227857 402 363.502525317 c 0
 393.378288904 363.502524046 384.377675116 359.814171053 375.479472246 353.994948013 c 0
 372.627079424 350.452782816 370.174351787 347.352986937 367.497474683 344 c 0
 343.941618551 314.494792793 340.574316899 275.992312408 322.497474683 242 c 1
 319.740308595 228.185414846 309.328333507 215.809447587 309.328333507 200.059310306 c 0
 309.328333507 197.164507336 309.680581868 194.154948727 310.497474683 191 c 1
 292.497474683 98 l 1
 283.497474683 -4 l 1
 184.502525317 -4 l 1
 178.502525317 104 l 1
 170.628886163 172.238205998 l 1
 168.214754837 169.67829343 165.76620806 167.155917961 163.282955064 164.672664965 c 2
 113.785480381 115.175190282 l 2
 81.8160206432 83.2057305444 44.0943347439 57.7204492667 -1.7763568394e-14 42.1021346919 c 1
 -31.1554930026 130.061736926 l 1
 1.06581410364e-14 141.097084058 l 2
 32.8664621093 152.738461205 62.1924597092 169.861648117 88.2349122557 191.065815717 c 1
 115.831314561 224.500612936 138.365582856 263.005202509 156.372406297 303.664245821 c 1
 148.093383753 364.45376833 143.187501419 428.61643105 136.502525317 491 c 2
 118.502525317 641 l 1
 112.502525317 758 l 1
 118.502525317 821 l 1
 121.502525317 827 l 1
 171 876.497474683 l 1
 178.437269445 876.497474683 184.073061189 873.776386826 188.487476152 869.361971863 c 2
 237.984950835 819.86449718 l 2
 252.065116866 805.784331149 252.119045769 775.465722242 262.497474683 758 c 1
 271.257631921 699.760157238 280.084823233 641.58734855 289.497474683 584 c 1
 292.497474683 413 l 1
 287.332626586 392.278229312 281.188528851 371.46302566 274.001873931 350.89956603 c 1
 282.098241004 361.029158815 292.210806598 373.394955029 303.233425877 384.417574308 c 2
 352.73090056 433.915048991 l 2
 368.374899656 449.559048087 385.852027474 462.497474683 402 462.497474683 c 1
 414.552558003 457.632424245 424.669608604 450.90202198 432.828339047 442.743291536 c 2
 482.32581373 393.245816853 l 2
 515.747994483 359.8236361 516.30710826 302.432318106 516.807050855 251.114740913 c 0
 516.950923696 236.346634077 517.664304212 223.346704131 517.664304212 209.291781097 c 0
 517.664304212 184.343823116 515.792283274 157.013326414 515.792283274 129.704073762 c 0
 515.792283274 102.620559929 517.252766814 74.6066530052 522.753733529 51.7422748512 c 0
 522.964665136 51.7709344792 523.172963239 51.8019165031 523.378862903 51.8351167809 c 2
 535.502525317 68 l 1
 546.281631911 89.198558753 557.060738505 110.397117506 567.8398451 131.595676259 c 1
 646.497474683 91.599609375 l 1
 634.497474683 68 l 1
 589.497474683 8 l 1
 540 -41.4974746831 l 1
 532.716713765 -43.6821331412 527.799737181 -47.4974746831 519 -47.4974746831 c 0
 507.832003003 -47.4974746831 498.964907421 -43.4505101515 491.943564155 -36.4291668851 c 2
 442.446089471 13.0683077979 l 2
 421.059488169 34.4549091003 416.797333908 83.4370825187 416.797333908 129.704073762 c 0
EndSplineSet
EndChar
StartChar: i
Encoding: 105 105 72
GlifName: i
Width: 289
Flags: HW
LayerCount: 2
Fore
SplineSet
155 480.502525317 m 0
 153.320292805 480.502525317 145 482.502525317 145 482.502525317 c 1
 95.5025253169 532 l 1
 96.6755265529 537.295791139 98.2944309129 543.495687116 101.502525317 548 c 2
 134.819060855 594.777956437 l 1
 143.849065983 588.346540666 l 1
 153 597.497474683 l 1
 208.497474683 542 l 1
 207.645657572 538.592788348 207.420036293 532.446434723 205.409138334 530.435536764 c 2
 155.911663651 480.938062081 l 2
 155.633165739 480.659564169 155.330091273 480.502525317 155 480.502525317 c 0
139 465.497474683 m 0
 141.997713526 465.497474683 144.410314134 464.370420588 146.345090457 462.435644265 c 2
 195.84256514 412.938169582 l 2
 201.862510317 406.918224406 203.256603177 393.078660489 203.256603177 381.03842584 c 0
 203.256603177 374.184377187 202.804834447 367.913417883 202.497474683 364 c 0
 197.886173189 305.287208496 190.067612867 223.104950759 157.898122907 165.196851482 c 1
 170.497474683 104 l 2
 172.364789477 92.2707491082 176.758760702 81.5748136997 182.892429719 71.6515504829 c 1
 195.370912036 63.5494518568 210.379263377 56.0921860043 223.453328377 53.0017845773 c 1
 229.281004934 65.5232454744 234.158115456 78.9952724064 239.502525317 92 c 2
 253.157001092 126.136189437 l 1
 338.497474683 92 l 1
 329.320520551 67.843620799 318.922115299 44.9086927172 308.497474683 22 c 1
 304.299916973 17.8024422904 300.414625984 13.2080791091 296.204516813 8.99796993739 c 2
 246.70704213 -40.4995047457 l 2
 242.80700525 -44.3995416254 238.789041691 -47.4974746831 235 -47.4974746831 c 0
 207.285368891 -47.4974746831 172.078800664 -21.4267878723 154.581524695 -3.92951190026 c 2
 105.084050012 45.5679627828 l 2
 95.0214773655 55.6305354289 86.2982236882 66.3993130853 80.1303804736 78.277069237 c 1
 61.3310254464 60.3712545817 37.4566211396 48.6453162702 7 46.5025253169 c 1
 3 46.5025253169 l 1
 3 145.497474683 l 1
 7 145.497474683 l 1
 25.438692315 146.794738232 41.4648754824 151.604409777 55.412980592 159.171324574 c 0
 56.6071935397 161.148338941 57.7702833962 163.157542961 58.9031735413 165.196851482 c 1
 57.5025253169 172 l 1
 53.5025253169 248 l 1
 57.5025253169 342 l 1
 65.5025253169 396 l 1
 70.3968580544 400.894332738 69.5892684214 407.930019787 74.0435489171 412.384300283 c 2
 123.5410236 461.881774966 l 2
 125.764038161 464.104789526 129.97991757 465.497474683 139 465.497474683 c 0
EndSplineSet
EndChar
StartChar: j
Encoding: 106 106 73
GlifName: j
Width: 227
Flags: HW
LayerCount: 2
Fore
SplineSet
206.497474683 500 m 2
 206.497474683 504 l 1
 168.037490263 561.689976631 l 1
 155.056493955 553.035979092 l 1
 147 569.497474683 l 1
 145.767545355 568.89429356 144.790436743 568.192475639 144.011885901 567.413924797 c 2
 94.5144112181 517.916450114 l 2
 89.7827380777 513.184776974 92.6013320393 505.817524819 89.5025253169 500 c 0
 89.5025253169 499.421122668 89.8295885092 498.847783023 90.3790022292 498.298369303 c 2
 139.876476912 448.80089462 l 2
 142.248681712 446.42868982 148.766067756 444.502525317 151 444.502525317 c 0
 152.207381134 444.502525317 153.873181566 445.33567518 155.143268835 446.605762449 c 2
 204.640743518 496.103237132 l 2
 205.709106968 497.171600582 206.497474683 498.549128905 206.497474683 500 c 2
179.232030834 503.639120363 m 1
 174.629938371 513.042382527 l 1
 181.632615684 506.039705214 l 1
 179.232030834 503.639120363 l 1
73.7984750352 294.428377595 m 0
 73.7984750352 310.907543279 76.0496220907 327.79980723 76.0496220907 344.278343497 c 0
 76.0496220907 355.056370292 74.5593592042 366.224002846 74.5593592042 376.930900372 c 0
 74.5593592042 389.668066075 76.7185144879 401.549298219 86.2346825512 411.065466283 c 2
 135.732157234 460.562940966 l 2
 136.737314773 461.568098505 137.824553867 462.546869229 139 463.497474683 c 0
 140.512628529 463.497474683 145.615069141 460.201586392 148.657887955 457.158767578 c 2
 198.155362638 407.661292895 l 2
 199.539512948 406.277142585 200.497474683 404.945358841 200.497474683 404 c 0
 200.497474683 389.358946281 198.339857176 375.154127268 198.339857176 360.537142733 c 0
 198.339857176 352.169871677 198.964174564 343.821024312 198.964174564 335.443853652 c 0
 198.964174564 295.335900388 192.376824773 255.101957364 177.961049296 219.063261699 c 1
 183.041229403 179.216101765 191.250136543 139.290910293 199.037668326 100 c 1
 274.497474683 100 l 1
 276.497474683 92 l 1
 274.497474683 91.5 l 1
 274.497474683 86 l 2
 274.497474683 77.790999685 261.812163512 57.3835774031 256.497474683 48 c 0
 245.410760274 28.4253746274 230.821880358 10.4326006009 217.179829313 -7.51111905552 c 1
 223.143120542 -55.8761399036 228.497474683 -105.102361311 228.497474683 -154 c 0
 228.497474683 -162.530227363 223.64057191 -202.010048668 212.553420478 -213.0972001 c 2
 163.055945795 -262.594674783 l 2
 161.211776078 -264.4388445 159.195234174 -265.497474683 157 -265.497474683 c 0
 142.958395803 -263.448756243 129.532813016 -257.824929203 120.744001358 -249.036117545 c 2
 71.2465266751 -199.538642862 l 2
 64.9025424429 -193.19465863 60.9744614378 -185.201618117 60.9744614378 -175.713766281 c 0
 60.9744614378 -171.440976195 61.7711118069 -166.865024848 63.5025253169 -162 c 1
 63.2804484955 -158.909528266 63.1748750358 -155.810080634 63.1748750358 -152.708553699 c 0
 63.1748750358 -130.390104161 68.6416560983 -107.963984646 75.5025253169 -88 c 0
 82.2664866057 -56.9164760419 99.6684364045 -31.8662450451 118.184879947 -7.51111905552 c 1
 113.14505885 33.3641364085 105.443172417 72.8490355905 97.5365742992 112.614041147 c 1
 81.1507924198 96.2282592679 l 2
 59.9837192573 75.0611861054 33.4638262471 58.4665525437 1 48.5025253169 c 1
 -26.7683355781 138.974620672 l 1
 1 147.497474683 l 2
 21.0064179158 153.637985917 38.7554115129 162.296710456 54.3853310508 172.99193404 c 1
 64.2687021377 187.215642602 72.4236203065 202.707399857 78.9660999301 219.063261699 c 1
 75.7893598199 243.980502543 73.7984750352 269.055208942 73.7984750352 294.428377595 c 0
EndSplineSet
EndChar
StartChar: k
Encoding: 107 107 74
GlifName: k
Width: 423
Flags: HW
LayerCount: 2
Fore
SplineSet
168.488745584 670.480691923 m 0
 168.488745584 648.09766316 170.452492093 625.776320857 170.452492093 603.506018053 c 0
 170.452492093 564.316185997 168.412741398 525.324667117 164.374925368 486.653927666 c 1
 171.63281979 448.530277712 177.617075079 412.271602382 178.408640434 380.896999258 c 1
 203.898805614 406.387164438 l 2
 229.921296041 432.409654865 261.471404432 451.497474683 289 451.497474683 c 1
 305.235634246 447.054325749 318.152601611 439.260123676 328.261783276 429.150942011 c 2
 377.759257959 379.653467328 l 2
 400.68978963 356.722935657 409.173902372 321.881535928 409.173902372 287.220901102 c 0
 409.173902372 281.457067127 408.939287072 275.698231932 408.497474683 270 c 1
 409.246927995 264.71637763 409.609619352 259.486730015 409.609619352 254.339066272 c 0
 409.609619352 225.270717764 398.044301222 198.816629439 379.247949604 180.020277822 c 2
 329.750474921 130.522803139 l 2
 312.124834308 112.897162525 288.14086357 102.00505704 261.372372866 102.00505704 c 0
 257.812256684 102.00505704 254.202887703 102.197717419 250.552673142 102.592821017 c 1
 259.368539311 84.0149507886 268.215799132 69.8116751518 270.762759222 63.315866363 c 1
 290.709333154 54.9528372998 314.72765309 51.4974746831 341 51.4974746831 c 0
 344.013793221 51.4974746831 346.856045032 51.7383563224 349.544060224 52.1949378561 c 0
 352.727854952 57.7117457479 355.966099899 63.0983243498 359.502525317 68 c 0
 370.768855275 90.5326599155 382.035185232 113.065319831 393.30151519 135.597979746 c 1
 472.497474683 96 l 1
 458.497474683 68 l 1
 446.715896912 51.6701001572 438.333334255 30.2412070735 424.379303387 16.2871762054 c 2
 374.881828704 -33.2102984777 l 2
 366.33302806 -41.7590991211 355.709776927 -47.4974746831 341 -47.4974746831 c 0
 299.408334545 -47.4974746831 263.465700522 -38.8376617112 240.383987649 -15.7559488385 c 2
 194.159371744 30.4686670669 l 1
 193.848829339 11.0001263432 192.829681764 1.26161649255 191.678227758 0.110162485932 c 2
 142.180753074 -49.3873121971 l 2
 142.103205208 -49.4648600635 142.025057236 -49.5034594239 141.946485202 -49.5034594239 c 0
 141.865437553 -49.5034594239 141.783938697 -49.4623894 141.702181848 -49.3806325507 c 2
 92.204707165 0.116842132394 l 2
 90.410219719 1.91132931048 88.4914407857 23.3071777883 88.4914407857 60.2523596422 c 0
 88.4914407857 85.0813427444 89.3580577579 116.93318605 91.7114273674 154.577972566 c 0
 91.2121988351 164.052711046 90.6520572574 173.999760144 90.026001516 184.429036702 c 0
 89.9172920831 184.662224864 89.8118646023 184.896965311 89.7097641015 185.13326564 c 1
 77.3458590618 154.254466471 63.5997138118 123.85110648 48.4974746831 94 c 1
 50.4974746831 88 l 1
 -38.5979797464 58.3015151902 l 1
 -42.5644780587 70.2010101268 -46.5309763709 82.1005050634 -50.4974746831 94 c 1
 11.8672766318 217.270252624 51.1068299347 349.957974051 65.3799760005 486.653927702 c 1
 53.477268178 549.17545749 36.5670460636 623.923241733 36.5670460636 685.001183492 c 0
 36.5670460636 724.008323243 43.1575036425 759.000676848 61.5025253169 786 c 1
 111 835.497474683 l 2
 111.689039936 835.497474683 112.326936699 835.186226141 112.917206103 834.595956736 c 2
 162.414680787 785.098482053 l 2
 168.077895704 779.435267136 169.356994541 748.088078506 169.356994541 719.519043925 c 0
 169.356994541 698.353668592 168.488745584 684.606681083 168.488745584 670.480691923 c 0
261.372372866 201.000006406 m 0
 275.446645056 201.000006406 288.751158808 204.011042492 300.766471405 209.428678786 c 1
 307.088732575 223.035797 310.614669986 238.288924752 310.614669986 254.339066272 c 0
 310.614669986 259.486730015 310.251978629 264.71637763 309.502525317 270 c 1
 309.944337706 275.698231932 310.178953006 281.457067127 310.178953006 287.220901102 c 0
 310.178953006 308.794333783 306.892163337 330.437795733 298.880903115 349.235651791 c 0
 295.733105487 350.468567655 292.441092477 351.560813639 289 352.502525317 c 0
 270.224837763 352.502525159 249.579041611 343.623697573 230.092054761 329.721605134 c 1
 214.02641153 307.782875522 202.818125493 284.165899827 200.497474683 264 c 0
 198.133473796 243.457398387 196.16030707 223.830103175 194.52523918 205.222704494 c 1
 204.891727876 203.591709714 215.367095453 202.879791368 224.721601976 202.879791368 c 0
 229.892848772 202.879791368 234.721564045 203.097351318 239 203.497474683 c 0
 246.615324799 201.804662177 254.096702228 201.000006406 261.372372866 201.000006406 c 0
EndSplineSet
EndChar
StartChar: l
Encoding: 108 108 75
GlifName: l
Width: 296
Flags: HW
LayerCount: 2
Fore
SplineSet
254.415841676 639.798369361 m 0
 254.415841676 617.929466026 256.279223903 596.091040206 256.279223903 573.811406788 c 0
 256.279223903 459.443021657 237.560941306 340.334227292 183.686403945 242.174619953 c 1
 191.483350916 185.439091991 205.302624489 100.674532753 224.376117608 45.6055295176 c 1
 233.794844174 62.8587638538 239.24066323 76.5574315491 246.502525317 91.599609375 c 2
 265.21374496 130.357918169 l 1
 345.497474683 91.599609375 l 1
 333.071375151 65.8602608994 320.047460452 31.0319399511 296.442590801 7.42707030013 c 2
 246.945116118 -42.0704043829 l 2
 237.109134245 -51.9063862564 226.092929064 -58.4393773329 213.929305122 -58.4976445073 c 0
 208.957611427 -58.4976445073 204.175789185 -55.9777214856 199.589878648 -51.3918109491 c 2
 150.092403965 -1.89433626601 l 2
 130.288826959 17.9092407402 114.13864396 76.2396958967 102.128272549 136.541898212 c 1
 64.2504646168 98.6640902803 l 2
 46.2722910557 80.6859167192 26.2500396142 64.2030263412 4 49.5025253169 c 1
 47.4974746831 93 l 1
 -45.4974746831 93 l 1
 -45.4974746831 99 l 1
 4 148.497474683 l 1
 16.1406929894 156.518774538 27.6181015531 165.07074925 38.4620715899 174.106755703 c 0
 56.1485289439 195.283055685 71.4774734716 218.09869728 84.6914545853 242.174619994 c 1
 75.0005786708 312.691575151 70.272609696 363.923531989 70.272609696 436.77538918 c 0
 70.272609696 529.279503909 79.3222469672 621.805709828 92.5025253169 711 c 0
 97.6522458418 751.417738386 100.730014592 793.750223494 122.502525317 825 c 1
 172 874.497474683 l 1
 177.36542953 874.497474683 181.919319006 872.338524501 185.77892164 868.478921867 c 2
 235.276396323 818.981447184 l 2
 252.478050278 801.779793229 255.888754997 750.797272037 255.888754997 706.606269153 c 0
 255.888754997 681.139090493 254.415841676 660.992564862 254.415841676 639.798369361 c 0
EndSplineSet
EndChar
StartChar: m
Encoding: 109 109 76
GlifName: m
Width: 643
Flags: HW
LayerCount: 2
Fore
SplineSet
288.464780678 170.953277192 m 0
 288.464780678 155.65550488 289.139321259 141.462563895 289.139321259 123.382762952 c 0
 289.139321259 78.9729722821 286.009118349 20.6134885752 266.26266485 0.867035075605 c 2
 216.765190167 -48.6304396075 l 2
 212.379167128 -53.0164626465 207.173365376 -55.4974746831 201 -55.4974746831 c 1
 151.502525317 -6 l 1
 143.145879948 15.965119019 141.09126313 45.1225945815 141.09126313 72.0329695279 c 0
 141.09126313 114.717602456 162.60545619 151.092316014 165.502525317 192 c 1
 172.802372879 217.091929894 175.358363544 243.634212606 184.915179747 266.73763123 c 1
 182.719083021 281.476990322 179.658515247 295.957623241 175.502525317 310 c 0
 170.83960364 324.574370042 169.545463488 340.896705769 163.612891536 354.387611397 c 1
 160.891347765 349.378712603 158.495689481 345.029734786 156.497474683 342 c 0
 115.441399534 279.749925983 83.2845113919 211.100640402 64.4974746831 140 c 0
 57.5491897285 123.720450791 56.1695358964 107.639248826 52.4974746831 90 c 1
 52.4974746831 86 l 1
 -46.4974746831 86 l 1
 -46.4974746831 90 l 1
 -42.8259426842 107.636706672 -41.4457475404 123.720479134 -34.4974746831 140 c 0
 -15.7104379743 211.100640402 16.4464501682 279.749925983 57.5025253169 342 c 0
 68.2640122058 358.316789976 77.6750571198 381.731425641 91.448302843 395.504671365 c 2
 140.945777526 445.002146048 l 2
 146.112963943 450.169332465 151.518243376 453.497474683 157 453.497474683 c 2
 167 453.497474683 l 2
 170.933681039 453.497474683 173.069663337 455.497474683 177 455.497474683 c 0
 180.653877953 453.707929062 183.868885975 451.265817075 186.748883616 448.385819434 c 2
 236.246358299 398.888344751 l 2
 243.255636559 391.879066487 248.280554186 382.276068417 252.818346075 373.174178673 c 1
 257.444828629 379.572307784 262.331024434 385.737792591 267.557106233 390.96387439 c 2
 317.054580917 440.461349073 l 2
 325.926195513 449.33296367 335.777268963 455.497474683 347 455.497474683 c 0
 355.270803009 452.909250078 362.944736859 447.864110349 369.561942581 441.246904627 c 2
 407.819121031 402.989726177 l 1
 449.270536156 444.441141301 l 2
 458.11274978 453.283354926 469.601222579 459.497474683 489 459.497474683 c 0
 493.989439144 459.497474683 498.300513436 457.154449165 502.089946659 453.365015942 c 2
 551.587421342 403.867541259 l 2
 563.940876363 391.514086239 568.745811879 365.002538924 578.497474683 350 c 1
 586.144187131 268.174974648 589.57363067 182.014958252 593.923040259 97.2014712638 c 1
 604.305983043 126.867022074 l 1
 692.497474683 96 l 1
 678.497474683 56 l 1
 656.497474683 10 l 1
 607 -39.4974746831 l 1
 595.560554904 -47.3366064508 590.802768427 -49.5068295143 575.846508312 -49.5068295143 c 0
 566.616608471 -49.5068295143 558.694719908 -47.6674748907 553.450584745 -42.4233397274 c 2
 503.953110062 7.07413495561 l 2
 500.552152875 10.4750921424 498.277420667 15.3080515788 497.502525317 22 c 0
 495.435912159 108.516061824 490.023513369 191.608223033 485.502525317 276 c 1
 479.502525317 350 l 1
 477.996844393 352.316429221 476.49976098 355.507782089 474.94961505 359.221301166 c 0
 472.857195232 358.805268716 470.882782228 358.29384585 469.013478676 357.695818638 c 2
 462.114721517 350.797061479 l 1
 457.508514292 336.14829946 452.736379978 321.665464528 448.23322697 306.913648291 c 0
 448.401279704 305.296014668 448.497474683 303.659363323 448.497474683 302 c 0
 453.739821756 286.204345937 454.931890335 269.644258724 454.931890335 252.936428668 c 0
 454.931890335 239.058412876 454.102468487 225.020444463 454.102468487 211.176119653 c 0
 454.102468487 197.054725611 454.972954422 183.201078983 458.497474683 170 c 0
 460.303157094 163.236822503 462.870019262 123.292089127 462.870019262 82.9537235587 c 0
 462.870019262 42.6807577323 460.311473546 2.01543505409 451.882501008 -6.41353748394 c 2
 402.385026324 -55.911012167 l 2
 401.347659237 -56.9483792541 400.221375042 -57.4974746831 399 -57.4974746831 c 0
 396.539836355 -56.5887246782 394.593323558 -55.253299719 392.976129281 -53.6361054423 c 2
 343.478654598 -4.13863075921 l 2
 338.044634531 1.29538930813 336.267817284 9.84879857519 331.502525317 16 c 0
 325.641837306 23.5651760047 320.609525405 37.1584018913 317.502525317 46 c 1
 319.502525317 176 l 1
 328.178080697 220.874244813 338.57142556 264.030700142 349.238277604 306.913648291 c 1
 348.164002879 317.254348377 343.762639727 327.417754587 343.502525317 338 c 0
 343.357008441 343.920069139 342.400556857 349.948455011 340.750707312 355.858996344 c 0
 340.415741213 355.789692367 340.082042608 355.715006559 339.749599519 355.635044524 c 0
 335.861323845 349.889612654 332.131525112 344.493604139 328.497474683 340 c 0
 310.010832886 317.140754727 295.06983665 293.716008695 283.910129117 266.737631258 c 1
 287.470759787 242.840043683 288.758903632 218.262327116 288.758903632 193.769661158 c 0
 288.758903632 186.127970533 288.464780678 178.589323224 288.464780678 170.953277192 c 0
EndSplineSet
EndChar
StartChar: n
Encoding: 110 110 77
GlifName: n
Width: 481
Flags: HW
LayerCount: 2
Fore
SplineSet
349 463.497474683 m 0
 356.358308097 463.497474683 363.110996944 458.825041856 369.209043935 452.726994865 c 2
 418.706518618 403.229520182 l 2
 426.610338701 395.325700099 432.846839827 385.650634856 440.497474683 378 c 1
 448.497474683 322 l 1
 443.515945444 283.648195906 436.654713397 245.758830732 432.497474683 208 c 0
 428.008850283 167.231302168 427.50668963 125.310668363 426.601350055 82.3759495928 c 1
 460.450506901 135.030193574 l 1
 530.497474683 90 l 1
 512.497474683 62 l 2
 502.009459385 45.6853095357 497.745184112 23.5740948242 484.188432359 10.0173430712 c 2
 434.690957676 -39.4801316118 l 2
 427.446844551 -46.7242447362 417.620196221 -51.4974746831 403 -51.4974746831 c 0
 386.400319104 -51.4974746831 384.959320993 -41.3992836 375 -35.4974746831 c 1
 325.502525317 14 l 1
 327.679813445 79.1560452057 326.906466559 145.718233712 333.502525317 208 c 0
 337.504417865 245.786949073 344.526461397 283.642730586 349.502525317 322 c 1
 343.450498561 364.36418729 l 1
 331.126774641 363.739734053 320.729106112 361.030178692 311.716882572 356.826184914 c 0
 307.372331605 350.482273632 303.051504339 344.100387794 298.497474683 338 c 0
 289.707386315 316.903787915 280.994238533 295.702848089 272.351924653 274.396323853 c 1
 268.497474683 126 l 1
 258.497474683 42 l 2
 258.497474683 35.3451934138 252.907592771 8.86616642771 243.433969536 -0.607456807336 c 2
 193.936494853 -50.1049314904 l 2
 191.813045636 -52.2283807075 189.494476397 -53.4974746831 187 -53.4974746831 c 1
 137.502525317 -4 l 1
 129.106908319 10.9116457442 127.278653255 29.5002270274 127.278653255 47.7624292736 c 0
 127.278653255 51.873379976 127.37129677 55.9677920116 127.502525317 60 c 0
 127.102032373 65.9383019043 126.911238148 71.8059689557 126.911238148 77.5980913746 c 0
 126.911238148 121.435569496 137.840249675 160.945725025 151.502525317 194 c 1
 159.502525317 240 l 1
 164.100901967 251.495941626 168.718737289 262.961338768 173.356975287 274.396323853 c 1
 173.502525317 280 l 1
 167.502525317 342 l 2
 166.448464983 343.617858077 165.355053075 345.767376854 164.208389974 348.301203743 c 1
 111.972786783 271.985780882 87.555570158 182.652450845 52.4974746831 92 c 2
 39.6179848074 58.6964988531 l 1
 -46.4974746831 92 l 1
 -6.23366811745 196.113263886 18.8734158644 294.529497257 87.5025253169 378 c 0
 92.7972197117 384.439698935 97.4871834177 391.495967504 103.699348433 397.708132519 c 2
 153.196823116 447.205607202 l 2
 159.003268339 453.012052426 165.610867987 457.497474683 173 457.497474683 c 0
 178.114014571 457.497474683 182.674787418 454.963381287 186.773744274 450.864424431 c 2
 236.271218957 401.366949748 l 2
 238.477745355 399.16042335 240.550445743 396.500427528 242.503581969 393.538156142 c 1
 287.239154251 438.273728424 l 2
 301.961465654 452.996039827 320.632299055 463.497474683 349 463.497474683 c 0
EndSplineSet
EndChar
StartChar: o
Encoding: 111 111 78
GlifName: o
Width: 314
Flags: HW
LayerCount: 2
Fore
SplineSet
10.3066583918 144.265976956 m 0
 4.99008922568 171.524858698 -6.14751061051 200.119253128 -6.49747468306 230 c 0
 -6.49747468306 243.675561237 -4.91651848676 256.574134807 -2.49747468306 270 c 0
 4.48957178507 308.778604932 21.3275879407 355.44553524 50.7271841006 384.8451314 c 2
 100.224658784 434.342606083 l 2
 113.740441592 447.858388891 129.911098603 457.724742252 149 461.497474683 c 1
 157.889267764 466.087449029 168.036066187 468.278426476 178.146553563 468.278426476 c 0
 194.581857816 468.278426476 210.921210941 462.488817659 221.606874336 451.803154264 c 2
 271.104349019 402.305679581 l 2
 276.939525218 396.470503382 281.088781501 389.175332681 282.647103295 380.565672629 c 1
 291.371411904 371.84136402 l 2
 307.741341161 355.471434764 319.926769129 334.307752766 325.497474683 312 c 1
 326.97898159 283.473927638 343.632516961 265.389896327 346.497474683 237 c 0
 347.792396558 224.171875 352.967201245 200.354492188 358.497474683 189 c 1
 363.497474683 91.599609375 l 1
 309.477371778 88.826514598 l 1
 302.547550845 60.1001064153 290.319081691 36.6403869827 271.16927659 17.4905818814 c 2
 221.671801907 -32.0068928017 l 2
 211.141501711 -42.5371929978 198.471360409 -50.4958098024 183 -53.4974746831 c 0
 147.099493851 -53.4974746831 119.11752366 -39.1803107235 99.8629684671 -19.9257555307 c 2
 50.365493784 29.5717191523 l 2
 43.5125211433 36.4246917931 37.5562172627 44.1635161352 32.5395732709 52.57379012 c 1
 24.382739367 49.1964709411 15.8893934154 46.4609127364 7 44.5025253169 c 1
 -1 44.5025253169 l 1
 -1 143.497474683 l 1
 7 143.497474683 l 2
 8.10833768852 143.741648215 9.21051868848 143.997903123 10.3066583918 144.265976956 c 0
109.794094476 206.35139895 m 0
 144.228187201 247.868076091 178.911311108 295.652037583 181.383910133 352.117981474 c 0
 178.004011312 358.048315583 174.494266079 363.716528291 171.008943882 368.915662357 c 1
 163.323135601 368.117489661 155.79425177 366.010737934 149 362.502525317 c 0
 141.138532406 360.948784055 133.772021328 358.361518183 126.882070289 354.911455135 c 1
 111.232286582 328.556824843 101.420056538 297.320679472 96.4974746831 270 c 0
 94.0784308794 256.574134807 92.4974746831 243.675561237 92.4974746831 230 c 0
 92.6394281825 217.879679894 94.5501071783 206.093671531 97.1393130829 194.440508498 c 1
 101.456206956 198.294707558 105.700005172 202.257309646 109.794094476 206.35139895 c 0
178.146553563 369.283477109 m 0
 176.246943012 369.283477109 174.346050652 369.206133779 172.452457889 369.050067428 c 1
 182.417340001 359.085185316 l 1
 183.345157031 362.529702678 183.920973105 365.844377503 184.176776114 369.024066886 c 0
 182.174971465 369.196458194 180.161483596 369.283477109 178.146553563 369.283477109 c 0
222.212186452 204.144963295 m 0
 222.212186452 210.040849878 221.859368282 215.889033398 221.236719797 221.694755874 c 1
 217.026116219 216.364213681 212.759186229 211.134154517 208.497474683 206 c 0
 176.625943611 174.128468928 145.319942878 141.628405809 112.96652602 110.229902564 c 1
 114.807585383 91.8899610442 119.934887849 74.3075461777 128.102295891 58.710176171 c 1
 143.209658185 51.2011862019 161.686040238 45.4974746831 183 45.4974746831 c 0
 187.247533535 46.3215568519 191.283930381 47.5192600676 195.122876479 49.0412258001 c 0
 213.395289985 81.9616333256 221.689458417 134.248665477 221.689458417 178.892849975 c 0
 221.689458417 182.595083383 221.627925403 186.298176322 221.502525317 190 c 0
 221.989503415 194.746848117 222.212186452 199.460959725 222.212186452 204.144963295 c 0
EndSplineSet
EndChar
StartChar: p
Encoding: 112 112 79
GlifName: p
Width: 323
Flags: HW
LayerCount: 2
Fore
SplineSet
273.518793554 30.8434538605 m 0
 243.239927879 30.8434538605 235.244635581 36.7333021842 206.488283793 44.0447265126 c 0
 200.435575439 42.828809255 193.985724084 42.161430419 187.112710563 42.0986468868 c 1
 188.559900237 37.6667093716 189.497474683 33.0078801675 189.497474683 28 c 0
 189.497474683 9.29492954961 194.905363975 -17.649998692 200.798244563 -47.01140681 c 0
 207.852228139 -82.1580363004 215.601152101 -120.767221661 215.601152101 -152.850575324 c 0
 215.601152101 -177.085812973 211.179582686 -197.597382924 198.696926291 -210.080039319 c 2
 149.199451608 -259.577514003 l 2
 146.012084523 -262.764881087 142.299131494 -265.428759948 138 -267.497474683 c 1
 88.5025253169 -218 l 1
 80.5025253169 -128 l 1
 71.8260544264 85.4411839061 l 1
 70.6854066519 87.2697839865 68.5025253169 90 68.5025253169 90 c 1
 67.6423631787 105.912999558 l 1
 9.80315220422 40.8438872113 l 1
 -45.4974746831 90 l 1
 -28.6903217918 108.718527116 -12.2402918569 127.794177188 4.79104532771 146.288520011 c 0
 30.8420980319 172.724763065 49.9665442981 205.488593698 58.7955543425 241.082510539 c 1
 56.5025253169 260 l 1
 56.5025253169 260 46.2423957486 335.435583167 44.5025253169 344 c 0
 40.5368900913 363.520622031 38.9520631099 377.921479209 38.9520631099 387.865074777 c 0
 38.9520631099 397.077362218 40.3123481214 402.463903233 42.3999600921 404.551515204 c 2
 91.8974347751 454.048989887 l 2
 92.5755593164 454.727114428 93.3304286741 455.057148333 94.1403481318 455.057148333 c 0
 95.3216920859 455.057148333 96.6201549906 454.355002022 97.9684147592 453.006742253 c 2
 146.170244435 404.804912578 l 1
 153.605152303 412.239820446 l 2
 166.668606911 425.303275054 181.611453837 431.024027101 196.541131866 431.024027101 c 0
 215.414667962 431.024027101 234.26715876 421.881657115 249.275127651 406.873688225 c 2
 298.772602334 357.376213542 l 2
 317.026254563 339.122561313 329.592712798 312.19193971 329.592712798 282.479971074 c 0
 329.592712798 277.442958395 329.279791298 272.399684679 329.279791298 267.344924937 c 0
 329.279791298 238.286437652 333.497474683 209.551867189 333.497474683 180 c 1
 328.858332925 163.987073666 322.752369149 149.046002942 314.718150225 136.17091782 c 1
 318.239981204 137.602490999 321.074538991 139.252853678 323 141.097084058 c 1
 372.451529555 89.4674216132 l 1
 323 42.1021346919 l 2
 315.646696447 35.0590495592 295.034549183 30.8434538605 273.518793554 30.8434538605 c 0
230.284841932 267.344924937 m 0
 230.284841932 272.399684679 230.597763432 277.442958395 230.597763432 282.479971074 c 0
 230.597763432 298.485563192 226.951118096 313.684039575 220.733209874 327.153782944 c 1
 212.879998924 330.315334238 204.712537873 332.029077735 196.541131866 332.029077735 c 0
 192.278330986 332.029077735 188.014456515 331.56269514 183.793562291 330.592175217 c 1
 167.497474683 298 l 1
 164.147294178 185.768953069 l 1
 166.781985701 152.396193769 l 1
 180.239800651 149.515999257 194.501005342 146.087492119 206.488283333 143.039675885 c 0
 212.042662441 144.155484762 217.262601389 145.7332263 222.168207354 147.729580791 c 0
 227.137679573 157.700426658 231.193290201 168.57751263 234.502525317 180 c 0
 234.502525317 209.551867189 230.284841932 238.286437652 230.284841932 267.344924937 c 0
EndSplineSet
EndChar
StartChar: q
Encoding: 113 113 80
GlifName: q
Width: 339
Flags: HW
LayerCount: 2
Fore
SplineSet
7 36.5025253169 m 1
 3 36.5025253169 -1 36.5025253169 -5 36.5025253169 c 1
 -5 123.497474683 l 1
 -42.4974746831 86 l 1
 -37.6967813892 110.532640039 -32.3718279012 134.541019885 -28.4974746831 160 c 2
 -25.821935511 176.053235032 l 1
 70.4974746831 160 l 1
 66.6170958829 134.547045467 61.3017968965 110.52901112 56.4974746831 86 c 1
 7 36.5025253169 l 1
266.497474683 256 m 0
 266.497474683 204.096654986 264.665058973 142.86151561 231.570458899 109.7669155 c 1
 232.497474683 56 l 1
 244.497474683 -46 l 2
 245.400903061 -50.3706062638 246.259262238 -54.7475513391 247.076795596 -59.1306912535 c 1
 250.630660282 -54.3991117437 254.431217309 -50.2230485111 257.502525317 -46 c 2
 323.749426719 45.0894894282 l 1
 388.497474683 -2 l 1
 356.497474683 -46 l 1
 333.303718958 -73.4182700772 304.10348601 -120.972904256 292.497474683 -154 c 0
 283.431377457 -179.79929079 276.579471253 -198.089960374 271.51374283 -203.155688796 c 2
 222.016268147 -252.653163479 l 2
 221.083212875 -253.586218752 220.210755229 -254.070606449 219.396220644 -254.070606449 c 0
 218.797907375 -254.070606449 218.230846962 -253.809251148 217.693979391 -253.272383577 c 2
 168.196504708 -203.774908894 l 2
 164.922363437 -200.500767623 162.771182705 -186.979515605 161.502525317 -160 c 0
 157.702280369 -121.592738433 153.266854292 -83.5622702769 145.502525317 -46 c 1
 135.463225959 39.3340445464 l 1
 130.901831112 38.7860828708 126.085500455 38.5025253169 121 38.5025253169 c 0
 92.5624181961 38.5025253169 67.0758438772 50.2055892391 48.4504824339 68.8309506824 c 2
 -1.04699224914 118.328425365 l 2
 -20.5235805468 137.805013663 -32.4974746831 164.851091807 -32.4974746831 194 c 0
 -32.4974746831 247.878455066 -23.9649258356 331.950216751 15.8029159709 371.718058558 c 2
 65.300390654 421.215533241 l 2
 79.1142229813 435.029365568 96.6969143863 443.497474683 119 443.497474683 c 0
 126.216128493 443.497474683 165.640591793 444.497474683 173 444.497474683 c 1
 173 396 l 1
 232.497474683 396 l 1
 243.731876087 350.071107148 266.497474683 315.289352667 266.497474683 256 c 0
119 344.502525317 m 0
 109.498539133 344.502525317 100.853778992 342.965654692 92.9921495123 340.133327674 c 1
 71.7127811024 296.700195747 66.4974746831 236.122647281 66.4974746831 194 c 0
 66.4974746831 177.454418999 70.355409393 161.58636036 77.2535613297 147.395596697 c 1
 90.4973596973 141.06506791 105.298883351 137.497474683 121 137.497474683 c 0
 124.848470968 137.497474683 128.542794834 137.659861308 132.089140249 137.976333945 c 1
 129.502525317 288 l 1
 131.60249107 344.699075345 l 1
 125.797163325 344.583365081 121.103628863 344.502525317 119 344.502525317 c 0
EndSplineSet
EndChar
StartChar: r
Encoding: 114 114 81
GlifName: r
Width: 417
Flags: HW
LayerCount: 2
Fore
SplineSet
279 458.497474683 m 0
 282.896476212 458.497474683 286.08445808 458.67297672 289.591188141 458.67297672 c 0
 293.408954147 458.67297672 295.894775482 458.340334358 297.475975367 456.759134473 c 2
 346.97345005 407.26165979 l 2
 348.923191303 405.311918537 349.497474683 401.463771847 349.497474683 394 c 0
 349.497474683 377.912232097 341.595706278 363.04106305 328.407288949 349.852645721 c 2
 301.785230703 323.230587475 l 1
 307.497474683 169 l 1
 319.497474683 82 l 1
 334.95118996 57.8535698799 l 1
 356.817635466 59.6028855203 l 1
 361.502525317 76 l 1
 370.102188608 93.1993265821 378.701851899 110.398653164 387.30151519 127.597979746 c 1
 466.497474683 88 l 1
 460.497474683 76 l 1
 442.497474683 13 l 1
 393 -36.4974746831 l 1
 318 -42.4974746831 l 1
 268.502525317 7 l 1
 220.502525317 82 l 1
 218.82955199 94.1290566201 l 1
 214.675067671 69.3897515308 205.887599 48.0904048716 190.890405724 33.0932115957 c 2
 141.392931041 -16.4042630873 l 2
 126.781290508 -31.0159036206 106.275104506 -39.6452611985 78.4161393445 -39.6452611985 c 0
 76.3192875209 -39.6452611985 74.1807816654 -39.5963752565 72 -39.4974746831 c 0
 57.1661511076 -39.4974746831 46.085143859 -33.6640527272 37.2268743858 -24.805783254 c 2
 -12.2706002972 24.6916914291 l 2
 -30.2845552462 42.7056463781 -38.2002979185 72.7169483476 -52.4974746831 94 c 1
 15.7153394385 139.822877143 l 1
 46.4974746831 94 l 2
 52.77813537 84.650487994 58.4904064268 71.5830230836 64.0401765962 60.0944380247 c 0
 66.56819097 59.7026373276 69.2181013805 59.4974746831 72 59.4974746831 c 0
 74.1807816435 59.3985741116 76.3192874783 59.3496881706 78.4161392822 59.3496881706 c 0
 90.9965440775 59.3496881706 102.077572063 61.1093845288 111.793504679 64.3850213758 c 1
 119.531846729 83.9098619787 122.790068116 107.374046729 122.790068116 132.559509632 c 0
 122.790068116 166.880797291 116.739336895 204.398611588 107.730136671 239.499689779 c 1
 105.115364881 239.42061449 102.524320449 239.380718791 99.9610207535 239.380718791 c 0
 66.5916148379 239.380718791 37.9241672219 246.141926178 22.8218631917 261.244230208 c 2
 -26.6756114914 310.741704891 l 2
 -33.9406839625 318.006777362 -38.066564434 327.202113504 -38.066564434 338.503593485 c 0
 -38.066564434 340.906611365 -37.8800295736 343.40484995 -37.4974746831 346 c 0
 -37.4974746831 364.91970591 -30.5620744332 400.59751714 -13.5902702924 417.569321281 c 2
 35.9072043906 467.066795964 l 2
 41.7195046978 472.879096271 48.7089181185 476.497474683 57 476.497474683 c 0
 61.9690599102 476.497474683 66.8899476854 473.499452826 71.6538110622 468.73558945 c 2
 121.151285745 419.238114767 l 2
 135.127475732 405.26192478 145.747668324 377.832958904 157.497474683 361 c 0
 160.454770051 356.763331762 163.527493035 351.755466856 166.655743642 346.0851394 c 1
 180.458480166 349.140433607 194.126923158 353.053630711 207.15191162 357.733971242 c 1
 214.502525317 400 l 1
 264 449.497474683 l 1
 269.076961389 452.761223919 270.56400633 458.497474683 279 458.497474683 c 0
61.9947384606 355.7245271 m 1
 61.6595369779 352.175877357 61.4974746831 348.892141975 61.4974746831 346 c 0
 61.3006223796 344.664606628 61.1556732525 343.354873964 61.0613349364 342.070571641 c 0
 64.1822854864 341.403060769 67.4089813571 340.828747136 70.7289581248 340.345408991 c 1
 67.7694647873 346.052334427 64.8416256289 351.208536564 61.9947384606 355.7245271 c 1
205.204501603 258.046640284 m 1
 204.126640253 257.667483358 203.044586283 257.29356029 201.958624108 256.924921779 c 0
 203.26841807 252.415584225 204.535625625 247.84764042 205.753116674 243.23403335 c 1
 205.204501603 258.046640284 l 1
EndSplineSet
EndChar
StartChar: s
Encoding: 115 115 82
GlifName: s
Width: 348
Flags: HW
LayerCount: 2
Fore
SplineSet
171.522965488 110.65604903 m 0
 173.637329376 110.65604903 175.757453317 110.497474683 178 110.497474683 c 0
 182.048087986 110.497474683 184.778099767 108.562137464 187.379578143 105.960659088 c 0
 193.939342132 99.4008950993 198.354499584 92.4974746831 212 92.4974746831 c 0
 223.59972878 92.4974746831 234.966217424 96.795793364 246.09534178 102.818386605 c 0
 244.785181047 105.690414807 243.33814381 108.477996818 241.765916151 111.188287745 c 0
 221.937296952 125.241443091 200.008172137 138.011953874 180.2710032 152.122180889 c 1
 120.973101597 102.298456818 52.2345476154 47.5025253169 4 47.5025253169 c 2
 -1.7763568394e-14 47.5025253169 l 1
 -1.7763568394e-14 146.497474683 l 1
 4 146.497474683 l 2
 37.1414956085 146.497474683 79.9627941402 172.366263857 122.750724269 204.716806333 c 1
 102.178775438 225.288755164 l 2
 83.315341974 244.152188628 70.5025253169 266.675826291 70.5025253169 297 c 0
 70.5025253169 332.634285174 76.5245204478 366.831786112 98.8859310209 389.193196685 c 2
 148.383405704 438.690671368 l 2
 155.712565105 446.019830769 164.797004724 452.077484752 176 456.497474683 c 0
 184.209169681 456.497474683 192.629156127 456.776051298 200.851038588 456.776051298 c 0
 216.001628396 456.776051298 230.562484509 455.835445513 242 450.497474683 c 1
 278 420.497474683 l 1
 327.497474683 371 l 1
 329.497474683 313 l 1
 313.497474683 269 l 1
 264 219.502525317 l 1
 258.589755941 215.90962262 252.710368765 211.632855727 246.435394031 206.819038095 c 1
 255.590191805 200.108342295 264.213350196 193.064906769 271.8611835 185.417073465 c 2
 316.292909448 140.985347517 l 1
 348 150.497474683 l 1
 375.246316339 59.6764202187 l 1
 352.537443951 52.8637585022 l 1
 349.884924003 38.1663166482 341.936843997 22.1190316189 331.215135536 11.3973231577 c 2
 281.717660853 -38.1001515253 l 2
 274.215175195 -45.6026371831 265.354592994 -50.4974746831 256 -50.4974746831 c 0
 231.546659503 -50.4974746831 195.0889261 -44.6108921653 176.251384495 -25.7733505604 c 2
 126.753909812 23.7241241226 l 2
 119.218428274 31.2596056606 114.502525317 40.8674963563 114.502525317 53 c 0
 114.502525317 56.4031156497 115.135442502 58.4152411549 116.309622385 59.589421038 c 2
 165.807097068 109.086895721 l 2
 167.098396844 110.378195497 169.04432221 110.65604903 171.522965488 110.65604903 c 0
169.497474683 297 m 0
 169.497474683 279.570365484 173.730425486 264.71778223 180.912265324 251.65605019 c 1
 193.858669724 262.538543374 207.658343018 274.293346115 220.220335575 284.723978209 c 1
 230.502525317 313 l 1
 229.032762214 355.623129988 l 1
 220.357818441 357.381200594 210.72979203 357.781101932 200.851038588 357.781101932 c 0
 193.372745141 357.781101932 185.750804154 357.551937479 178.2899919 357.509307309 c 1
 171.678640187 339.371188126 169.497474683 318.445795553 169.497474683 297 c 0
EndSplineSet
EndChar
